<svg width="260" height="59" viewBox="0 0 260 59" fill="none" xmlns="http://www.w3.org/2000/svg">
<path d="M0.647827 29.0953C0.647827 13.413 13.2762 0.654503 28.7985 0.654503C44.3207 0.654503 56.9491 13.413 56.9491 29.0953C56.9491 44.7775 44.3207 57.536 28.7985 57.536C13.2762 57.536 0.647827 44.7775 0.647827 29.0953ZM0 29.0953C0 45.1392 12.9182 58.1905 28.7985 58.1905C44.6787 58.1905 57.5969 45.1392 57.5969 29.0953C57.6012 13.0513 44.6787 0 28.7985 0C12.9182 0 0 13.0513 0 29.0953Z" fill="#003A60"/>
<path d="M5.94984 29.0953C5.94984 16.3756 16.1915 6.02841 28.7815 6.02841C41.3757 6.02841 51.6216 16.3756 51.6216 29.0953C51.6216 42.5084 41.0305 52.1623 28.7815 52.1623C16.1915 52.1623 5.94984 41.8151 5.94984 29.0953ZM1.87109 29.0953C1.87109 44.0886 13.9454 56.2874 28.7857 56.2874C43.6303 56.2874 55.7089 44.0886 55.7089 29.0953C55.7089 14.1021 43.6303 1.90332 28.7857 1.90332C13.9411 1.90332 1.87109 14.1021 1.87109 29.0953Z" fill="#003A60"/>
<path d="M20.6711 16.4016C20.6242 16.4102 15.5055 17.2413 10.7875 20.3458C10.7576 20.3631 10.7363 20.3889 10.7235 20.4234C8.06405 25.9479 7.94045 31.8556 10.3655 37.5093C10.3783 37.5438 10.5275 37.6945 10.5573 37.716C12.1598 38.8399 13.7411 39.6537 17.3595 40.8637C17.4362 40.8895 17.5215 40.8593 17.5683 40.7948C17.5897 40.7603 17.6024 40.7216 17.6024 40.6871C17.6024 40.6484 17.5897 40.6096 17.5641 40.5752C14.261 36.0798 13.9201 33.1259 13.6771 32.2518C14.1545 32.2604 15.8763 32.2733 17.1123 32.2432C17.1635 32.2432 17.2146 32.2173 17.2487 32.1786C17.2828 32.1398 17.2998 32.0838 17.2913 32.0322C17.0356 30.0342 17.2189 27.4593 17.2231 27.4334C17.2274 27.3817 17.2103 27.3301 17.172 27.2913C17.1379 27.2526 17.0867 27.231 17.0313 27.2353C17.0185 27.2353 15.0538 27.2784 13.3191 27.244C13.5365 24.303 14.3377 23.1748 14.4784 22.9509C14.7554 22.8433 16.5071 22.1802 18.2716 21.7324C18.3312 21.7194 18.3781 21.6764 18.3994 21.6161C19.6098 18.3953 20.833 16.7245 20.8458 16.7073C20.8757 16.6729 20.8885 16.6298 20.8885 16.5868C20.8885 16.5566 20.8799 16.5222 20.8629 16.492C20.8245 16.4231 20.7478 16.3887 20.6711 16.4016Z" fill="#003A60"/>
<path d="M37.2626 16.4787C37.22 16.5347 37.2072 16.6079 37.237 16.6725C40.8257 25.3748 39.4405 33.1082 35.2296 41.8321C35.1998 41.8924 35.2126 41.9613 35.2509 42.0172C35.2893 42.0732 35.3532 42.099 35.4171 42.0947C37.3095 41.9268 38.831 41.2077 38.9035 41.1776C38.9418 41.1603 39.0143 41.0484 38.9972 41.0871C38.2642 42.5985 41.2987 36.1913 42.3472 31.8337C42.4154 31.7045 42.5219 31.7045 42.5219 31.8681C42.5219 34.1417 41.6056 38.2754 41.0473 40.2518C41.043 40.269 41.0388 40.2862 41.0388 40.3035C41.0388 40.3508 41.0601 40.4025 41.0942 40.437C41.141 40.4843 41.2135 40.5015 41.2774 40.4843C42.3387 40.17 42.8799 39.7265 42.914 39.7006C42.9354 39.6834 42.9567 39.6619 42.9694 39.636C43.6258 38.4045 45.2582 34.0685 45.7824 31.8466C45.8207 31.6485 45.9955 31.627 45.9955 31.8509C46.0168 34.2967 44.508 38.6844 44.4952 38.7189C44.4867 38.7447 44.4825 38.7662 44.4825 38.7921C44.4825 38.8438 44.5038 38.8911 44.5421 38.9299C44.5975 38.9815 44.6828 38.9945 44.751 38.96C44.8021 38.9342 46.183 38.4175 47.0908 37.595C47.1121 37.5735 47.1292 37.5477 47.142 37.5218C49.2218 31.7648 49.4392 25.5901 47.0866 20.5822C47.0738 20.5564 47.0567 20.5349 47.0354 20.5177C45.9102 19.6091 44.4143 19.0752 44.3589 19.0536C44.2949 19.0278 44.2182 19.0407 44.1671 19.0881C44.1287 19.1225 44.1074 19.1742 44.1074 19.2259C44.1074 19.2431 44.1074 19.2603 44.1159 19.2775C44.1287 19.3206 45.0152 22.6577 45.0152 26.1412C45.0152 26.7957 44.9769 27.4502 44.9044 28.0918C44.8959 28.1908 44.7595 28.221 44.7126 28.1004C43.9497 22.2917 41.0217 17.6843 40.9876 17.6284C40.9706 17.5982 40.9407 17.5724 40.9066 17.5595C40.8896 17.5509 39.2061 16.7844 37.4629 16.4184C37.3734 16.4012 37.3052 16.427 37.2626 16.4787Z" fill="#003A60"/>
<path d="M25.6997 15.9235C23.8414 16.6727 22.2773 18.1755 21.1862 20.2768C19.9758 22.602 19.3621 25.5559 19.3621 29.0566C19.3621 32.3549 20.2102 35.5887 21.7573 38.1594C23.2277 40.6094 25.2394 42.0175 27.2681 42.4438C31.2062 43.2748 34.3345 40.4975 34.7948 37.1345C34.8076 37.0527 34.8076 36.9709 34.7394 36.9192C34.6755 36.8676 34.586 36.8676 34.5221 36.9149C31.8924 38.9129 29.4545 39.4382 27.4684 38.4392C24.9496 37.169 23.1382 33.3927 23.1382 29.0437C23.1382 24.6172 24.8643 20.505 27.1573 19.5103C29.3394 18.5673 31.04 19.661 33.0133 21.56C33.0517 21.5944 33.0985 21.6159 33.1497 21.6116C33.2008 21.6073 33.2477 21.5815 33.2775 21.5384L33.8231 21.0131L35.5918 19.0453C35.643 18.9764 35.6387 18.8773 35.579 18.8128C32.6979 15.7426 28.9132 14.636 25.6997 15.9235Z" fill="#003A60"/>
<path d="M36.1202 20.2463C33.5545 22.2357 34.1768 24.9656 34.7223 27.3727C35.1954 29.461 35.6045 31.2609 33.8869 32.1781C33.8401 32.2039 33.806 32.247 33.7932 32.2987C33.3542 34.3224 32.8641 35.1449 31.969 36.639L31.4874 37.4615C31.4491 37.5304 31.4533 37.6122 31.5045 37.6725C31.5556 37.7328 31.6366 37.75 31.7091 37.7241C37.5438 35.3602 37.2795 32.1609 37.0408 29.3448C36.9002 27.6698 36.7681 26.0895 37.8805 24.7891C37.9146 24.746 37.9316 24.6901 37.9231 24.6384C37.6333 23.0969 36.4442 20.4315 36.393 20.3195C36.3717 20.2679 36.3248 20.2334 36.2737 20.2205C36.2225 20.199 36.1671 20.2119 36.1202 20.2463Z" fill="#003A60"/>
<path d="M25.9559 31.9541C25.8238 32.0144 25.7087 32.0704 25.5212 32.0704C25.1589 32.0661 24.9756 31.9972 24.7199 31.9067L24.477 31.8206C24.4173 31.7991 24.3534 31.812 24.3022 31.8551C24.2553 31.8981 24.234 31.9627 24.2468 32.0273C24.4386 33.0392 24.8392 33.4741 25.5339 33.444C25.7769 33.431 25.9388 33.3664 26.0795 33.3105C26.2201 33.2502 26.3437 33.2028 26.5654 33.2028C26.7699 33.2071 26.8935 33.2588 27.0299 33.3148C27.1791 33.3794 27.3538 33.4483 27.6223 33.4483C27.9079 33.4483 28.0826 33.3708 28.2361 33.2976C28.3639 33.2373 28.479 33.1899 28.6623 33.1856C28.8498 33.1942 28.9649 33.2416 29.097 33.3019C29.2504 33.3708 29.4252 33.4483 29.715 33.4397C29.9792 33.4397 30.1497 33.3664 30.2989 33.3019C30.4353 33.2416 30.5546 33.1942 30.7549 33.1985C30.951 33.2028 31.0703 33.2502 31.2067 33.3062C31.3601 33.3664 31.5391 33.4397 31.8204 33.4397C32.1614 33.4397 32.9626 33.3019 33.0777 32.0101C33.082 31.9412 33.0521 31.8723 32.9925 31.8378C32.9328 31.8034 32.8561 31.8034 32.8007 31.8464C32.562 32.0101 32.2978 32.0704 31.8204 32.0747C31.6158 32.0747 31.5008 32.0187 31.3644 31.9584C31.2109 31.8852 31.0362 31.8034 30.7592 31.8077C30.4907 31.812 30.3245 31.8852 30.1753 31.9541C30.0389 32.0144 29.9196 32.066 29.7235 32.0617C29.5189 32.0574 29.3996 32.0101 29.2589 31.9541C29.1055 31.8938 28.935 31.8206 28.658 31.8206C28.3938 31.8206 28.2275 31.8938 28.0784 31.9584C27.942 32.0187 27.8226 32.0704 27.6223 32.0704C27.4135 32.0704 27.2942 32.0187 27.1578 31.9541C27.0086 31.8852 26.8424 31.8077 26.5696 31.8034C26.2883 31.7991 26.1136 31.8809 25.9559 31.9541Z" fill="#003A60"/>
<path d="M26.3776 33.9568C26.2668 34.0128 26.1731 34.0515 26.0239 34.0515C25.7042 34.0515 25.5849 34.0042 25.3633 33.9224L25.197 33.8621C25.1374 33.8406 25.0692 33.8535 25.018 33.8965C24.9712 33.9396 24.9499 34.0085 24.9626 34.0731C25.163 34.9041 25.4911 35.2787 26.0239 35.2787C26.2455 35.2787 26.3904 35.2141 26.514 35.1625C26.6333 35.1108 26.7271 35.0677 26.8976 35.072C27.0638 35.0764 27.1661 35.1194 27.2769 35.1668C27.4048 35.2228 27.5539 35.283 27.7841 35.2873C28.0313 35.2873 28.1805 35.2185 28.3126 35.1582C28.4234 35.1065 28.5086 35.0634 28.6578 35.0634C28.807 35.0677 28.9007 35.1108 29.0116 35.1582C29.1437 35.2185 29.2971 35.2873 29.5443 35.2787C29.7702 35.2787 29.9194 35.2141 30.0472 35.1582C30.1666 35.1065 30.2561 35.0677 30.418 35.072C30.5757 35.0764 30.6737 35.1151 30.7846 35.1625C30.9167 35.2185 31.0701 35.2787 31.313 35.2787C31.7392 35.2787 32.2379 34.9515 32.3487 34.0515C32.3572 33.9827 32.3274 33.9138 32.2677 33.875C32.2081 33.8363 32.1356 33.8363 32.0759 33.875C31.8501 34.0214 31.6881 34.0472 31.3088 34.0515C31.1468 34.0515 31.0531 34.0085 30.938 33.9525C30.8059 33.8879 30.6567 33.8147 30.4138 33.819C30.1836 33.8233 30.0344 33.8879 29.9066 33.9482C29.7915 33.9999 29.702 34.0429 29.5443 34.0386C29.3781 34.0343 29.2801 33.9956 29.165 33.9482C29.0329 33.8922 28.8837 33.8319 28.6493 33.8319C28.4234 33.8319 28.2785 33.8965 28.1506 33.9525C28.0398 33.9999 27.9418 34.0429 27.7798 34.0472C27.6136 34.0472 27.5198 34.0085 27.4048 33.9525C27.2769 33.8922 27.132 33.8233 26.8976 33.819C26.6632 33.8233 26.5098 33.8922 26.3776 33.9568Z" fill="#003A60"/>
<path d="M26.2331 35.8039C26.1521 35.8427 26.1095 35.9331 26.1351 36.0192C26.4377 37.0527 27.5884 37.9311 28.6497 37.9311C29.8643 37.9311 30.9171 36.9407 31.1898 36.0235C31.2069 35.9676 31.1941 35.9073 31.16 35.8599C31.079 35.7523 30.6912 35.6532 30.5079 35.6532C30.2692 35.6575 30.1158 35.7221 29.9837 35.7781C29.8601 35.8341 29.7663 35.8728 29.5958 35.8728C29.4211 35.8685 29.3188 35.8298 29.1952 35.7781C29.0588 35.7221 28.9054 35.6661 28.6625 35.6618C28.4281 35.6618 28.2789 35.7221 28.1468 35.7781C28.0274 35.8298 27.9251 35.8728 27.7547 35.8728C27.5756 35.8771 27.4776 35.8298 27.354 35.7781C27.2219 35.7178 27.0727 35.6532 26.8298 35.6489C26.5996 35.6489 26.3141 35.7652 26.2331 35.8039Z" fill="#003A60"/>
<path d="M28.6875 8.61621C23.2364 8.61621 19.1705 10.8036 16.7198 12.638C14.0603 14.6273 12.7135 16.5822 12.6581 16.664C12.6069 16.7372 12.6155 16.832 12.6751 16.8965C12.7348 16.9611 12.8286 16.9784 12.9053 16.9353C12.9692 16.9008 19.3409 13.3484 28.6875 13.3484C38.0341 13.3484 44.538 17.0257 44.6019 17.0645C44.6786 17.1075 44.7724 17.0903 44.8321 17.0257C44.8917 16.9611 44.896 16.8621 44.8491 16.7889C44.8363 16.7674 43.4128 14.7177 40.7235 12.6982C38.2387 10.8381 34.1387 8.61621 28.6875 8.61621Z" fill="#007E48"/>
<path d="M12.449 40.9365C12.3894 41.0011 12.3851 41.0958 12.432 41.169C12.4448 41.1905 13.8811 43.309 16.5917 45.3931C19.0935 47.3179 23.2319 49.6129 28.7257 49.6129C34.2194 49.6129 38.3536 47.3179 40.8554 45.3931C43.566 43.309 44.9981 41.1905 45.0108 41.169C45.0577 41.0958 45.0535 41.0011 44.9938 40.9365C44.9341 40.8719 44.8404 40.8547 44.7636 40.8977C44.6997 40.9322 38.149 44.4716 28.7214 44.4716C19.2938 44.4716 12.7346 40.9322 12.6707 40.8977C12.6025 40.8547 12.5087 40.8719 12.449 40.9365Z" fill="#007E48"/>
<path d="M69.6711 13.667H76.6864V15.8372H72.2198V18.3131H76.6864V20.5005H72.2198V25.7021H69.6711V13.667Z" fill="#007E48"/>
<path d="M81.5705 16.2934H80.5391L81.9754 13.5635H83.8677L81.5705 16.2934Z" fill="#007E48"/>
<path d="M82.3848 19.523C81.0849 19.523 80.2837 20.3799 80.2837 21.676C80.2837 22.9893 81.102 23.8462 82.3848 23.8462C83.6677 23.8462 84.486 22.9893 84.486 21.676C84.486 20.3842 83.6848 19.523 82.3848 19.523ZM82.4019 26.0207C79.7381 26.0207 77.9353 24.1002 77.9353 21.6932C77.9353 19.2862 79.785 17.3657 82.4019 17.3657C85.0358 17.3657 86.8514 19.2345 86.8514 21.6932C86.8514 24.1347 85.0188 26.0207 82.4019 26.0207Z" fill="#007E48"/>
<path d="M84.3539 16.2934H83.3225L84.7631 13.5635H86.6511L84.3539 16.2934Z" fill="#007E48"/>
<path d="M87.3159 17.6415H89.9967L91.3478 21.8312C91.5311 22.4039 91.6802 22.9938 91.7484 23.6311C91.8507 22.9421 91.9828 22.3178 92.1661 21.7451L93.5342 17.6372H96.1681L92.8864 25.7022H90.5721L87.3159 17.6415Z" fill="#007E48"/>
<path d="M101.044 19.3035C99.7784 19.3035 99.0112 20.1948 99.0112 21.6588C99.0112 23.1056 99.7613 23.9668 101.027 23.9668C102.293 23.9668 103.043 23.1272 103.043 21.6588C103.047 20.1647 102.229 19.3035 101.044 19.3035ZM102.911 25.7021L102.945 24.5395C102.31 25.5686 101.462 26.0208 100.196 26.0208C98.129 26.0208 96.6628 24.3544 96.6628 21.6804C96.6628 18.9719 98.0139 17.3701 100.281 17.3701C101.449 17.3701 102.348 17.8911 102.962 18.9676V17.6371H105.161V25.7021H102.911Z" fill="#007E48"/>
<path d="M101.185 16.2934H100.149L101.59 13.5635H103.478L101.185 16.2934Z" fill="#007E48"/>
<path d="M112.21 17.3701C112.462 17.3701 112.743 17.4218 113.076 17.4692L112.726 19.9967C112.377 19.846 112.027 19.7771 111.644 19.7771C110.16 19.7771 109.662 20.535 109.662 22.1497V25.7021H107.347V17.6414H109.632L109.581 19.7125C110.045 18.1452 110.91 17.3701 112.21 17.3701Z" fill="#007E48"/>
<path d="M118.058 19.523C116.758 19.523 115.957 20.3799 115.957 21.676C115.957 22.9893 116.775 23.8462 118.058 23.8462C119.341 23.8462 120.159 22.9893 120.159 21.676C120.159 20.3842 119.358 19.523 118.058 19.523ZM118.075 26.0207C115.407 26.0207 113.609 24.1002 113.609 21.6932C113.609 19.2862 115.458 17.3657 118.075 17.3657C120.709 17.3657 122.525 19.2345 122.525 21.6932C122.525 24.1347 120.692 26.0207 118.075 26.0207Z" fill="#007E48"/>
<path d="M125.274 23.3638C125.389 23.9709 125.939 24.3757 126.723 24.3757C127.49 24.3757 127.938 24.0743 127.938 23.5834C127.938 22.86 127.285 22.8083 126.22 22.4035C124.588 21.7792 123.722 21.1936 123.722 19.9793C123.722 18.4636 124.988 17.3354 127.072 17.3354C128.521 17.3354 129.604 17.9598 130.073 19.0019L128.372 19.8587C128.189 19.2516 127.724 18.933 127.038 18.933C126.339 18.933 125.888 19.2516 125.888 19.708C125.888 20.3625 126.587 20.5348 127.754 20.918C129.387 21.4562 130.171 22.128 130.171 23.4111C130.171 24.9613 128.905 26.0205 126.77 26.0205C125.086 26.0205 123.872 25.3488 123.488 24.2852L125.274 23.3638Z" fill="#007E48"/>
<path d="M133.103 13.0942C133.776 13.0942 134.334 13.6411 134.334 14.3214C134.334 15.019 133.763 15.5658 133.103 15.5658C132.429 15.5658 131.888 14.9759 131.888 14.3214C131.888 13.6583 132.442 13.0942 133.103 13.0942Z" fill="#007E48"/>
<path d="M134.266 17.6372H131.952V25.7022H134.266V17.6372Z" fill="#007E48"/>
<path d="M75.9364 32.286C73.3877 32.286 71.7724 33.9524 71.7724 36.5274C71.7724 39.0205 73.2215 40.6524 75.6892 40.6524C77.0573 40.6524 78.2379 40.196 79.2565 39.253L79.2395 41.8969C78.1569 42.5385 76.9721 42.8571 75.6551 42.8571C71.8065 42.8571 69.1555 40.1487 69.1555 36.5274C69.1555 32.975 71.7383 30.2148 75.702 30.2148C77.2022 30.2148 78.3828 30.5852 79.3503 31.0545L79.2693 33.6295C78.3871 32.8415 77.3514 32.286 75.9364 32.286Z" fill="#007E48"/>
<path d="M82.4362 40.1958C82.5513 40.8029 83.1011 41.2077 83.8853 41.2077C84.6524 41.2077 85.0999 40.9063 85.0999 40.4154C85.0999 39.692 84.4479 39.6403 83.3823 39.2356C81.75 38.6112 80.8848 38.0256 80.8848 36.8113C80.8848 35.2956 82.1506 34.1675 84.2348 34.1675C85.6838 34.1675 86.7664 34.7918 87.2352 35.8339L85.5347 36.6908C85.3514 36.0836 84.8868 35.765 84.2007 35.765C83.5017 35.765 83.0499 36.0836 83.0499 36.5401C83.0499 37.1946 83.7489 37.3668 84.9167 37.75C86.549 38.2883 87.3332 38.96 87.3332 40.2432C87.3332 41.7933 86.0674 42.8526 83.9321 42.8526C82.2486 42.8526 81.034 42.1808 80.6504 41.1216L82.4362 40.1958Z" fill="#007E48"/>
<path d="M92.916 36.1399C91.6502 36.1399 90.883 37.0312 90.883 38.4953C90.883 39.9421 91.6332 40.8032 92.899 40.8032C94.1648 40.8032 94.9149 39.9636 94.9149 38.4953C94.9149 36.9968 94.0966 36.1399 92.916 36.1399ZM94.7828 42.5385L94.8169 41.3759C94.1818 42.4051 93.3337 42.8572 92.0679 42.8572C90.0008 42.8572 88.5347 41.1908 88.5347 38.5168C88.5347 35.8084 89.8857 34.2065 92.1531 34.2065C93.3209 34.2065 94.2202 34.7276 94.8339 35.804V34.4735H97.0331V42.5385H94.7828Z" fill="#007E48"/>
<path d="M99.497 36.3076H98.3804V34.4732H99.497V31.7949H101.811V34.4732H102.928V36.3076H101.811V42.5339H99.497V36.3076Z" fill="#007E48"/>
<path d="M108.294 36.3594C106.994 36.3594 106.193 37.2163 106.193 38.5124C106.193 39.8257 107.011 40.6826 108.294 40.6826C109.577 40.6826 110.395 39.8257 110.395 38.5124C110.395 37.2163 109.594 36.3594 108.294 36.3594ZM108.311 42.8571C105.643 42.8571 103.844 40.9366 103.844 38.5296C103.844 36.1226 105.694 34.2021 108.311 34.2021C110.945 34.2021 112.76 36.0709 112.76 38.5296C112.76 40.9711 110.928 42.8571 108.311 42.8571Z" fill="#007E48"/>
<path d="M119.375 34.2021C119.626 34.2021 119.907 34.2538 120.24 34.3012L119.89 36.8288C119.541 36.6781 119.191 36.6092 118.808 36.6092C117.325 36.6092 116.826 37.367 116.826 38.9817V42.5341H114.512V34.4734H116.796L116.745 36.5446C117.21 34.9772 118.075 34.2021 119.375 34.2021Z" fill="#007E48"/>
<path d="M121.289 34.4734H123.556V35.7351C124.387 34.693 125.325 34.2021 126.505 34.2021C127.737 34.2021 128.572 34.6241 129.054 35.481C129.369 36.0709 129.386 36.7254 129.386 37.5694V42.5341H127.072V38.5468C127.072 37.0139 126.94 36.1054 125.555 36.1054C124.903 36.1054 124.357 36.3896 124.003 36.8804C123.62 37.4015 123.603 37.9742 123.603 38.6674V42.5384H121.289V34.4734Z" fill="#007E48"/>
<path d="M135.468 36.1399C134.202 36.1399 133.435 37.0312 133.435 38.4953C133.435 39.9421 134.185 40.8032 135.451 40.8032C136.717 40.8032 137.467 39.9636 137.467 38.4953C137.467 36.9968 136.653 36.1399 135.468 36.1399ZM137.335 42.5385L137.369 41.3759C136.734 42.4051 135.886 42.8572 134.62 42.8572C132.553 42.8572 131.087 41.1908 131.087 38.5168C131.087 35.8084 132.438 34.2065 134.705 34.2065C135.873 34.2065 136.772 34.7276 137.386 35.804V34.4735H139.585V42.5385H137.335Z" fill="#007E48"/>
<path d="M135.605 33.1256H134.573L136.01 30.3999H137.902L135.605 33.1256Z" fill="#007E48"/>
<path d="M140.634 42.5382L144.866 36.3075H141.149V34.4731H148.382L144.201 40.6995H148.284V42.5382H140.634Z" fill="#007E48"/>
<path d="M153.663 36.1399C152.397 36.1399 151.63 37.0312 151.63 38.4953C151.63 39.9421 152.38 40.8032 153.646 40.8032C154.911 40.8032 155.661 39.9636 155.661 38.4953C155.661 36.9968 154.847 36.1399 153.663 36.1399ZM155.529 42.5385L155.563 41.3759C154.928 42.4051 154.08 42.8572 152.814 42.8572C150.747 42.8572 149.281 41.1908 149.281 38.5168C149.281 35.8084 150.632 34.2065 152.9 34.2065C154.067 34.2065 154.967 34.7276 155.581 35.804V34.4735H157.78V42.5385H155.529Z" fill="#007E48"/>
<path d="M153.799 33.1256H152.768L154.204 30.3999H156.096L153.799 33.1256Z" fill="#007E48"/>
<path d="M160.964 40.1958C161.079 40.8029 161.629 41.2077 162.413 41.2077C163.18 41.2077 163.628 40.9063 163.628 40.4154C163.628 39.692 162.976 39.6403 161.91 39.2356C160.278 38.6112 159.413 38.0256 159.413 36.8113C159.413 35.2956 160.678 34.1675 162.763 34.1675C164.212 34.1675 165.294 34.7918 165.763 35.8339L164.062 36.6908C163.879 36.0836 163.415 35.765 162.728 35.765C162.029 35.765 161.578 36.0836 161.578 36.5401C161.578 37.1946 162.277 37.3668 163.444 37.75C165.077 38.2883 165.861 38.96 165.861 40.2432C165.861 41.7933 164.595 42.8526 162.46 42.8526C160.776 42.8526 159.562 42.1808 159.178 41.1216L160.964 40.1958Z" fill="#007E48"/>
<path d="M168.793 29.9307C169.466 29.9307 170.02 30.4775 170.02 31.1579C170.02 31.8554 169.449 32.4023 168.793 32.4023C168.119 32.4023 167.578 31.8124 167.578 31.1579C167.578 30.4904 168.132 29.9307 168.793 29.9307Z" fill="#007E48"/>
<path d="M169.957 34.4731H167.642V42.5382H169.957V34.4731Z" fill="#007E48"/>
<path d="M178.408 30.499H181.072L183.369 37.5866C183.454 37.8407 183.569 38.3789 183.684 39.2186C183.782 38.3617 183.902 37.8062 183.983 37.5694L186.314 30.499H188.948L190.764 42.5341H188.347L187.482 35.2786C187.401 34.6241 187.316 33.9653 187.316 33.2936C187.316 33.1429 187.316 32.9922 187.333 32.8415C187.166 33.8361 187.017 34.5079 186.898 34.8437L184.383 42.5384H182.951L180.467 34.8437C180.415 34.693 180.266 34.017 180.019 32.8415V33.1945C180.019 34.0514 179.934 34.7275 179.87 35.2829L179.005 42.5384H176.588L178.408 30.499Z" fill="#007E48"/>
<path d="M194.484 38.7145C194.484 40.045 194.919 40.6995 196.232 40.6995C197.549 40.6995 197.983 40.0235 197.983 38.7145V34.4731H200.298V38.7145C200.298 41.5091 199.066 42.8568 196.266 42.8568C193.385 42.8568 192.183 41.4918 192.183 38.7145V34.4731H194.48V38.7145H194.484Z" fill="#007E48"/>
<path d="M195.158 33.1256H194.122L195.563 30.3999H197.451L195.158 33.1256Z" fill="#007E48"/>
<path d="M197.898 33.1256H196.863L198.303 30.3999H200.195L197.898 33.1256Z" fill="#007E48"/>
<path d="M201.248 34.4731H203.929L205.28 38.6627C205.463 39.2354 205.612 39.8253 205.681 40.4626C205.779 39.7737 205.915 39.1493 206.098 38.5766L207.466 34.4688H210.1L206.819 42.5338H204.504L201.248 34.4731Z" fill="#007E48"/>
<path d="M214.814 36.1227C213.783 36.1227 213.148 36.6437 212.965 37.6728H216.596C216.464 36.6609 215.863 36.1227 214.814 36.1227ZM212.896 39.0852C213.08 40.2478 213.727 40.8205 214.844 40.8205C215.675 40.8205 216.293 40.5018 216.711 39.8258L218.578 40.7688C217.712 42.1855 216.494 42.8572 214.797 42.8572C212.163 42.8572 210.599 41.1262 210.599 38.5469C210.599 36.0581 212.317 34.2065 214.814 34.2065C217.329 34.2065 218.931 35.804 218.931 38.4823C218.931 38.6847 218.914 38.8871 218.897 39.0895H212.896V39.0852Z" fill="#007E48"/>
<path d="M222.959 29.7925V38.0427L225.925 34.473H228.708L225.49 38.0427L229.024 42.5381H226.16L222.959 38.2623V42.5381H220.645V29.7925H222.959Z" fill="#007E48"/>
<path d="M234.092 42.5384L240.254 32.553H234.722V30.499H244.337L238.17 40.4673H244.086V42.5384H234.092Z" fill="#007E48"/>
<path d="M250.185 34.2021C250.436 34.2021 250.718 34.2538 251.05 34.3012L250.701 36.8288C250.351 36.6781 250.002 36.6092 249.618 36.6092C248.135 36.6092 247.636 37.367 247.636 38.9817V42.5341H245.322V34.4734H247.606L247.555 36.5446C248.02 34.9772 248.885 34.2021 250.185 34.2021Z" fill="#007E48"/>
<path d="M253.219 36.3076H252.103V34.4732H253.219V31.7949H255.533V34.4732H256.65V36.3076H255.533V42.5339H253.219V36.3076Z" fill="#007E48"/>
<path d="M258.773 40.2734C259.446 40.2734 260 40.8203 260 41.5135C260 42.1939 259.459 42.7407 258.773 42.7407C258.086 42.7407 257.545 42.1767 257.545 41.5135C257.541 40.8203 258.099 40.2734 258.773 40.2734Z" fill="#007E48"/>
</svg>
