<?xml version="1.0" encoding="UTF-8" standalone="no"?>
<!DOCTYPE svg PUBLIC "-//W3C//DTD SVG 1.1//EN" "http://www.w3.org/Graphics/SVG/1.1/DTD/svg11.dtd">
<svg width="100%" height="100%" viewBox="0 0 2142 1321" version="1.1" xmlns="http://www.w3.org/2000/svg" xmlns:xlink="http://www.w3.org/1999/xlink" xml:space="preserve" xmlns:serif="http://www.serif.com/" style="fill-rule:evenodd;clip-rule:evenodd;stroke-linejoin:round;stroke-miterlimit:2;">
    <rect id="logo-mol" x="0" y="0.011" width="2138.48" height="1319.69" style="fill:none;"/>
    <clipPath id="_clip1">
        <rect x="0" y="0.011" width="2138.48" height="1319.69"/>
    </clipPath>
    <g clip-path="url(#_clip1)">
        <path d="M1903.79,4.051c65.995,0 134.425,15.709 182.333,63.954c36.579,36.838 54.421,86.484 54.421,137.959c-0,110.958 -104.804,231.379 -178.384,305.458c-57.545,57.942 -120.187,111.688 -184.07,162.504c-69.876,55.575 -142.234,108.234 -215.726,158.921c-127.07,87.638 -258.262,169.934 -391.116,248.513c-92.475,54.696 -186.092,107.812 -280.671,158.804c-22.038,11.875 -44.408,23.187 -67.15,33.662c-50.908,23.446 -118.613,49.917 -175.217,49.917c-15.079,0 -30.145,-1.092 -45.07,-3.221c-102.038,-14.558 -190.926,-76.471 -261.771,-148.4c-81.621,-82.866 -147.971,-186.766 -199.425,-290.675c-42.538,-85.904 -77.617,-177.229 -102.775,-269.75c-11.425,-42.012 -20.905,-84.729 -27.546,-127.771c-5.809,-37.654 -9.563,-76.087 -9.563,-114.216c0,-205.267 72.967,-365.659 300.175,-365.659l1601.56,0Z" style="fill:#a0cb69;"/>
        <path d="M600.685,1052.27c-173.134,-100.55 -450.971,-342.054 -489.392,-692.304c-16.496,-150.863 31.05,-271.454 190.954,-271.454l1601.53,-0c132.53,-0 152.317,73.583 152.317,117.454c-0,52.587 -48.379,208.917 -496.171,525.558c-163.079,115.292 -398.633,258.638 -598.496,354.704c-99.033,47.609 -197.308,60.909 -360.745,-33.958Z" style="fill:#ed463b;"/>
        <path d="M559.943,1103.9c-163.096,-105.525 -443.271,-341.171 -487.009,-733.108c-7.333,-65.679 -0.566,-132.646 18.925,-188.517c12.95,-36.866 36.33,-77.741 78.496,-106.162c-83.466,42 -123.221,133.904 -123.221,280.833c0,294.925 272.121,864.325 601.067,864.325c26.413,0 65.608,-10.629 113.325,-28.846c-60.966,-11.333 -127.437,-40.579 -201.583,-88.525Z" style="fill:#fff;"/>
        <path d="M779.218,209.835l-130.371,-0l-77.838,202.275l-0.445,-202.275l-130.4,-0l-136.667,424.175l127.271,-0l51.162,-190.879l7.529,190.879l78.321,-0l80.542,-190.879l-21.837,190.879l127.274,-0l25.459,-424.175Z" style="fill:#fff;"/>
        <path d="M1105.8,225.039c-84.183,-50.179 -204.891,-2.821 -269.55,105.721c-64.783,108.541 -48.958,237.216 35.204,287.383c84.2,50.196 204.834,2.838 269.6,-105.704c64.696,-108.575 48.904,-237.242 -35.254,-287.4Zm-48.242,196.796c-8.891,46.416 -46.429,84.079 -83.849,84.079c-37.409,-0 -60.538,-37.663 -51.621,-84.079c8.879,-46.471 46.337,-84.1 83.808,-84.1c37.396,-0 60.533,37.629 51.662,84.1Z" style="fill:#fff;"/>
        <path d="M1167.27,634.014l143.996,-0l99.371,-129.233l-88.15,-0l56.346,-294.959l-130.538,0l-81.025,424.192Z" style="fill:#fff;"/>
    </g>
</svg>
