<?xml version="1.0" encoding="UTF-8" standalone="no"?>
<!DOCTYPE svg PUBLIC "-//W3C//DTD SVG 1.1//EN" "http://www.w3.org/Graphics/SVG/1.1/DTD/svg11.dtd">
<svg width="100%" height="100%" viewBox="0 0 3850 750" version="1.1" xmlns="http://www.w3.org/2000/svg" xmlns:xlink="http://www.w3.org/1999/xlink" xml:space="preserve" xmlns:serif="http://www.serif.com/" style="fill-rule:evenodd;clip-rule:evenodd;stroke-linejoin:round;stroke-miterlimit:2;">
    <rect id="logo-audi" x="2.777" y="1.976" width="3846.92" height="745.228" style="fill:none;"/>
    <clipPath id="_clip1">
        <rect x="2.777" y="1.976" width="3846.92" height="745.228"/>
    </clipPath>
    <g clip-path="url(#_clip1)">
        <path d="M2267.87,272.612l52.462,-0l22.56,-43.962l121.037,-0l22.859,43.962l53.046,-0l-111.357,-212.184l-49.239,-0l-111.368,212.184Zm135.695,-166.467l43.079,85.871l-86.169,0l43.09,-85.871Z" style="fill-rule:nonzero;"/>
        <path d="M2703.38,272.612l40.154,-0l0,-150.341l-46.015,-0l-0,107.262c-14.062,8.212 -28.433,12.605 -47.185,12.605c-27.837,-0 -39.272,-12.009 -39.272,-37.219l0,-82.637l-46.015,-0l0,88.509c0,53.631 35.177,66.523 74.15,66.523c24.326,-0.585 47.483,-8.786 60.96,-21.104l3.223,16.402Z" style="fill-rule:nonzero;"/>
        <path d="M2873.65,277.303c25.209,-0 49.238,-8.786 63.3,-21.689l3.223,16.998l40.154,-0l-0,-212.184l-46.015,-0l-0,71.798c-13.775,-9.083 -34.879,-14.646 -57.152,-14.646c-56.854,-0 -89.095,30.176 -89.095,79.712c0,49.525 31.943,80.011 85.585,80.011Zm9.084,-36.048c-31.06,-0 -47.771,-15.828 -47.771,-43.952c0,-28.134 16.711,-44.26 47.771,-44.26c21.688,0 36.335,3.808 51.578,11.722l-0,64.768c-15.243,8.201 -29.89,11.722 -51.578,11.722Z" style="fill-rule:nonzero;"/>
        <path d="M3037.77,272.612l46.015,-0l0,-150.341l-46.015,-0l-0,150.341Zm-0,-172.328l46.015,0l0,-39.856l-46.015,-0l-0,39.856Z" style="fill-rule:nonzero;"/>
        <path d="M2469.21,636.01l30.187,-0l0,-212.163l-30.187,0l-0,93.466l-136.567,-0l0,-93.466l-30.187,0l-0,212.163l30.187,-0l0,-94.051l136.567,0l-0,94.051Z" style="fill-rule:nonzero;"/>
        <path d="M2700.74,636.01l24.326,-0l0,-150.342l-29.017,0l-0,116.644c-16.115,9.382 -30.177,14.36 -53.046,14.36c-31.358,-0 -48.951,-9.956 -48.951,-38.399l-0,-92.616l-29.007,0l0,97.593c0,46.027 33.996,56.292 71.799,56.292c24.613,-0 46.6,-6.744 61.545,-16.424l2.351,12.892Z" style="fill-rule:nonzero;"/>
        <path d="M2792.46,636.01l29.029,-0l-0,-115.154c13.476,-8.51 34.867,-15.85 57.439,-15.85c31.357,-0 47.472,9.978 47.472,39.856l-0,91.148l29.017,-0l0,-96.126c0,-44.536 -32.527,-57.726 -70.341,-57.726c-26.678,0 -51.005,7.627 -65.949,18.477l-2.34,-14.956l-24.327,0l0,150.331Z" style="fill-rule:nonzero;"/>
        <path d="M3089.06,701.373c55.386,0 90.562,-19.922 90.562,-70.341l0,-145.364l-24.326,0l-2.053,12.307c-14.062,-9.956 -35.762,-15.828 -58.62,-15.828c-55.971,0 -88.797,27.848 -88.797,76.203c0,49.514 33.996,76.49 87.042,76.49c21.689,-0 43.079,-6.17 57.726,-15.243l-0,9.073c-0,38.112 -24.029,48.962 -63.3,48.962c-30.474,-0 -52.163,-5.287 -68.289,-12.031l0,24.614c14.073,6.181 39.867,11.158 70.055,11.158Zm9.669,-89.094c-40.74,-0 -63.002,-17.594 -63.002,-53.918c-0,-36.346 22.274,-53.631 63.002,-53.631c19.933,-0 37.516,5.563 51.876,14.658l-0,78.233c-14.36,9.095 -31.954,14.658 -51.876,14.658Z" style="fill-rule:nonzero;"/>
        <path d="M3368.94,636.01l24.327,-0l-0,-96.126c-0,-38.973 -30.773,-57.726 -76.203,-57.726c-30.475,0 -50.706,4.978 -66.523,12.009l0,22.572c17.583,-7.031 33.697,-11.126 63.885,-11.126c35.176,-0 49.823,13.477 49.823,38.09l0,5.287c-11.435,-0.607 -24.613,-1.181 -36.048,-1.181c-65.353,0 -92.02,16.711 -92.02,46.611c0,30.486 29.018,45.144 66.534,45.144c26.38,-0 49.227,-6.744 63.885,-17.307l2.34,13.753Zm-60.662,-18.753c-29.889,-0 -42.196,-8.499 -42.196,-24.018c-0,-17.008 19.051,-24.039 69.172,-24.039l29.006,-0l0,33.41c-12.903,9.084 -32.836,14.647 -55.982,14.647Z" style="fill-rule:nonzero;"/>
        <path d="M3457.45,636.01l29.018,-0l-0,-97.87c6.446,-10.838 21.104,-29.315 52.461,-29.315c11.137,-0 21.678,1.181 30.176,3.51l0,-25.784c-6.445,-2.351 -15.827,-3.819 -26.666,-3.819c-29.018,0 -46.302,14.658 -56.567,30.199l-2.34,-27.274l-26.082,0l0,150.353Z" style="fill-rule:nonzero;"/>
        <path d="M3610.44,636.01l29.017,-0l0,-150.342l-29.017,0l-0,150.342Zm-0,-180.518l29.017,-0l0,-31.645l-29.017,0l-0,31.645Z" style="fill-rule:nonzero;"/>
        <path d="M3828.77,636.01l24.326,-0l0,-96.126c0,-38.973 -30.772,-57.726 -76.191,-57.726c-30.486,0 -50.706,4.978 -66.534,12.009l-0,22.572c17.583,-7.031 33.708,-11.126 63.896,-11.126c35.176,-0 49.823,13.477 49.823,38.09l0,5.287c-11.435,-0.607 -24.625,-1.181 -36.048,-1.181c-65.353,0 -92.031,16.711 -92.031,46.611c0,30.486 29.018,45.144 66.534,45.144c26.38,-0 49.227,-6.744 63.896,-17.307l2.329,13.753Zm-60.662,-18.753c-29.889,-0 -42.196,-8.499 -42.196,-24.018c-0,-17.008 19.05,-24.039 69.161,-24.039l29.017,-0l0,33.41c-12.903,9.084 -32.836,14.647 -55.982,14.647Z" style="fill-rule:nonzero;"/>
        <path d="M1787.41,663.98c-66.059,-0 -126.909,-22.274 -175.54,-59.647c49.227,-63.145 78.62,-142.493 78.62,-228.784c0,-86.28 -29.393,-165.639 -78.62,-228.785c48.631,-37.384 109.481,-59.646 175.54,-59.646c159.304,-0 288.442,129.138 288.442,288.431c0,159.304 -129.138,288.431 -288.442,288.431Zm-645.074,-59.647c49.228,-63.145 78.631,-142.493 78.631,-228.784c0,-86.28 -29.403,-165.639 -78.631,-228.796c48.631,-37.373 109.481,-59.635 175.551,-59.635c66.071,-0 126.909,22.273 175.54,59.646c-49.227,63.157 -78.62,142.505 -78.62,228.785c0,86.28 29.393,165.639 78.62,228.784c-48.631,37.384 -109.48,59.647 -175.54,59.647c-66.07,-0 -126.92,-22.274 -175.551,-59.647Zm-469.533,0c49.216,-63.145 78.619,-142.493 78.619,-228.784c0,-86.28 -29.403,-165.639 -78.619,-228.796c48.631,-37.373 109.469,-59.635 175.539,-59.635c66.071,-0 126.92,22.273 175.551,59.635c-49.238,63.157 -78.631,142.516 -78.631,228.796c0,86.28 29.393,165.639 78.631,228.784c-48.631,37.384 -109.48,59.647 -175.551,59.647c-66.07,-0 -126.908,-22.274 -175.539,-59.647Zm-582.425,-228.784c-0,-159.304 129.138,-288.431 288.431,-288.431c66.081,-0 126.919,22.273 175.551,59.635c-49.228,63.157 -78.631,142.516 -78.631,228.796c-0,86.28 29.403,165.639 78.619,228.784c-48.62,37.384 -109.458,59.647 -175.539,59.647c-159.293,-0 -288.431,-129.127 -288.431,-288.431Zm523.198,167.471c-33.753,-47.229 -53.665,-105.01 -53.665,-167.471c0,-62.461 19.923,-120.242 53.665,-167.461c33.752,47.219 53.664,105 53.664,167.461c-0,62.461 -19.912,120.242 -53.664,167.471Zm469.533,0c-33.752,-47.229 -53.664,-105.01 -53.664,-167.471c0,-62.461 19.923,-120.242 53.664,-167.461c33.742,47.219 53.653,105 53.653,167.461c0,62.461 -19.911,120.242 -53.653,167.471Zm469.534,0c-33.752,-47.229 -53.664,-105.01 -53.664,-167.471c0,-62.461 19.923,-120.231 53.664,-167.461c33.742,47.23 53.653,105 53.653,167.461c0,62.461 -19.911,120.242 -53.653,167.471Zm234.767,-540.085c-88.995,-0 -170.683,31.258 -234.756,83.322c-64.105,-52.075 -145.783,-83.322 -234.778,-83.322c-89.006,-0 -170.694,31.258 -234.778,83.311c-64.094,-52.064 -145.771,-83.311 -234.778,-83.311c-89.006,-0 -170.683,31.258 -234.767,83.311c-64.083,-52.064 -145.76,-83.311 -234.777,-83.311c-205.794,-0 -372.603,166.82 -372.603,372.614c-0,205.804 166.809,372.614 372.603,372.614c89.006,-0 170.694,-31.258 234.777,-83.322c64.084,52.064 145.761,83.322 234.767,83.322c89.007,-0 170.684,-31.258 234.778,-83.322c64.084,52.064 145.761,83.322 234.778,83.322c88.995,-0 170.673,-31.258 234.778,-83.322c64.073,52.064 145.75,83.322 234.756,83.322c205.805,-0 372.614,-166.81 372.614,-372.614c-0,-205.794 -166.82,-372.614 -372.614,-372.614Z" style="fill-rule:nonzero;"/>
    </g>
</svg>
