<?xml version="1.0" encoding="UTF-8" standalone="no"?>
<!DOCTYPE svg PUBLIC "-//W3C//DTD SVG 1.1//EN" "http://www.w3.org/Graphics/SVG/1.1/DTD/svg11.dtd">
<svg width="100%" height="100%" viewBox="0 0 1900 1555" version="1.1" xmlns="http://www.w3.org/2000/svg" xmlns:xlink="http://www.w3.org/1999/xlink" xml:space="preserve" xmlns:serif="http://www.serif.com/" style="fill-rule:evenodd;clip-rule:evenodd;stroke-linejoin:round;stroke-miterlimit:2;">
    <rect id="logo-opel" x="2.89" y="0" width="1894.04" height="1551.73" style="fill:none;"/>
    <clipPath id="_clip1">
        <rect x="2.89" y="0" width="1894.04" height="1551.73"/>
    </clipPath>
    <g clip-path="url(#_clip1)">
        <path d="M1186.61,1441.85l143.458,-0c0.214,0.001 0.395,-0.163 0.417,-0.375l-0,-45.834c-0,-0.228 -0.188,-0.416 -0.417,-0.416l-143.458,-0c-0.015,0.001 -0.029,0.002 -0.044,0.002c-0.191,0 -0.353,-0.146 -0.373,-0.336l0,-51.583c-0.004,-0.2 0.137,-0.377 0.333,-0.417l158.334,0c0.027,0.007 0.055,0.011 0.083,0.011c0.183,-0 0.334,-0.151 0.334,-0.333c-0,-0.004 -0,-0.007 -0.001,-0.011l0,-49.25c0.002,-0.015 0.003,-0.029 0.003,-0.044c-0,-0.191 -0.146,-0.353 -0.336,-0.373l-215.583,0c-0.206,0 -0.375,0.17 -0.375,0.375l-0,253.167c0.015,0.207 0.17,0.379 0.375,0.417l216.333,-0c0.229,-0 0.417,-0.188 0.417,-0.417l-0,-49.167c-0,-0.228 -0.188,-0.416 -0.417,-0.416l-159.083,-0c-0.015,0.001 -0.029,0.002 -0.044,0.002c-0.191,0 -0.353,-0.146 -0.373,-0.336l0,-54.166c-0.056,-0.228 0.071,-0.464 0.292,-0.542l0.125,0.042Z" style="fill-rule:nonzero;"/>
        <path d="M796.489,1301.14c-14.084,-5.833 -32.334,-8.333 -55.584,-8.333l-143.875,-0c-0.228,-0 -0.416,0.188 -0.416,0.417l-0,253.166c0.033,0.214 0.202,0.383 0.416,0.417l57.25,-0c0.229,-0 0.417,-0.188 0.417,-0.417l0,-77.458c-0.004,-0.2 0.137,-0.377 0.333,-0.417l85.75,0c33.334,0 58.084,-6.666 74.667,-20.833c16.667,-13.333 25,-35.792 25,-66.667c0,-22.458 -3.333,-39.958 -10.792,-52.458c-7.077,-13.091 -18.978,-22.928 -33.166,-27.417Zm-23.209,109.084c-7.5,6.666 -19.083,9.166 -35.666,9.166l-82.542,0c-0.205,-0.037 -0.359,-0.209 -0.375,-0.416l0,-77.459c0.016,-0.207 0.17,-0.379 0.375,-0.416l82.542,-0c12.5,-0 21.541,0.833 28.166,4.166c5.926,2.545 10.879,6.928 14.125,12.5c2.832,6.854 4.249,14.21 4.167,21.625c-0.042,15 -4.167,25 -10.792,30.834Z" style="fill-rule:nonzero;"/>
        <path d="M235.905,1302.81c-21.541,-10 -49.75,-15 -82.916,-15c-34,-0 -61.375,5 -82.917,15c-20.707,8.62 -37.745,24.242 -48.125,44.125c-10.75,19.333 -15.75,43.292 -15.75,72.458c0,29.959 5,54.167 15.75,73.25c10.612,19.67 27.517,35.225 48,44.167c21.542,10 48.917,14.958 82.917,14.958c34,0 61.375,-4.958 82.916,-14.958c20.768,-8.859 37.99,-24.409 48.917,-44.167c10.792,-19.125 15.75,-43.291 15.75,-73.25c0,-29.166 -4.958,-53.291 -15.75,-72.458c-10.636,-19.929 -27.897,-35.539 -48.792,-44.125Zm-4.166,162.5c-5.301,11.949 -15.161,21.3 -27.375,25.958c-12.5,5.834 -29.875,9.167 -51.417,9.167c-17.505,0.41 -34.937,-2.415 -51.417,-8.333c-11.959,-5.491 -21.651,-14.963 -27.416,-26.792c-5.736,-14.254 -8.57,-29.512 -8.334,-44.875c-0.248,-15.676 2.584,-31.248 8.334,-45.833c5.369,-11.873 15.211,-21.161 27.375,-25.834c12.5,-5.833 29.166,-9.166 51.416,-9.166c17.77,-0.501 35.478,2.326 52.209,8.333c11.855,5.273 21.324,14.787 26.541,26.667c5.787,14.268 8.622,29.563 8.334,44.958c0.347,15.683 -2.488,31.276 -8.334,45.833l0.084,-0.083Z" style="fill-rule:nonzero;"/>
        <path d="M1746.82,1494.89l0,-201.583c0.002,-0.015 0.003,-0.03 0.003,-0.044c-0,-0.206 -0.17,-0.375 -0.375,-0.375c-0.015,-0 -0.03,0.001 -0.045,0.002l-56.416,0c-0.229,0 -0.417,0.188 -0.417,0.417l0,253.167c0.034,0.214 0.203,0.383 0.417,0.416l209.875,0c0.204,-0.037 0.359,-0.209 0.375,-0.416l-0,-50.834c-0.016,-0.207 -0.171,-0.379 -0.375,-0.416l-152.625,-0c-0.015,0.001 -0.029,0.002 -0.044,0.002c-0.191,0 -0.353,-0.146 -0.373,-0.336Z" style="fill-rule:nonzero;"/>
        <path d="M1891.4,694.974l-1036.04,-112.5l-0.25,-0l-283.584,148.333c-0.17,0.056 -0.286,0.216 -0.286,0.396c-0,0.179 0.116,0.34 0.286,0.396l1251.67,-0l68.167,-35.584c0.282,0.001 0.52,-0.218 0.541,-0.5c0.002,-0.014 0.002,-0.027 0.002,-0.041c0,-0.275 -0.226,-0.5 -0.5,-0.5c-0,-0 -0.001,-0 -0.002,-0Z" style="fill-rule:nonzero;"/>
        <path d="M953.28,41.265c296.95,0.069 541.269,244.426 541.292,541.375c0,9.167 -0.208,18.25 -0.667,27.334l41.667,4.5c0.583,-10.542 0.875,-21.125 0.875,-31.834c-0.399,-319.731 -263.601,-582.604 -583.333,-582.604c-247.829,-0 -469.822,157.935 -551.084,392.063l44.459,-0c79.261,-210.554 281.813,-350.773 506.791,-350.834Z" style="fill-rule:nonzero;"/>
        <path d="M953.28,1124.06c-0.083,0 -0.166,0 -0.25,0c-297.012,0 -541.416,-244.404 -541.416,-541.417c-0,0 -0,0 -0,0c-0,-9.208 0.25,-18.333 0.708,-27.458l-41.667,-4.5c-0.583,10.583 -0.875,21.236 -0.875,31.958c0.337,319.775 263.558,582.72 583.333,582.72c247.921,-0 469.978,-158.053 551.167,-392.303l-44.333,-0c-79.191,210.576 -281.692,350.862 -506.667,351Z" style="fill-rule:nonzero;"/>
        <path d="M1050.95,582.515l0.208,0l283.625,-147.916c0.166,-0.059 0.278,-0.217 0.278,-0.393c-0,-0.051 -0.009,-0.101 -0.028,-0.149c-0.036,-0.12 -0.13,-0.214 -0.25,-0.25l-1251.83,-0l-68.083,35.583c-0.171,0.056 -0.287,0.217 -0.287,0.396c0,0.18 0.116,0.34 0.287,0.396l1036.08,112.333Z" style="fill-rule:nonzero;"/>
    </g>
</svg>
