<?xml version="1.0" encoding="utf-8"?>
<svg xmlns="http://www.w3.org/2000/svg">
  <defs>
    <symbol id="logo-mol" viewBox="0 0 2142 1321">
        <path d="M1903.79,4.051c65.995,0 134.425,15.709 182.333,63.954c36.579,36.838 54.421,86.484 54.421,137.959c-0,110.958 -104.804,231.379 -178.384,305.458c-57.545,57.942 -120.187,111.688 -184.07,162.504c-69.876,55.575 -142.234,108.234 -215.726,158.921c-127.07,87.638 -258.262,169.934 -391.116,248.513c-92.475,54.696 -186.092,107.812 -280.671,158.804c-22.038,11.875 -44.408,23.187 -67.15,33.662c-50.908,23.446 -118.613,49.917 -175.217,49.917c-15.079,0 -30.145,-1.092 -45.07,-3.221c-102.038,-14.558 -190.926,-76.471 -261.771,-148.4c-81.621,-82.866 -147.971,-186.766 -199.425,-290.675c-42.538,-85.904 -77.617,-177.229 -102.775,-269.75c-11.425,-42.012 -20.905,-84.729 -27.546,-127.771c-5.809,-37.654 -9.563,-76.087 -9.563,-114.216c0,-205.267 72.967,-365.659 300.175,-365.659l1601.56,0Z" style="fill:#a0cb69;"/>
        <path d="M600.685,1052.27c-173.134,-100.55 -450.971,-342.054 -489.392,-692.304c-16.496,-150.863 31.05,-271.454 190.954,-271.454l1601.53,-0c132.53,-0 152.317,73.583 152.317,117.454c-0,52.587 -48.379,208.917 -496.171,525.558c-163.079,115.292 -398.633,258.638 -598.496,354.704c-99.033,47.609 -197.308,60.909 -360.745,-33.958Z" style="fill:#ed463b;"/>
        <path d="M559.943,1103.9c-163.096,-105.525 -443.271,-341.171 -487.009,-733.108c-7.333,-65.679 -0.566,-132.646 18.925,-188.517c12.95,-36.866 36.33,-77.741 78.496,-106.162c-83.466,42 -123.221,133.904 -123.221,280.833c0,294.925 272.121,864.325 601.067,864.325c26.413,0 65.608,-10.629 113.325,-28.846c-60.966,-11.333 -127.437,-40.579 -201.583,-88.525Z" style="fill:#fff;"/>
        <path d="M779.218,209.835l-130.371,-0l-77.838,202.275l-0.445,-202.275l-130.4,-0l-136.667,424.175l127.271,-0l51.162,-190.879l7.529,190.879l78.321,-0l80.542,-190.879l-21.837,190.879l127.274,-0l25.459,-424.175Z" style="fill:#fff;"/>
        <path d="M1105.8,225.039c-84.183,-50.179 -204.891,-2.821 -269.55,105.721c-64.783,108.541 -48.958,237.216 35.204,287.383c84.2,50.196 204.834,2.838 269.6,-105.704c64.696,-108.575 48.904,-237.242 -35.254,-287.4Zm-48.242,196.796c-8.891,46.416 -46.429,84.079 -83.849,84.079c-37.409,-0 -60.538,-37.663 -51.621,-84.079c8.879,-46.471 46.337,-84.1 83.808,-84.1c37.396,-0 60.533,37.629 51.662,84.1Z" style="fill:#fff;"/>
        <path d="M1167.27,634.014l143.996,-0l99.371,-129.233l-88.15,-0l56.346,-294.959l-130.538,0l-81.025,424.192Z" style="fill:#fff;"/>
    </symbol>
    <symbol id="logo-mercedes" viewBox="0 0 971 971"> 
        <path d="M961.41,488.483c-0,262.412 -212.357,474.769 -474.77,474.769c-262.413,0 -474.77,-212.357 -474.77,-474.769c0,-262.413 212.357,-474.77 474.77,-474.77c262.413,-0 474.77,212.357 474.77,474.77Zm-474.77,-445.95c-247.244,-0 -445.95,198.705 -445.95,445.95c0,247.244 200.223,445.949 445.95,445.949c247.244,0 445.95,-200.222 445.95,-445.949c-0,-247.245 -198.706,-445.95 -445.95,-445.95Z" style="fill:url(#_Linear2);fill-rule:nonzero;"/>
        <path d="M486.64,42.533c-247.244,-0 -445.95,198.705 -445.95,445.95c0,247.244 200.223,445.949 445.95,445.949c247.244,0 445.95,-200.222 445.95,-445.949c-0,-247.245 -198.706,-445.95 -445.95,-445.95Zm0,863.08c-230.559,-0 -417.13,-186.571 -417.13,-417.13c0,-230.56 186.571,-417.13 417.13,-417.13c230.559,-0 417.13,186.57 417.13,417.13c0,230.559 -186.571,417.13 -417.13,417.13Z" style="fill:url(#_Linear3);fill-rule:nonzero;"/>
        <path d="M486.64,963.252c262.413,0 474.77,-212.357 474.77,-474.769c-0,-262.413 -212.357,-474.77 -474.77,-474.77c-262.413,-0 -474.77,212.357 -474.77,474.77c0,262.412 212.357,474.769 474.77,474.769Zm0,-960.157c266.963,-0 485.388,218.424 485.388,485.388c-0,266.963 -218.425,485.387 -485.388,485.387c-266.963,0 -485.388,-218.424 -485.388,-485.387c0,-266.964 218.425,-485.388 485.388,-485.388Z" style="fill:url(#_Linear4);fill-rule:nonzero;"/>
        <path d="M34.623,489.999c-0,-248.761 201.739,-453.534 452.017,-453.534c250.278,0 452.017,203.256 452.017,453.534c0,248.762 -201.739,450.501 -452.017,450.501c-250.278,-0 -452.017,-201.739 -452.017,-450.501Zm141.066,-312.468c-80.393,80.392 -130.448,191.122 -130.448,312.468c-0,121.347 50.055,232.076 128.931,310.952c80.392,78.875 191.121,128.931 312.468,128.931c121.347,-0 232.076,-48.539 310.952,-128.931c80.392,-78.876 128.931,-189.605 128.931,-310.952c-0,-121.346 -50.056,-232.076 -128.931,-312.468c-78.876,-80.392 -189.605,-130.448 -310.952,-130.448c-121.347,0 -232.076,50.056 -310.951,130.448Z" style="fill:#fff;fill-rule:nonzero;"/>
        <path d="M486.64,907.129c-112.246,0 -216.908,-43.988 -295.783,-122.863c-78.876,-78.876 -122.864,-183.538 -122.864,-295.783c0,-112.246 43.988,-216.908 122.864,-295.784c78.875,-78.875 183.537,-122.863 295.783,-122.863c112.246,-0 216.908,43.988 295.783,122.863c78.876,78.876 122.864,183.538 122.864,295.784c-0,112.245 -43.988,216.907 -122.864,295.783c-78.875,78.875 -183.537,122.863 -295.783,122.863Zm0,-12.134c107.695,-0 210.84,-42.472 286.682,-118.313c77.359,-77.359 118.313,-178.987 118.313,-286.683c0,-107.695 -42.471,-210.84 -118.313,-286.682c-77.359,-77.358 -178.987,-118.313 -286.682,-118.313c-107.695,0 -210.84,42.472 -286.682,118.313c-77.359,74.325 -119.83,177.47 -119.83,285.166c-0,107.695 42.471,210.84 118.313,286.682c77.359,77.358 180.504,119.83 288.199,119.83Z" style="fill:url(#_Linear5);fill-rule:nonzero;"/>
        <path d="M855.231,685.671c-7.584,-6.067 -300.333,-238.143 -300.333,-238.143l-68.258,-389.827c-4.55,1.517 -10.618,6.067 -13.651,12.135l-48.539,379.209l-301.851,232.076c0,-0 -6.067,7.584 -9.101,12.135c-1.517,3.033 -1.517,7.584 -1.517,12.134l373.142,-153.2l373.142,153.2c3.034,-7.584 -0,-15.168 -3.034,-19.719Z" style="fill:#fff;fill-rule:nonzero;"/>
        <path d="M489.674,500.617l-3.034,69.775l342.805,138.032c12.135,6.067 21.236,3.034 30.337,-3.034l-365.558,-206.29c-1.517,-1.516 -4.55,0 -4.55,1.517Z" style="fill:#565f64;fill-rule:nonzero;"/>
        <path d="M489.674,500.617c-0,0 19.719,34.888 42.471,59.157c31.854,34.887 74.325,59.157 74.325,59.157l222.975,89.493c12.135,6.067 21.236,3.034 30.337,-3.034l-365.558,-206.29c-1.517,-1.516 -4.55,0 -4.55,1.517Z" style="fill:url(#_Linear6);fill-rule:nonzero;"/>
        <path d="M858.265,691.739c-0,-1.517 -1.517,-3.034 -3.034,-6.068l-312.468,-229.042l-42.471,27.303c-0,0 3.033,1.517 4.55,0c4.551,-1.517 13.652,-3.034 22.753,0c7.584,3.034 330.67,209.324 330.67,209.324l-0,-1.517Z" style="fill:#a4aaae;fill-opacity:0.6;fill-rule:nonzero;"/>
        <path d="M847.647,678.087l-291.232,-230.559l-13.652,9.101l312.468,230.559c-1.517,-3.034 -4.55,-6.067 -7.584,-9.101Z" style="fill:#333e46;fill-rule:nonzero;"/>
        <path d="M494.224,477.865l-1.517,1.517c0,-0 0,3.033 3.034,1.516c1.517,-1.516 45.505,-24.269 60.674,-33.37l-53.09,-364.041c-1.517,-13.651 -7.584,-19.719 -18.202,-24.269l6.068,421.68l3.033,-3.033Z" style="fill:#565f64;fill-rule:nonzero;"/>
        <path d="M468.438,83.487l0,19.719l-33.37,335.221c-0,4.551 1.516,9.101 6.067,12.135l19.719,15.168l13.651,-370.108l1.517,-28.82c-4.55,3.034 -6.067,9.101 -7.584,16.685Zm-18.202,388.31l-18.202,-15.168l-307.918,222.975c0,-0 -9.101,6.067 -10.618,12.135l10.618,-6.068l323.086,-203.256c6.068,-3.033 7.585,-6.067 3.034,-10.618Z" style="fill:#a4aaae;fill-opacity:0.6;fill-rule:nonzero;"/>
        <path d="M482.09,500.617c-0,-1.517 -1.517,-3.033 -3.034,-1.517l-367.075,207.807c9.101,6.067 18.203,7.584 30.337,3.034l342.805,-138.032l-3.033,-71.292Z" style="fill:#565f64;fill-rule:nonzero;"/>
        <path d="M492.707,479.382l1.517,-1.517l-1.517,1.517c0,-0 0,1.516 1.517,1.516l1.517,0c1.517,-1.516 45.505,-24.269 60.674,-33.37l-6.068,-43.988l-47.022,-320.053c0,-6.067 -1.517,-10.618 -4.55,-13.651c-0,-0 22.752,306.401 22.752,339.771c0,43.988 -28.82,69.775 -28.82,69.775Z" style="fill:url(#_Linear7);fill-rule:nonzero;"/>
        <path d="M482.09,500.617c-0,-1.517 -1.517,-3.033 -3.034,-1.517l-367.075,207.807c9.101,6.067 18.203,7.584 30.337,3.034l342.805,-138.032l-3.033,-71.292Z" style="fill:url(#_Linear8);fill-rule:nonzero;"/>
        <path d="M142.318,708.424l342.805,-138.032l-3.033,-66.741c-6.068,18.202 -16.686,37.921 -45.506,53.089c-21.235,12.135 -224.491,112.246 -297.299,147.133c-4.551,3.034 -10.618,4.551 -13.652,6.068c6.067,3.033 10.618,1.517 16.685,-1.517Z" style="fill:url(#_Linear9);fill-rule:nonzero;"/>
        <path d="M494.224,477.865l-1.517,1.517c0,-0 0,3.033 3.034,1.516c1.517,-1.516 45.505,-24.269 60.674,-33.37l-53.09,-364.041c-1.517,-13.651 -7.584,-19.719 -18.202,-24.269l6.068,421.68l3.033,-3.033Z" style="fill:url(#_Linear10);fill-rule:nonzero;"/>
        <path d="M494.224,477.865l-1.517,1.517c0,-0 0,3.033 3.034,1.516c1.517,-1.516 45.505,-24.269 60.674,-33.37l-53.09,-364.041c-1.517,-13.651 -7.584,-19.719 -18.202,-24.269l6.068,421.68l3.033,-3.033Z" style="fill:url(#_Linear11);fill-rule:nonzero;"/>
        <path d="M78.611,676.57c-10.618,-24.269 -71.291,-142.582 -4.55,-370.108l-25.787,0c-13.651,45.505 -24.269,72.808 -30.336,113.763c-0,-0 -3.034,15.168 -4.551,31.854c-1.517,16.685 -1.517,25.786 -1.517,36.404c0,91.01 22.753,144.099 22.753,144.099c24.269,75.842 66.741,144.1 124.38,195.672c50.056,43.988 127.415,77.359 191.122,89.493c-10.618,-1.517 -192.638,-78.875 -271.514,-241.177Z" style="fill:url(#_Linear12);fill-rule:nonzero;"/>
        <path d="M492.707,497.584l-13.651,-0c1.517,-0 3.034,-0 3.034,1.516l3.033,69.775l1.517,-0l3.034,-69.775c-0,-1.516 1.517,-3.033 3.033,-1.516Z" style="fill:url(#_Linear13);fill-rule:nonzero;"/>
        <path d="M638.324,37.982c159.268,60.674 309.434,227.526 309.434,438.366c0,254.828 -203.256,462.635 -461.118,462.635l0,24.269c257.862,0 474.77,-212.357 474.77,-474.769c-0,-209.324 -133.482,-385.277 -323.086,-450.501Z" style="fill:url(#_Linear14);fill-rule:nonzero;"/>
        <path d="M491.191,13.713l-4.551,-0l4.551,-0Z" style="fill:url(#_Linear15);fill-rule:nonzero;"/>
        <path d="M893.152,309.496c-106.178,-244.211 -345.838,-257.862 -359.49,-259.379l-1.517,-0c183.537,33.37 300.334,153.2 341.288,279.098l0,1.517c18.202,48.538 27.303,100.111 28.82,156.234c1.517,53.089 -10.618,112.246 -33.37,166.852c-1.517,7.584 -3.034,16.685 -4.551,16.685l24.27,-0c72.808,-136.515 40.954,-274.547 4.55,-361.007Z" style="fill:url(#_Linear16);fill-rule:nonzero;"/>
        <path d="M34.623,489.999c-0,-248.761 201.739,-453.534 452.017,-453.534c250.278,0 452.017,203.256 452.017,453.534c0,248.762 -201.739,450.501 -452.017,450.501c-250.278,-0 -452.017,-201.739 -452.017,-450.501Zm141.066,-312.468c-80.393,80.392 -130.448,191.122 -130.448,312.468c-0,121.347 50.055,232.076 128.931,310.952c80.392,78.875 191.121,128.931 312.468,128.931c121.347,-0 232.076,-48.539 310.952,-128.931c80.392,-78.876 128.931,-189.605 128.931,-310.952c-0,-121.346 -50.056,-232.076 -128.931,-312.468c-78.876,-80.392 -189.605,-130.448 -310.952,-130.448c-121.347,0 -232.076,50.056 -310.951,130.448Z" style="fill:#fbfbfb;fill-rule:nonzero;"/>
        <path d="M121.082,682.638l309.435,-222.975c16.685,9.101 43.988,21.235 47.022,21.235c3.034,1.517 3.034,-1.516 3.034,-1.516l-37.921,-31.854c-4.551,-3.034 -6.068,-7.584 -6.068,-12.135l36.405,-365.557c-1.517,1.517 -1.517,4.55 -3.034,6.067c-1.517,3.034 -1.517,4.551 -1.517,7.584l-53.089,365.558l-291.233,229.042c-1.517,1.517 -3.034,3.034 -3.034,4.551Z" style="fill:#333f47;fill-rule:nonzero;"/>
        <defs>
        <linearGradient id="_Linear2" x1="0" y1="0" x2="1" y2="0" gradientUnits="userSpaceOnUse" gradientTransform="matrix(728.088,609.775,-609.775,728.088,122.596,183.595)"><stop offset="0" style="stop-color:#fff;stop-opacity:1"/><stop offset="0.1" style="stop-color:#e7e8e6;stop-opacity:1"/><stop offset="0.1" style="stop-color:#cdd0d0;stop-opacity:1"/><stop offset="0.2" style="stop-color:#b5bbbd;stop-opacity:1"/><stop offset="0.2" style="stop-color:#a5acaf;stop-opacity:1"/><stop offset="0.3" style="stop-color:#9ba3a7;stop-opacity:1"/><stop offset="0.3" style="stop-color:#98a0a4;stop-opacity:1"/><stop offset="0.4" style="stop-color:#828a8f;stop-opacity:1"/><stop offset="0.5" style="stop-color:#667075;stop-opacity:1"/><stop offset="0.6" style="stop-color:#535c63;stop-opacity:1"/><stop offset="0.7" style="stop-color:#475158;stop-opacity:1"/><stop offset="0.8" style="stop-color:#434d54;stop-opacity:1"/><stop offset="1" style="stop-color:#475157;stop-opacity:1"/></linearGradient>
        <linearGradient id="_Linear3" x1="0" y1="0" x2="1" y2="0" gradientUnits="userSpaceOnUse" gradientTransform="matrix(682.571,573.367,-573.367,682.571,145.355,201.799)"><stop offset="0" style="stop-color:#0b1f2a;stop-opacity:1"/><stop offset="0.2" style="stop-color:#333f47;stop-opacity:1"/><stop offset="0.5" style="stop-color:#777f84;stop-opacity:1"/><stop offset="0.5" style="stop-color:#81898d;stop-opacity:1"/><stop offset="0.7" style="stop-color:#b3b8b8;stop-opacity:1"/><stop offset="0.8" style="stop-color:#d2d5d3;stop-opacity:1"/><stop offset="0.8" style="stop-color:#dee0dd;stop-opacity:1"/><stop offset="1" style="stop-color:#fbfbfb;stop-opacity:1"/></linearGradient>
        <linearGradient id="_Linear4" x1="0" y1="0" x2="1" y2="0" gradientUnits="userSpaceOnUse" gradientTransform="matrix(-332.19,-913.131,913.131,-332.19,653.079,945.155)"><stop offset="0" style="stop-color:#e1e3e1;stop-opacity:0.4"/><stop offset="0.1" style="stop-color:#c1c5c4;stop-opacity:0.4"/><stop offset="0.3" style="stop-color:#9ba1a2;stop-opacity:0.4"/><stop offset="0.5" style="stop-color:#7d8487;stop-opacity:0.4"/><stop offset="0.7" style="stop-color:#687074;stop-opacity:0"/><stop offset="0.8" style="stop-color:#5b6469;stop-opacity:0"/><stop offset="1" style="stop-color:#576065;stop-opacity:0"/></linearGradient>
        <linearGradient id="_Linear5" x1="0" y1="0" x2="1" y2="0" gradientUnits="userSpaceOnUse" gradientTransform="matrix(418.647,725.046,-725.046,418.647,277.317,125.96)"><stop offset="0" style="stop-color:#e1e3e1;stop-opacity:0.4"/><stop offset="0.1" style="stop-color:#c1c5c4;stop-opacity:0.4"/><stop offset="0.3" style="stop-color:#9ba1a2;stop-opacity:0.4"/><stop offset="0.5" style="stop-color:#7d8487;stop-opacity:0.4"/><stop offset="0.7" style="stop-color:#687074;stop-opacity:0"/><stop offset="0.8" style="stop-color:#5b6469;stop-opacity:0"/><stop offset="1" style="stop-color:#576065;stop-opacity:0"/></linearGradient>
        <linearGradient id="_Linear6" x1="0" y1="0" x2="1" y2="0" gradientUnits="userSpaceOnUse" gradientTransform="matrix(-25.7854,14.1007,-14.1007,-25.7854,676.245,603.649)"><stop offset="0" style="stop-color:#27343c;stop-opacity:1"/><stop offset="1" style="stop-color:#00111e;stop-opacity:0"/></linearGradient>
        <linearGradient id="_Linear7" x1="0" y1="0" x2="1" y2="0" gradientUnits="userSpaceOnUse" gradientTransform="matrix(-1.02059,-68.257,68.257,-1.02059,526.419,444.495)"><stop offset="0" style="stop-color:#02131f;stop-opacity:1"/><stop offset="0.1" style="stop-color:#02131f;stop-opacity:1"/><stop offset="0.9" style="stop-color:#02131f;stop-opacity:0"/><stop offset="1" style="stop-color:#02131f;stop-opacity:0"/></linearGradient>
        <linearGradient id="_Linear8" x1="0" y1="0" x2="1" y2="0" gradientUnits="userSpaceOnUse" gradientTransform="matrix(-63.7102,5.99306,-5.99306,-63.7102,486.642,588.965)"><stop offset="0" style="stop-color:#02131f;stop-opacity:0.8"/><stop offset="0.2" style="stop-color:#02131f;stop-opacity:0.8"/><stop offset="0.9" style="stop-color:#02131f;stop-opacity:0"/><stop offset="1" style="stop-color:#02131f;stop-opacity:0"/></linearGradient>
        <linearGradient id="_Linear9" x1="0" y1="0" x2="1" y2="0" gradientUnits="userSpaceOnUse" gradientTransform="matrix(-9.10229,-7.61281,7.61281,-9.10229,316.756,618.003)"><stop offset="0" style="stop-color:#02131f;stop-opacity:0.8"/><stop offset="0.1" style="stop-color:#02131f;stop-opacity:0.8"/><stop offset="1" style="stop-color:#02131f;stop-opacity:0"/></linearGradient>
        <linearGradient id="_Linear10" x1="0" y1="0" x2="1" y2="0" gradientUnits="userSpaceOnUse" gradientTransform="matrix(-1.47074,6.06987,-6.06987,-1.47074,521.353,263.99)"><stop offset="0" style="stop-color:#02131f;stop-opacity:1"/><stop offset="0.3" style="stop-color:#02131f;stop-opacity:1"/><stop offset="0.8" style="stop-color:#02131f;stop-opacity:0"/><stop offset="1" style="stop-color:#02131f;stop-opacity:0"/></linearGradient>
        <linearGradient id="_Linear11" x1="0" y1="0" x2="1" y2="0" gradientUnits="userSpaceOnUse" gradientTransform="matrix(-0.995227,4.55029,-4.55029,-0.995227,521.396,262.474)"><stop offset="0" style="stop-color:#27343c;stop-opacity:1"/><stop offset="0.4" style="stop-color:#27343c;stop-opacity:1"/><stop offset="1" style="stop-color:#3b474e;stop-opacity:0"/></linearGradient>
        <linearGradient id="_Linear12" x1="0" y1="0" x2="1" y2="0" gradientUnits="userSpaceOnUse" gradientTransform="matrix(129.582,244.208,-244.208,129.582,124.103,502.135)"><stop offset="0" style="stop-color:#24303a;stop-opacity:0"/><stop offset="0" style="stop-color:#25323b;stop-opacity:0"/><stop offset="0.1" style="stop-color:#27343c;stop-opacity:1"/><stop offset="1" style="stop-color:#27343c;stop-opacity:1"/></linearGradient>
        <linearGradient id="_Linear13" x1="0" y1="0" x2="1" y2="0" gradientUnits="userSpaceOnUse" gradientTransform="matrix(4.45819e-15,-72.8078,72.8078,4.45819e-15,486.564,570.392)"><stop offset="0" style="stop-color:#a5abaf;stop-opacity:1"/><stop offset="0.3" style="stop-color:#a5abaf;stop-opacity:1"/><stop offset="1" style="stop-color:#a5abaf;stop-opacity:0"/></linearGradient>
        <linearGradient id="_Linear14" x1="0" y1="0" x2="1" y2="0" gradientUnits="userSpaceOnUse" gradientTransform="matrix(5.66565e-14,925.27,-925.27,5.66565e-14,724.785,37.9822)"><stop offset="0" style="stop-color:#dee0dd;stop-opacity:1"/><stop offset="0" style="stop-color:#c5c9c7;stop-opacity:1"/><stop offset="0" style="stop-color:#9ea4a5;stop-opacity:1"/><stop offset="0" style="stop-color:#82898c;stop-opacity:1"/><stop offset="0" style="stop-color:#71797d;stop-opacity:1"/><stop offset="0" style="stop-color:#6b7378;stop-opacity:1"/><stop offset="0.2" style="stop-color:#333f47;stop-opacity:1"/><stop offset="0.5" style="stop-color:#27343c;stop-opacity:1"/><stop offset="0.8" style="stop-color:#333f47;stop-opacity:1"/><stop offset="1" style="stop-color:#434d54;stop-opacity:1"/></linearGradient>
        <linearGradient id="_Linear15" x1="0" y1="0" x2="1" y2="0" gradientUnits="userSpaceOnUse" gradientTransform="matrix(2e-06,0,0,2e-06,341.024,13.7128)"><stop offset="0" style="stop-color:#dee0dd;stop-opacity:1"/><stop offset="0" style="stop-color:#c5c9c7;stop-opacity:1"/><stop offset="0" style="stop-color:#9ea4a5;stop-opacity:1"/><stop offset="0" style="stop-color:#82898c;stop-opacity:1"/><stop offset="0" style="stop-color:#71797d;stop-opacity:1"/><stop offset="0" style="stop-color:#6b7378;stop-opacity:1"/><stop offset="0.2" style="stop-color:#333f47;stop-opacity:1"/><stop offset="0.5" style="stop-color:#27343c;stop-opacity:1"/><stop offset="0.8" style="stop-color:#333f47;stop-opacity:1"/><stop offset="1" style="stop-color:#434d54;stop-opacity:1"/></linearGradient>
        <linearGradient id="_Linear16" x1="0" y1="0" x2="1" y2="0" gradientUnits="userSpaceOnUse" gradientTransform="matrix(-85.2567,300.335,-300.335,-85.2567,789.797,125.959)"><stop offset="0" style="stop-color:#27343c;stop-opacity:1"/><stop offset="0.7" style="stop-color:#2b373f;stop-opacity:1"/><stop offset="0.7" style="stop-color:#36424a;stop-opacity:1"/><stop offset="0.7" style="stop-color:#49545b;stop-opacity:1"/><stop offset="0.8" style="stop-color:#646d73;stop-opacity:0"/><stop offset="0.8" style="stop-color:#868d92;stop-opacity:0"/><stop offset="0.8" style="stop-color:#b0b5b8;stop-opacity:0"/><stop offset="0.8" style="stop-color:#e1e3e4;stop-opacity:0"/><stop offset="1" style="stop-color:#fff;stop-opacity:0"/></linearGradient>
    </defs>
    </symbol>
    <symbol id="logo-audi" viewBox="0 0 24 24">

    </symbol>
    <symbol id="logo-opel" viewBox="0 0 24 24">

    </symbol>
  </defs>
</svg>