<?xml version="1.0" encoding="utf-8"?>
<svg xmlns="http://www.w3.org/2000/svg">
  <defs>
    <symbol id="logo-mol" viewBox="0 0 2142 1321">
        <path d="M1903.79,4.051c65.995,0 134.425,15.709 182.333,63.954c36.579,36.838 54.421,86.484 54.421,137.959c-0,110.958 -104.804,231.379 -178.384,305.458c-57.545,57.942 -120.187,111.688 -184.07,162.504c-69.876,55.575 -142.234,108.234 -215.726,158.921c-127.07,87.638 -258.262,169.934 -391.116,248.513c-92.475,54.696 -186.092,107.812 -280.671,158.804c-22.038,11.875 -44.408,23.187 -67.15,33.662c-50.908,23.446 -118.613,49.917 -175.217,49.917c-15.079,0 -30.145,-1.092 -45.07,-3.221c-102.038,-14.558 -190.926,-76.471 -261.771,-148.4c-81.621,-82.866 -147.971,-186.766 -199.425,-290.675c-42.538,-85.904 -77.617,-177.229 -102.775,-269.75c-11.425,-42.012 -20.905,-84.729 -27.546,-127.771c-5.809,-37.654 -9.563,-76.087 -9.563,-114.216c0,-205.267 72.967,-365.659 300.175,-365.659l1601.56,0Z" style="fill:#a0cb69;"/>
        <path d="M600.685,1052.27c-173.134,-100.55 -450.971,-342.054 -489.392,-692.304c-16.496,-150.863 31.05,-271.454 190.954,-271.454l1601.53,-0c132.53,-0 152.317,73.583 152.317,117.454c-0,52.587 -48.379,208.917 -496.171,525.558c-163.079,115.292 -398.633,258.638 -598.496,354.704c-99.033,47.609 -197.308,60.909 -360.745,-33.958Z" style="fill:#ed463b;"/>
        <path d="M559.943,1103.9c-163.096,-105.525 -443.271,-341.171 -487.009,-733.108c-7.333,-65.679 -0.566,-132.646 18.925,-188.517c12.95,-36.866 36.33,-77.741 78.496,-106.162c-83.466,42 -123.221,133.904 -123.221,280.833c0,294.925 272.121,864.325 601.067,864.325c26.413,0 65.608,-10.629 113.325,-28.846c-60.966,-11.333 -127.437,-40.579 -201.583,-88.525Z" style="fill:#fff;"/>
        <path d="M779.218,209.835l-130.371,-0l-77.838,202.275l-0.445,-202.275l-130.4,-0l-136.667,424.175l127.271,-0l51.162,-190.879l7.529,190.879l78.321,-0l80.542,-190.879l-21.837,190.879l127.274,-0l25.459,-424.175Z" style="fill:#fff;"/>
        <path d="M1105.8,225.039c-84.183,-50.179 -204.891,-2.821 -269.55,105.721c-64.783,108.541 -48.958,237.216 35.204,287.383c84.2,50.196 204.834,2.838 269.6,-105.704c64.696,-108.575 48.904,-237.242 -35.254,-287.4Zm-48.242,196.796c-8.891,46.416 -46.429,84.079 -83.849,84.079c-37.409,-0 -60.538,-37.663 -51.621,-84.079c8.879,-46.471 46.337,-84.1 83.808,-84.1c37.396,-0 60.533,37.629 51.662,84.1Z" style="fill:#fff;"/>
        <path d="M1167.27,634.014l143.996,-0l99.371,-129.233l-88.15,-0l56.346,-294.959l-130.538,0l-81.025,424.192Z" style="fill:#fff;"/>
    </symbol>
    <symbol id="logo-audi" viewBox="0 0 3850 750">   
        <path d="M2229.64,273.618l111.368,-212.184l49.238,-0l111.357,212.184l-53.046,0l-22.859,-43.962l-121.037,-0l-22.56,43.962l-52.461,0Zm135.694,-166.467l-43.09,85.872l86.17,-0l-43.08,-85.872Zm299.811,166.467l-3.223,-16.402c-13.477,12.318 -36.633,20.519 -60.96,21.104c-38.973,0 -74.15,-12.892 -74.15,-66.523l0,-88.509l46.016,-0l-0,82.637c-0,25.21 11.434,37.219 39.271,37.219c18.753,-0 33.123,-4.393 47.185,-12.605l0,-107.262l46.015,-0l0,150.341l-40.154,0Zm170.275,4.691c-53.642,0 -85.584,-30.485 -85.584,-80.011c-0,-49.536 32.24,-79.712 89.094,-79.712c22.274,-0 43.377,5.563 57.152,14.647l-0,-71.799l46.015,-0l0,212.184l-40.154,0l-3.223,-16.998c-14.062,12.903 -38.09,21.689 -63.3,21.689Zm9.084,-36.048c21.689,-0 36.335,-3.521 51.578,-11.722l-0,-64.768c-15.243,-7.914 -29.889,-11.722 -51.578,-11.722c-31.06,0 -47.77,16.126 -47.77,44.261c-0,28.123 16.71,43.951 47.77,43.951Zm155.032,31.357l0,-150.341l46.015,-0l0,150.341l-46.015,0Zm0,-172.328l0,-39.856l46.015,-0l0,39.856l-46.015,0Zm-568.562,535.726l0,-94.051l-136.566,0l-0,94.051l-30.188,-0l0,-212.162l30.188,-0l-0,93.465l136.566,-0l0,-93.465l30.188,-0l-0,212.162l-30.188,-0Zm231.533,-0l-2.351,-12.892c-14.945,9.68 -36.931,16.424 -61.545,16.424c-37.803,-0 -71.799,-10.265 -71.799,-56.291l0,-97.594l29.007,0l-0,92.616c-0,28.443 17.594,38.399 48.951,38.399c22.87,0 36.931,-4.978 53.046,-14.36l0,-116.644l29.018,0l-0,150.342l-24.327,-0Zm120.75,-0l-29.029,-0l0,-150.331l24.327,0l2.34,14.956c14.945,-10.85 39.271,-18.477 65.949,-18.477c37.814,0 70.342,13.19 70.342,57.726l-0,96.126l-29.018,-0l0,-91.148c0,-29.878 -16.115,-39.856 -47.472,-39.856c-22.572,0 -43.962,7.34 -57.439,15.85l-0,115.154Zm267.57,65.364c-30.187,-0 -55.982,-4.978 -70.055,-11.159l0,-24.614c16.126,6.744 37.815,12.031 68.289,12.031c39.272,-0 63.3,-10.85 63.3,-48.962l0,-9.073c-14.647,9.073 -36.037,15.243 -57.726,15.243c-53.046,-0 -87.041,-26.976 -87.041,-76.49c-0,-48.355 32.825,-76.203 88.796,-76.203c22.859,0 44.558,5.872 58.62,15.828l2.053,-12.307l24.327,0l-0,145.364c-0,50.419 -35.177,70.342 -90.563,70.342Zm9.669,-89.095c19.923,0 37.516,-5.563 51.876,-14.658l0,-78.233c-14.36,-9.095 -31.942,-14.658 -51.876,-14.658c-40.728,0 -63.002,17.285 -63.002,53.631c0,36.324 22.263,53.918 63.002,53.918Zm270.208,23.731l-2.34,-13.753c-14.657,10.563 -37.505,17.307 -63.885,17.307c-37.516,-0 -66.533,-14.658 -66.533,-45.143c-0,-29.901 26.666,-46.612 92.019,-46.612c11.435,0 24.614,0.574 36.048,1.181l0,-5.287c0,-24.613 -14.646,-38.09 -49.823,-38.09c-30.187,0 -46.302,4.095 -63.885,11.126l0,-22.572c15.817,-7.031 36.049,-12.009 66.523,-12.009c45.43,0 76.203,18.753 76.203,57.726l-0,96.126l-24.327,-0Zm-60.662,-18.753c23.146,0 43.08,-5.563 55.982,-14.647l0,-33.41l-29.006,-0c-50.121,-0 -69.172,7.031 -69.172,24.04c0,15.518 12.307,24.017 42.196,24.017Zm149.172,18.753l-0,-150.353l26.081,0l2.34,27.274c10.265,-15.541 27.55,-30.199 56.567,-30.199c10.839,0 20.221,1.468 26.667,3.819l-0,25.784c-8.499,-2.329 -19.04,-3.51 -30.177,-3.51c-31.357,-0 -46.015,18.477 -52.461,29.315l0,97.87l-29.017,-0Zm152.99,-0l0,-150.342l29.018,0l-0,150.342l-29.018,-0Zm0,-180.518l0,-31.644l29.018,-0l-0,31.644l-29.018,-0Zm218.332,180.518l-2.329,-13.753c-14.669,10.563 -37.516,17.307 -63.896,17.307c-37.516,-0 -66.533,-14.658 -66.533,-45.143c-0,-29.901 26.677,-46.612 92.03,-46.612c11.424,0 24.613,0.574 36.048,1.181l0,-5.287c0,-24.613 -14.646,-38.09 -49.823,-38.09c-30.187,0 -46.313,4.095 -63.896,11.126l0,-22.572c15.828,-7.031 36.049,-12.009 66.534,-12.009c45.419,0 76.192,18.753 76.192,57.726l-0,96.126l-24.327,-0Zm-60.662,-18.753c23.146,0 43.08,-5.563 55.982,-14.647l0,-33.41l-29.017,-0c-50.11,-0 -69.161,7.031 -69.161,24.04c0,15.518 12.307,24.017 42.196,24.017Z"/>
        <path d="M1786.67,664.986c-66.059,0 -126.908,-22.274 -175.539,-59.646c49.227,-63.146 78.619,-142.494 78.619,-228.785c0,-86.28 -29.392,-165.639 -78.619,-228.785c48.631,-37.384 109.48,-59.646 175.539,-59.646c159.304,-0 288.443,129.138 288.443,288.431c-0,159.304 -129.139,288.431 -288.443,288.431Zm-645.073,-59.646c49.227,-63.146 78.631,-142.494 78.631,-228.785c-0,-86.28 -29.404,-165.639 -78.631,-228.796c48.631,-37.373 109.48,-59.635 175.551,-59.635c66.07,-0 126.908,22.273 175.539,59.646c-49.227,63.157 -78.619,142.505 -78.619,228.785c-0,86.28 29.392,165.639 78.619,228.785c-48.631,37.383 -109.48,59.646 -175.539,59.646c-66.071,0 -126.92,-22.274 -175.551,-59.646Zm-469.534,-0c49.216,-63.146 78.62,-142.494 78.62,-228.785c-0,-86.28 -29.404,-165.639 -78.62,-228.796c48.631,-37.373 109.469,-59.635 175.54,-59.635c66.07,-0 126.92,22.273 175.551,59.635c-49.238,63.157 -78.631,142.516 -78.631,228.796c-0,86.28 29.393,165.639 78.631,228.785c-48.631,37.383 -109.481,59.646 -175.551,59.646c-66.071,0 -126.909,-22.274 -175.54,-59.646Zm-582.425,-228.785c-0,-159.304 129.138,-288.431 288.431,-288.431c66.081,-0 126.92,22.273 175.551,59.635c-49.227,63.157 -78.631,142.516 -78.631,228.796c-0,86.28 29.404,165.639 78.62,228.785c-48.62,37.383 -109.459,59.646 -175.54,59.646c-159.293,0 -288.431,-129.127 -288.431,-288.431Zm523.198,167.471c-33.753,-47.229 -53.664,-105.01 -53.664,-167.471c-0,-62.461 19.922,-120.242 53.664,-167.46c33.752,47.218 53.664,104.999 53.664,167.46c-0,62.461 -19.912,120.242 -53.664,167.471Zm469.534,0c-33.753,-47.229 -53.665,-105.01 -53.665,-167.471c0,-62.461 19.923,-120.242 53.665,-167.46c33.741,47.218 53.653,104.999 53.653,167.46c-0,62.461 -19.912,120.242 -53.653,167.471Zm469.533,0c-33.752,-47.229 -53.664,-105.01 -53.664,-167.471c0,-62.461 19.923,-120.231 53.664,-167.46c33.742,47.229 53.654,104.999 53.654,167.46c-0,62.461 -19.912,120.242 -53.654,167.471Zm234.767,-540.085c-88.995,0 -170.683,31.258 -234.755,83.322c-64.106,-52.075 -145.783,-83.322 -234.778,-83.322c-89.007,0 -170.695,31.258 -234.778,83.311c-64.095,-52.064 -145.772,-83.311 -234.778,-83.311c-89.006,0 -170.684,31.258 -234.767,83.311c-64.084,-52.064 -145.761,-83.311 -234.778,-83.311c-205.794,0 -372.603,166.82 -372.603,372.614c-0,205.805 166.809,372.614 372.603,372.614c89.006,-0 170.694,-31.258 234.778,-83.322c64.083,52.064 145.761,83.322 234.767,83.322c89.006,-0 170.683,-31.258 234.778,-83.322c64.083,52.064 145.76,83.322 234.778,83.322c88.995,-0 170.672,-31.258 234.778,-83.322c64.072,52.064 145.749,83.322 234.755,83.322c205.805,-0 372.614,-166.809 372.614,-372.614c0,-205.794 -166.82,-372.614 -372.614,-372.614Z" style="fill-rule:nonzero;"/>
    </symbol>
    <symbol id="logo-mercedes" viewBox="0 0 260 260">
      <path d="M190.772,15.172c-18.136,-9.392 -38.538,-14.573 -60.236,-14.573c-21.698,-0 -42.101,5.181 -60.236,14.573c-41.129,21.698 -69.304,65.094 -69.304,114.967c-0,49.873 28.175,93.269 69.628,114.967c17.811,9.067 38.214,14.573 59.912,14.573c21.698,-0 41.777,-5.506 59.912,-14.897c41.453,-21.374 69.628,-64.77 69.628,-114.643c-0,-49.873 -28.175,-93.269 -69.304,-114.967Zm-176.822,114.967c-0,-42.425 22.669,-79.343 56.674,-100.07c16.516,-10.039 35.623,-15.869 56.673,-16.516l-14.573,105.899l-42.1,32.709l-42.749,33.356c-8.744,-16.516 -13.925,-35.299 -13.925,-55.378Zm176.822,99.746c-17.812,10.687 -38.214,16.84 -60.236,16.84c-22.022,-0 -42.748,-6.153 -60.236,-16.84c-15.869,-9.392 -28.823,-22.346 -38.538,-37.891l38.538,-15.868l60.236,-24.613l60.236,24.289l38.862,15.868c-9.715,15.869 -23.317,28.823 -38.862,38.215Zm-0,-77.724l-41.777,-32.385l-14.897,-106.223c20.403,0.647 39.834,6.477 56.35,16.516c34.004,20.403 56.674,57.645 56.674,100.07c-0,20.079 -4.858,38.862 -13.926,55.378l-42.424,-33.356Z" style="fill-rule:nonzero;"/>
    </symbol>
    <symbol id="logo-opel" viewBox="0 0 1900 1555">
        <path d="M1186.61,1441.85l-0.125,-0.042c-0.221,0.078 -0.348,0.314 -0.292,0.542l0,54.166c0.02,0.19 0.182,0.336 0.373,0.336l0.044,-0.002l159.083,-0c0.229,-0 0.417,0.188 0.417,0.416l-0,49.167c-0,0.229 -0.188,0.417 -0.417,0.417l-216.333,-0c-0.205,-0.038 -0.36,-0.21 -0.375,-0.417l-0,-253.167c-0,-0.205 0.169,-0.375 0.375,-0.375l215.583,0c0.19,0.02 0.336,0.182 0.336,0.373l-0.003,0.044l0,49.25l0.001,0.011c-0,0.182 -0.151,0.333 -0.334,0.333l-0.083,-0.011l-158.334,0c-0.196,0.04 -0.337,0.217 -0.333,0.417l0,51.583c0.02,0.19 0.182,0.336 0.373,0.336l0.044,-0.002l143.458,-0c0.229,-0 0.417,0.188 0.417,0.416l-0,45.834c-0.022,0.212 -0.203,0.376 -0.417,0.375l-143.458,-0Zm-390.125,-140.709c14.188,4.489 26.089,14.326 33.166,27.417c7.459,12.5 10.792,30 10.792,52.458c0,30.875 -8.333,53.334 -25,66.667c-16.583,14.167 -41.333,20.833 -74.667,20.833l-85.75,0c-0.196,0.04 -0.337,0.217 -0.333,0.417l0,77.458c0,0.229 -0.188,0.417 -0.417,0.417l-57.25,-0c-0.214,-0.034 -0.383,-0.203 -0.416,-0.417l-0,-253.166c-0,-0.229 0.188,-0.417 0.416,-0.417l143.875,-0c23.25,-0 41.5,2.5 55.584,8.333Zm-23.209,109.084c6.625,-5.834 10.75,-15.834 10.792,-30.834c0.082,-7.415 -1.335,-14.771 -4.167,-21.625c-3.246,-5.572 -8.199,-9.955 -14.125,-12.5c-6.625,-3.333 -15.666,-4.166 -28.166,-4.166l-82.542,-0c-0.205,0.037 -0.359,0.209 -0.375,0.416l0,77.459c0.016,0.207 0.17,0.379 0.375,0.416l82.542,0c16.583,0 28.166,-2.5 35.666,-9.166Zm-537.375,-107.417c20.895,8.586 38.156,24.196 48.792,44.125c10.792,19.167 15.75,43.292 15.75,72.458c0,29.959 -4.958,54.125 -15.75,73.25c-10.927,19.758 -28.149,35.308 -48.917,44.167c-21.541,10 -48.916,14.958 -82.916,14.958c-34,0 -61.375,-4.958 -82.917,-14.958c-20.483,-8.942 -37.388,-24.497 -48,-44.167c-10.75,-19.083 -15.75,-43.291 -15.75,-73.25c0,-29.166 5,-53.125 15.75,-72.458c10.38,-19.883 27.418,-35.505 48.125,-44.125c21.542,-10 48.917,-15 82.917,-15c33.166,-0 61.375,5 82.916,15Zm-4.166,162.5l-0.084,0.083c5.846,-14.557 8.681,-30.15 8.334,-45.833c0.288,-15.395 -2.547,-30.69 -8.334,-44.958c-5.217,-11.88 -14.686,-21.394 -26.541,-26.667c-16.731,-6.007 -34.439,-8.834 -52.209,-8.333c-22.25,-0 -38.916,3.333 -51.416,9.166c-12.164,4.673 -22.006,13.961 -27.375,25.834c-5.75,14.585 -8.582,30.157 -8.334,45.833c-0.236,15.363 2.598,30.621 8.334,44.875c5.765,11.829 15.457,21.301 27.416,26.792c16.48,5.918 33.912,8.743 51.417,8.333c21.542,-0 38.917,-3.333 51.417,-9.167c12.214,-4.658 22.074,-14.009 27.375,-25.958Zm1515.08,-172l0,201.583c0.02,0.19 0.182,0.336 0.373,0.336l0.044,-0.002l152.625,-0c0.204,0.037 0.359,0.209 0.375,0.416l-0,50.834c-0.016,0.207 -0.171,0.379 -0.375,0.416l-209.875,0c-0.214,-0.033 -0.383,-0.202 -0.417,-0.416l0,-253.167c0,-0.229 0.188,-0.417 0.417,-0.417l56.416,0l0.045,-0.002c0.205,-0 0.375,0.169 0.375,0.375l-0.003,0.044Z"/>
        <path d="M1891.41,694.974c0.275,-0 0.501,0.225 0.501,0.5l-0.002,0.041c-0.021,0.282 -0.259,0.501 -0.541,0.5l-68.167,35.584l-1251.67,-0c-0.17,-0.056 -0.286,-0.217 -0.286,-0.396c-0,-0.18 0.116,-0.34 0.286,-0.396l283.584,-148.333l0.25,-0l1036.04,112.5Zm-938.126,-653.709c-224.978,0.061 -427.53,140.28 -506.791,350.834l-44.459,-0c81.262,-234.128 303.255,-392.063 551.084,-392.063c319.732,-0 582.934,262.873 583.333,582.604c0,10.709 -0.292,21.292 -0.875,31.834l-41.667,-4.5c0.459,-9.084 0.667,-18.167 0.667,-27.334c-0.023,-296.949 -244.342,-541.306 -541.292,-541.375Zm0,1082.79c224.975,-0.138 427.476,-140.424 506.667,-351l44.333,-0c-81.189,234.25 -303.246,392.303 -551.167,392.303c-319.775,-0 -582.996,-262.945 -583.333,-582.72c0,-10.722 0.292,-21.375 0.875,-31.958l41.667,4.5c-0.458,9.125 -0.708,18.25 -0.708,27.458c-0,297.013 244.404,541.417 541.416,541.417l0.25,-0Zm97.667,-541.542l-1036.08,-112.333c-0.171,-0.056 -0.287,-0.216 -0.287,-0.396c0,-0.179 0.116,-0.34 0.287,-0.396l68.083,-35.583l1251.83,-0c0.12,0.036 0.214,0.13 0.25,0.25c0.019,0.048 0.028,0.098 0.028,0.149c-0,0.176 -0.112,0.334 -0.278,0.393l-283.625,147.916l-0.208,0Z"/>
    </symbol>
    <symbol id="logo-suzuki" viewBox="0 0 496 333">
      <path d="M358.706,153.971c-0,0 -20.605,5.954 -60.462,30.447c-35.732,21.995 -49.743,36.772 -49.743,36.772l-110.235,-76.183c0,-0 46.376,-34.104 85.125,-7.983l51.981,35.657l6.34,-4.17l-143.423,-100.483c-0,0 20.612,-5.961 60.446,-30.439c35.754,-22.002 49.766,-36.787 49.766,-36.787l110.227,76.183c0,0 -46.368,34.104 -85.125,7.984l-51.981,-35.665l-6.34,4.163l143.424,100.504Z" style="fill:#e20a17;fill-rule:nonzero;"/>
      <path d="M273.332,257.898l0,15.654l-42.533,39.069l42.377,0l0,18.732l-85.17,0l0,-15.632l41.953,-39.166l-40.525,0l-0,-18.657l83.898,0Zm-133.297,75.334c-33.538,0 -42.131,-8.57 -42.131,-27.465l-0,-47.87l26.581,-0l0,44.889c0,7.656 6.088,12.183 15.55,12.183c9.099,-0 15.565,-4.505 15.565,-12.064l0,-45.008l26.582,-0l-0,47.87c-0,18.895 -8.593,27.465 -42.147,27.465Zm182.005,0c-33.554,0 -42.146,-8.57 -42.146,-27.465l-0,-47.87l26.573,-0l0,44.889c0,7.656 6.11,12.183 15.573,12.183c9.083,-0 15.558,-4.505 15.558,-12.064l-0,-45.008l26.588,-0l0,47.87c0,18.895 -8.593,27.465 -42.146,27.465Zm174.843,-75.334l-0,73.455l-27.719,0l0,-73.455l27.719,0Zm-31.942,0l-41.864,35.769l40.534,37.686l-37.241,0l-27.406,-26.053l0,26.053l-27.726,0l0,-73.455l27.726,0l0,25.347l29.51,-25.347l36.467,0Zm-432.557,20.296c0,4.208 10.957,4.862 22.954,6.415c28.767,3.68 35.747,14.027 35.747,24.195c-0,10.474 -8.957,24.248 -42.697,24.248c-36.631,-0 -47.505,-9.322 -47.505,-25.452l34.519,0c4.564,8.125 10.087,8.608 13.038,8.608c2.974,-0 11.046,-0.342 11.046,-5.456c-0,-6.906 -14.361,-6.229 -16.725,-6.474c-27.607,-2.944 -40.303,-7.746 -40.303,-24.136c0,-8.89 6.006,-24.366 41.277,-24.366c31.755,-0 44.874,11.008 44.874,24.849l-31.346,0c-4.363,-7.158 -10.778,-8.295 -13.625,-8.295c-2.839,-0 -11.254,0.185 -11.254,5.864Z" style="fill:#039;"/>
    </symbol>
    <symbol id="logo-tesco" viewBox="0 0 504 143">
      <path d="M5.098,3.116l102.217,-0l0,22.182c-7.276,-6.033 -22.715,-8.518 -39.041,-8.518l-0,60.692c-0,9.05 0.71,11.535 4.259,16.148l-32.653,0c3.549,-4.613 4.259,-7.098 4.259,-16.148l0,-60.514c-16.504,-0 -31.765,2.484 -39.041,8.518l-0,-22.36Zm151.019,77.017c10.47,0 28.038,-2.484 34.782,-8.518l-0,22.183l-74.356,-0c3.549,-4.259 4.259,-7.098 4.259,-15.794l0,-59.094c0,-8.696 -0.71,-11.535 -4.259,-15.794l70.629,-0l0,22.182c-6.921,-6.033 -24.312,-8.518 -34.782,-8.518l-8.341,0l0,24.135l6.034,-0c6.034,-0 15.084,-0.178 21.295,-2.485l0,17.924c-6.033,-2.13 -15.261,-2.485 -21.295,-2.485l-6.034,0l0,26.087l12.068,0l-0,0.177Zm97.603,-42.058c17.746,2.485 32.475,8.696 32.475,28.039c0,22.715 -21.473,29.813 -44.72,29.813c-16.149,-0.177 -29.813,-1.597 -39.929,-5.678l0,-20.586c14.375,9.406 29.104,12.245 39.929,12.245c11.18,0 21.65,-2.662 21.65,-11.18c0,-8.518 -9.583,-10.648 -29.281,-13.664c-17.036,-2.662 -32.298,-9.761 -32.475,-26.619c-0.177,-22.538 21.295,-29.459 41.703,-29.459c13.132,0 26.087,1.597 37.799,5.501l0,21.828c-9.76,-8.695 -24.489,-13.664 -38.864,-13.664c-9.76,-0 -18.81,3.194 -18.81,10.292c-0,9.406 13.664,10.648 30.523,13.132Zm101.152,-36.911c10.648,-0 19.876,1.242 27.152,3.194l-0,22.715c-7.276,-7.453 -15.794,-12.067 -26.974,-12.067c-20.586,-0 -34.25,14.374 -34.25,33.54c-0,19.165 13.664,33.54 34.25,33.54c11.18,-0 19.875,-4.614 26.974,-12.068l-0,22.538c-7.454,1.952 -16.504,3.371 -27.152,3.371c-35.669,0 -61.401,-17.746 -61.401,-47.381c-0,-29.636 25.909,-47.382 61.401,-47.382Zm91.392,-0c36.734,-0 57.675,21.472 57.675,47.204c-0,25.732 -20.941,47.205 -57.675,47.205c-36.734,-0 -57.674,-21.473 -57.674,-47.205c-0,-25.909 20.94,-47.204 57.674,-47.204Zm0,80.922c18.456,-0 30.523,-15.439 30.523,-33.54c0,-18.456 -12.067,-33.54 -30.523,-33.54c-18.456,-0 -30.523,15.084 -30.523,33.54c0,18.278 12.067,33.54 30.523,33.54Z" style="fill:#ed1c24;"/>
      <path d="M441.118,118.465l61.934,-0c0.177,0.177 0.177,0.355 -0,0.532c-0,0 -0.178,0 -0.178,0.178l-0.177,-0c-7.099,3.194 -16.682,13.309 -16.682,13.309c-7.098,6.744 -12.599,11.18 -23.957,11.18l-58.739,0c-0.178,0 -0.178,-0.177 -0.355,-0.355c-0,-0.177 -0,-0.177 0.177,-0.355l0.178,-0.177c6.388,-3.549 16.149,-13.664 16.149,-13.664c3.726,-4.614 11.712,-10.648 21.65,-10.648Zm-100.443,-0l61.757,-0c0.177,0.177 0.177,0.355 -0,0.532c-0,0 -0.178,0 -0.178,0.178l-0.177,-0c-7.099,3.194 -16.682,13.309 -16.682,13.309c-7.098,6.744 -12.599,11.18 -23.957,11.18l-58.739,0c-0.178,0 -0.178,-0.177 -0.355,-0.355c-0,-0.177 -0,-0.177 0.177,-0.355l0.178,-0.177c6.388,-3.549 16.149,-13.664 16.149,-13.664c3.904,-4.614 11.712,-10.648 21.827,-10.648Zm-100.442,-0l61.933,-0c0.178,0.177 0.178,0.355 0,0.532c0,0 -0.177,0 -0.177,0.178l-0.177,-0c-7.099,3.194 -16.682,13.309 -16.682,13.309c-7.098,6.744 -12.599,11.18 -23.957,11.18l-58.739,0c-0.178,0 -0.178,-0.177 -0.355,-0.355c-0,-0.177 -0,-0.177 0.177,-0.355l0.178,-0.177c6.388,-3.549 16.149,-13.664 16.149,-13.664c3.726,-4.614 11.535,-10.648 21.65,-10.648Zm-100.62,-0l61.933,-0c0.178,0.177 0.178,0.355 0,0.532c0,0 -0.177,0 -0.177,0.178l-0.177,-0c-7.099,3.194 -16.682,13.309 -16.682,13.309c-7.098,6.744 -12.599,11.18 -23.957,11.18l-58.917,0c-0.177,0 -0.177,-0.177 -0.355,-0.355c0,-0.177 0,-0.177 0.178,-0.355l0.177,-0.177c6.389,-3.549 16.149,-13.664 16.149,-13.664c3.904,-4.614 11.89,-10.648 21.828,-10.648Zm-100.443,-0l61.934,-0c0.177,0.177 0.177,0.355 -0,0.532c-0,0 -0.178,0 -0.178,0.178l-0.177,-0c-7.098,3.194 -16.681,13.309 -16.681,13.309c-7.099,6.744 -12.6,11.18 -23.957,11.18l-58.917,0c-0.178,0 -0.178,-0.177 -0.355,-0.355c-0,-0.177 -0,-0.177 0.177,-0.355l0.178,-0.177c6.388,-3.549 16.149,-13.664 16.149,-13.664c3.904,-4.614 11.712,-10.648 21.827,-10.648Z" style="fill:#0053a1;"/>
    </symbol>
    <symbol id="logo-aldi" viewBox="0 0 293 351">
      <path d="M1.368,176.61l-0,-162.697c-0,-7.289 4.963,-12.232 12.283,-12.232l266.962,0c7.373,0 12.295,4.942 12.295,12.344l-0,325.15c-0,7.461 -4.912,12.353 -12.407,12.353l-267.084,0c-6.226,0 -10.914,-3.93 -11.935,-10.031c-0.119,-0.717 -0.11,-1.459 -0.11,-2.191c-0.004,-54.232 -0.004,-108.464 -0.004,-162.696Z" style="fill:#fcc026;fill-rule:nonzero;"/>
        <path d="M260.197,176.727c-0,45.726 0.002,91.451 -0,137.178c-0,0.569 0.012,1.141 -0.018,1.709c-0.12,2.234 -1.822,3.971 -4.052,4.137c-0.364,0.026 -0.732,0.009 -1.098,0.009c-71.949,0.001 -143.897,0.001 -215.845,-0.008c-0.684,0 -1.394,-0.043 -2.045,-0.229c-1.792,-0.509 -2.93,-1.997 -3.041,-3.848c-0.029,-0.488 -0.022,-0.977 -0.022,-1.466l-0,-275.21c-0,-0.448 -0.006,-0.896 0.016,-1.344c0.115,-2.353 1.882,-4.104 4.238,-4.203c0.325,-0.013 0.651,-0.004 0.977,-0.004c71.908,0 143.815,0 215.723,0.009c0.683,0 1.393,0.034 2.047,0.213c1.853,0.508 3.002,2.006 3.102,3.926c0.029,0.569 0.018,1.14 0.018,1.71c0.002,45.807 -0,91.614 -0,137.421Z" style="fill:#1f2b59;fill-rule:nonzero;"/>
        <path d="M278.933,176.57c-0,-50.975 -0,-101.948 -0.002,-152.923c-0,-4.725 -3.46,-8.282 -8.066,-8.282c-82.488,-0.003 -164.975,-0.002 -247.463,0.003c-0.484,0 -0.98,0.017 -1.45,0.123c-4.231,0.947 -6.609,3.981 -6.609,8.409c-0.001,101.541 -0.001,203.082 -0.001,304.624c-0,0.447 -0.003,0.896 0.001,1.344c0.046,4.444 3.573,7.975 8.006,7.975c82.529,0.004 165.057,0.003 247.585,-0.001c0.444,0 0.899,-0.009 1.331,-0.103c4.224,-0.913 6.667,-3.986 6.667,-8.368c0.001,-50.934 0.001,-101.867 0.001,-152.801Zm-277.525,0.04c-0,-54.232 -0,-108.464 0.001,-162.697c-0,-7.289 4.961,-12.232 12.28,-12.232l266.887,0c7.371,0 12.291,4.942 12.291,12.344l-0,325.15c-0,7.461 -4.912,12.353 -12.403,12.353l-267.009,0c-6.225,0 -10.912,-3.93 -11.932,-10.031c-0.12,-0.717 -0.111,-1.459 -0.111,-2.191c-0.004,-54.232 -0.004,-108.464 -0.004,-162.696Z" style="fill:#fcc026;fill-rule:nonzero;"/>
        <path d="M268.467,176.604l-0,-42.019c-0,-34.161 0.001,-68.322 -0.008,-102.484c-0,-0.806 0.012,-1.647 -0.197,-2.413c-0.763,-2.797 -2.97,-4.293 -6.181,-4.293l-229.886,0c-0.244,0 -0.489,-0.009 -0.733,0.004c-2.664,0.132 -4.872,1.847 -5.489,4.402c-0.206,0.853 -0.158,1.776 -0.158,2.667c-0.006,96.091 -0.006,192.182 -0.005,288.273c-0,0.57 -0.019,1.142 0.018,1.71c0.026,0.4 0.089,0.808 0.207,1.191c0.856,2.764 2.984,4.172 6.282,4.172c76.548,0.001 153.095,0.001 229.642,0.001c0.245,0 0.505,0.055 0.73,-0.011c1.079,-0.313 2.26,-0.471 3.196,-1.033c2.043,-1.223 2.604,-3.215 2.603,-5.542c-0.029,-48.208 -0.022,-96.417 -0.021,-144.625Zm10.466,-0.034c-0,50.934 0.001,101.867 -0,152.801c-0,4.382 -2.444,7.455 -6.667,8.368c-0.432,0.094 -0.887,0.103 -1.332,0.103c-82.527,0.004 -165.056,0.005 -247.584,0.001c-4.433,0 -7.96,-3.531 -8.006,-7.975c-0.005,-0.448 -0.001,-0.897 -0.001,-1.344l-0,-304.624c-0,-4.428 2.379,-7.462 6.61,-8.409c0.469,-0.106 0.966,-0.123 1.45,-0.123c82.488,-0.005 164.975,-0.006 247.463,-0.003c4.606,0 8.066,3.557 8.066,8.282c0.002,50.975 0.001,101.948 0.001,152.923Z" style="fill:#f47c21;fill-rule:nonzero;"/>
        <path d="M260.191,176.727c-0,-45.807 -0,-91.614 -0.002,-137.421c-0,-0.57 0.012,-1.141 -0.018,-1.71c-0.099,-1.92 -1.25,-3.418 -3.102,-3.926c-0.654,-0.179 -1.363,-0.213 -2.047,-0.213c-71.907,-0.009 -143.815,-0.009 -215.723,-0.009c-0.325,0 -0.652,-0.009 -0.977,0.004c-2.356,0.099 -4.123,1.85 -4.238,4.203c-0.022,0.448 -0.016,0.896 -0.016,1.344c-0,91.737 -0,183.473 0.001,275.21c-0,0.489 -0.008,0.978 0.021,1.466c0.111,1.851 1.249,3.339 3.041,3.848c0.652,0.186 1.362,0.229 2.045,0.229c71.948,0.009 143.897,0.009 215.845,0.008c0.366,0 0.734,0.017 1.099,-0.009c2.23,-0.166 3.933,-1.903 4.051,-4.137c0.031,-0.568 0.018,-1.14 0.018,-1.709c0.002,-45.727 0.002,-91.452 0.002,-137.178Zm8.266,-0.123c-0,48.208 -0.006,96.417 0.022,144.625c0.001,2.327 -0.56,4.319 -2.603,5.542c-0.936,0.562 -2.117,0.72 -3.196,1.033c-0.225,0.066 -0.485,0.011 -0.729,0.011c-76.547,0 -153.095,0 -229.642,-0.001c-3.299,0 -5.427,-1.408 -6.283,-4.172c-0.118,-0.383 -0.181,-0.791 -0.207,-1.191c-0.037,-0.568 -0.018,-1.14 -0.018,-1.71c-0.001,-96.091 -0.001,-192.182 0.005,-288.273c-0,-0.891 -0.048,-1.814 0.158,-2.667c0.617,-2.555 2.825,-4.27 5.49,-4.402c0.243,-0.013 0.488,-0.004 0.732,-0.004l229.886,0c3.212,0 5.419,1.496 6.181,4.293c0.209,0.766 0.197,1.607 0.198,2.413c0.008,34.162 0.006,68.323 0.006,102.484l-0,42.019Z" style="fill:#dc1f26;fill-rule:nonzero;"/>
        <path d="M165.048,273.271l-0,-53.574c0.262,-0.031 0.531,-0.09 0.801,-0.09c7.654,-0.003 15.308,-0.03 22.961,0.017c3.839,0.023 7.629,0.534 11.291,1.731c7.513,2.457 12.356,7.512 14.246,15.188c1.713,6.96 1.577,13.961 -0.331,20.877c-2.19,7.941 -7.471,12.719 -15.385,14.716c-3.176,0.802 -6.411,1.141 -9.671,1.16c-7.693,0.042 -15.388,0.014 -23.083,0.014c-0.236,0 -0.473,-0.021 -0.829,-0.039Zm16.24,-11.493c2.954,-0.142 5.852,-0.081 8.69,-0.465c4.628,-0.625 7.686,-3.267 8.877,-7.873c1.087,-4.201 1.203,-8.451 0.346,-12.692c-0.915,-4.524 -3.529,-7.584 -8.078,-8.832c-3.221,-0.883 -6.505,-0.649 -9.835,-0.661l-0,30.523Zm-107.544,1.694l-2.521,9.786l-17.304,0c5.595,-18.151 11.718,-36.057 18.924,-53.606l21.226,0c7.206,17.538 13.318,35.418 18.92,53.58l-17.304,0l-2.516,-9.76l-19.425,0Zm9.815,-33.892l-0.348,-0.012l-7.074,22.185l14.531,0c-2.207,-7.522 -4.468,-14.91 -7.109,-22.173Zm34.565,-9.935l16.214,0l-0,1.338c-0,11.313 -0.006,22.624 0.01,33.936c0.002,1.093 0.076,2.197 0.235,3.278c0.241,1.631 1.256,2.621 2.865,2.907c0.955,0.17 1.938,0.25 2.909,0.256c4.842,0.024 9.684,0.011 14.526,0.011l1.265,0l2.393,11.85c-0.375,0.035 -0.678,0.086 -0.982,0.087c-8.545,0.004 -17.091,0.041 -25.635,-0.029c-1.687,-0.014 -3.426,-0.249 -5.046,-0.713c-4.887,-1.396 -7.509,-4.884 -8.41,-9.753c-0.236,-1.271 -0.327,-2.586 -0.329,-3.881c-0.023,-12.817 -0.014,-25.634 -0.015,-38.452l-0,-0.835Zm106.18,0.014l16.052,0l-0,53.573l-16.052,0l-0,-53.573Z" style="fill:#fefefd;"/>
        <path d="M171.125,121.626c15.118,0.006 32.178,0.011 36.239,0.02c2.7,0.006 5.39,0.229 7.761,1.672c1.192,0.725 2.251,1.514 3.546,2.71c-0.158,-0.366 -0.228,-0.544 -0.311,-0.718c-2.658,-5.575 -5.322,-11.15 -7.976,-16.727c-2.462,-5.173 -6.537,-7.765 -12.28,-7.753c-1.513,0.004 -11.026,0.007 -19.913,0.008l-7.066,20.788Zm72.054,63.869c-2.658,-5.576 -5.32,-11.15 -7.976,-16.727c-2.461,-5.174 -6.536,-7.766 -12.279,-7.753c-1.413,0.003 -38.967,0.005 -65.189,0.007l-7.067,20.791c30.899,0.004 77.914,0.01 81.516,0.018c2.699,0.006 5.391,0.229 7.762,1.672c1.19,0.724 2.25,1.513 3.545,2.71c-0.158,-0.366 -0.229,-0.544 -0.312,-0.718Zm-32.769,-54.594c5.743,-0.013 9.818,2.58 12.28,7.753c2.654,5.578 5.317,11.151 7.975,16.728c0.082,0.172 0.154,0.351 0.312,0.716c-1.295,-1.195 -2.355,-1.984 -3.546,-2.709c-2.371,-1.443 -5.061,-1.666 -7.762,-1.672c-2.786,-0.006 -31.571,-0.011 -58.766,-0.014l7.068,-20.796c21.095,-0.002 41.407,-0.003 42.439,-0.006Z" style="fill:url(#_Linear2);"/>
        <path d="M189.972,62.585c-3.06,0 -6.121,-0.001 -9.182,-0.001l-0.098,0c-2.973,0 -5.947,0.001 -8.919,0.006c-2.799,0.005 -5.244,0.762 -7.371,2.189c-0.274,0.175 -0.543,0.359 -0.808,0.557c-2.787,2.072 -4.707,4.868 -5.971,8.014c-0.113,0.284 -0.224,0.569 -0.336,0.853c-0.371,0.855 -0.708,1.727 -1.017,2.611c-0.004,0.011 -0.008,0.022 -0.012,0.034c-1.471,3.859 -2.846,7.757 -4.218,11.654c-1.859,5.286 -3.6,10.612 -5.4,15.919c-6.064,17.877 -12.126,35.755 -18.201,53.628c-2.805,8.254 -5.533,16.536 -8.514,24.726c-1.059,2.91 -2.501,5.766 -4.245,8.321c-1.904,2.788 -4.71,4.644 -8.185,5.383l0.771,0c3.061,0 6.121,0.001 9.182,0.001l0.098,0c2.973,-0.001 5.946,-0.002 8.92,-0.007c2.798,-0.004 5.243,-0.76 7.37,-2.188c0.273,-0.175 0.543,-0.359 0.808,-0.557c2.787,-2.072 4.707,-4.868 5.97,-8.014c0.114,-0.285 0.225,-0.569 0.338,-0.853c0.37,-0.855 0.707,-1.727 1.016,-2.611c0.004,-0.011 0.008,-0.023 0.012,-0.034c1.471,-3.859 2.847,-7.757 4.218,-11.654c1.859,-5.286 3.6,-10.613 5.4,-15.919c6.064,-17.877 12.126,-35.755 18.2,-53.628c2.806,-8.254 5.533,-16.536 8.515,-24.726c1.059,-2.911 2.501,-5.766 4.245,-8.321c1.904,-2.789 4.71,-4.645 8.185,-5.383l-0.771,0Zm-64.49,0c-3.06,0 -6.121,-0.001 -9.182,-0.001l-0.098,0c-2.973,0 -5.946,0.001 -8.919,0.006c-2.799,0.005 -5.244,0.762 -7.371,2.189c-0.274,0.175 -0.543,0.359 -0.809,0.557c-2.787,2.072 -4.707,4.868 -5.97,8.014c-0.114,0.284 -0.224,0.569 -0.337,0.853c-0.37,0.855 -0.707,1.727 -1.016,2.611c-0.004,0.011 -41.011,119.665 -41.011,119.665c0.597,0.001 1.591,0.001 2.188,0.001l0.099,0c2.973,-0.001 5.946,-0.002 8.919,-0.007c2.798,-0.004 5.244,-0.76 7.371,-2.188c0.273,-0.175 0.543,-0.359 0.808,-0.557c2.787,-2.072 4.707,-4.868 5.97,-8.014c0.114,-0.285 0.225,-0.569 0.337,-0.853c0.37,-0.855 0.707,-1.727 1.017,-2.611c0.004,-0.011 0.008,-0.023 0.012,-0.034c1.471,-3.859 2.847,-7.757 4.217,-11.654c1.86,-5.286 3.601,-10.613 5.401,-15.919c6.064,-17.877 12.126,-35.755 18.2,-53.628c2.806,-8.254 5.534,-16.536 8.515,-24.726c1.06,-2.911 2.501,-5.766 4.245,-8.321c1.905,-2.789 4.71,-4.645 8.185,-5.383l-0.771,0Zm33.141,0c-3.474,0.738 -6.28,2.594 -8.184,5.383c-1.744,2.555 -3.186,5.41 -4.245,8.321c-2.981,8.19 -5.709,16.472 -8.515,24.726c-6.074,17.873 -12.136,35.751 -18.2,53.628c-1.8,5.306 -3.541,10.633 -5.401,15.919c-1.37,3.897 -2.746,7.795 -4.217,11.654c-0.004,0.011 -0.008,0.023 -0.012,0.034c-0.31,0.884 -0.646,1.756 -1.017,2.611c-0.112,0.284 -0.223,0.568 -0.337,0.853c-1.263,3.146 -3.183,5.942 -5.97,8.014c-0.265,0.198 -0.535,0.382 -0.808,0.557c-2.128,1.428 -4.573,2.184 -7.371,2.188c-2.974,0.005 -5.947,0.006 -8.92,0.007l-0.098,0c-3.061,0 -6.121,-0.001 -9.182,-0.001l-0.77,0c3.475,-0.739 6.28,-2.595 8.184,-5.383c1.744,-2.555 3.186,-5.411 4.246,-8.321c2.981,-8.19 5.709,-16.472 8.514,-24.726c6.075,-17.873 12.136,-35.751 18.2,-53.628c1.801,-5.307 3.542,-10.633 5.401,-15.919c1.371,-3.897 2.747,-7.795 4.218,-11.654c0.004,-0.012 0.008,-0.023 0.012,-0.034c0.309,-0.884 0.646,-1.756 1.016,-2.611c0.113,-0.284 0.224,-0.569 0.338,-0.853c1.262,-3.146 3.183,-5.942 5.969,-8.014c0.265,-0.198 0.536,-0.382 0.808,-0.557c2.128,-1.427 4.573,-2.184 7.371,-2.189c2.973,-0.005 5.946,-0.006 8.92,-0.006l0.098,0c3.061,0 6.121,0.001 9.182,0.001l0.77,0Z" style="fill:url(#_Linear3);"/>
        <defs>
        <linearGradient id="_Linear2" x1="0" y1="0" x2="1" y2="0" gradientUnits="userSpaceOnUse" gradientTransform="matrix(80.5507,-29.3181,29.3181,80.5507,145.401,167.343)"><stop offset="0" style="stop-color:#84cfef;stop-opacity:1"/><stop offset="0.5" style="stop-color:#3dc4f2;stop-opacity:1"/><stop offset="0.7" style="stop-color:#67cdf1;stop-opacity:1"/><stop offset="0.8" style="stop-color:#96d9f1;stop-opacity:1"/><stop offset="0.9" style="stop-color:#82c9e1;stop-opacity:1"/><stop offset="1" style="stop-color:#2c98be;stop-opacity:1"/></linearGradient>
        <linearGradient id="_Linear3" x1="0" y1="0" x2="1" y2="0" gradientUnits="userSpaceOnUse" gradientTransform="matrix(8.19878e-16,-133.896,133.896,8.19878e-16,120.756,196.48)"><stop offset="0" style="stop-color:#2c98be;stop-opacity:1"/><stop offset="0.1" style="stop-color:#96d4e9;stop-opacity:1"/><stop offset="0.3" style="stop-color:#47c8f3;stop-opacity:1"/><stop offset="0.6" style="stop-color:#3ac4f3;stop-opacity:1"/><stop offset="0.8" style="stop-color:#73d0f1;stop-opacity:1"/><stop offset="0.9" style="stop-color:#aadef1;stop-opacity:1"/><stop offset="1" style="stop-color:#2c98be;stop-opacity:1"/></linearGradient>
      </defs>
    </symbol>      
    <symbol id="logo-lidl" viewBox="0 0 287 287">
    <rect x="2.669" y="2.7" width="281.156" height="281.156" style="fill:#0050aa;fill-rule:nonzero;"/>
      <path d="M283.821,2.7l-0,281.156l-281.157,0l0,-281.156l281.157,0Zm2.489,-2.489l-286.13,-0l-0,286.13l286.13,-0l0,-286.13Z" style="fill:#fff;fill-rule:nonzero;"/>
        <path d="M143.245,18.571c-68.872,-0 -124.705,55.833 -124.705,124.705c-0,68.871 55.833,124.705 124.705,124.705c68.852,-0 124.676,-55.805 124.705,-124.653l0,-0.004c0,-68.882 -55.824,-124.725 -124.7,-124.753l-0.005,-0Z" style="fill:#fff000;fill-rule:nonzero;"/>
        <path d="M113.487,124.768l22.023,22.022l9.852,-9.904l0,8.507l-35.432,35.48l-4.254,-4.277l6.543,-6.519l-17.716,-17.764l-6.395,6.419l-0,-8.537l25.379,-25.427Zm-17.191,-17.072c0.002,-7.681 6.229,-13.906 13.91,-13.906l0.053,-0c7.704,0.002 13.953,6.248 13.953,13.958c0,7.711 -6.247,13.958 -13.958,13.958c-7.706,0 -13.958,-6.247 -13.958,-13.958l-0,-0.052Z" style="fill:#e60a14;"/>
        <path d="M198.058,120.137l39.257,0l0,8.46l-6.567,0l0,27.369l22.743,-12.638l-0,23.163l-55.433,-0l-0,-8.508l6.567,-0l-0,-29.386l-6.567,0l-0,-8.46Zm-165.336,0l39.214,0l0,8.46l-6.542,0l-0,27.369l22.714,-12.638l-0,23.163l-55.386,-0l0,-8.508l6.567,-0l0,-29.386l-6.567,0l0,-8.46Zm143.49,0c27.988,0 27.64,46.354 -0.076,46.354l-37.321,-0l-0,-8.508l6.619,-0l-0,-29.386l-6.543,0l-0,-8.46l37.321,0Zm-5.246,31.847c7.888,-0 7.888,-17.416 -0.3,-17.416l-1.569,-0l-0,17.416l1.869,-0Z" style="fill:#0050aa;"/>
        <path d="M143.25,10.163l-0.029,0c-73.531,0 -133.136,59.606 -133.136,133.137c-0,73.53 59.605,133.136 133.136,133.136c73.521,0 133.122,-59.591 133.136,-133.112c-0.014,-73.522 -59.596,-133.123 -133.107,-133.161Zm-0.005,257.842c-68.872,-0 -124.705,-55.834 -124.705,-124.705c-0,-68.872 55.833,-124.705 124.705,-124.705c68.871,-0 124.705,55.833 124.705,124.705l0,0.052l0,-0.005c-0.057,68.834 -55.862,124.615 -124.7,124.629l-0.005,0.029Z" style="fill:#e60a14;fill-rule:nonzero;"/>
    </symbol>
    <symbol style="fill-rule:evenodd;clip-rule:evenodd;stroke-linejoin:round;stroke-miterlimit:2;" id="logo-spar" viewBox="0 0 578 96">
        <path d="M461.529,95.346l-460.585,-0l-0,-93.969l460.685,-0l-0.1,93.969Z" style="fill:#cc2229;"></path>
        <path d="M557.615,33.09c5.373,12.692 2.195,29.653 -7.691,39.567c-4.78,4.053 -9.921,8.312 -16.551,6.978c-3.615,-0.847 -6.213,-3.366 -7.113,-6.792c-0.782,-2.974 -0.586,-5.834 -0.196,-8.918l26.896,-0.048l-0.727,-0.924c-13.574,-16.017 -24.343,-34.098 -31.552,-53.14c-7.746,19.287 -18.615,38.34 -31.551,54.164l26.355,-0.055c-0.155,3.525 0.665,7.832 -0.962,10.861c-1.637,3.319 -5.486,4.966 -9.039,5.042c-10.634,-0.996 -17.702,-10.352 -21.747,-19.201c-4.704,-10.876 -2.974,-25.807 4.428,-35.105c10.29,-13.677 28.471,-19.204 45.404,-13.963c10.331,3.25 19.511,11.296 24.046,21.534Zm7.506,-7.371c8.828,15.697 6.037,36.931 -5,50.426c-12.809,15.296 -35.215,21.989 -55.029,15.717c-18.657,-5.41 -33.082,-22.668 -34.05,-42.476c-1.151,-18.487 9.766,-35.5 25.59,-43.64c15.434,-8.246 37.361,-7.467 52.134,2.326c6.575,4.163 12.392,10.707 16.355,17.647Z" style="fill:#27824d;"></path>
        <path d="M169.674,26.691c0.792,1.63 1.206,3.401 1.154,5.579l-50.911,0.017c-1.554,0 -3.99,0.893 -4.883,2.94c-1.113,2.546 0.169,5.472 2.691,6.596c1.007,0.447 2.788,0.389 2.788,0.389l37.038,-0c6.626,0.472 12.533,4.762 14.814,11.83c1.985,6.151 0.962,11.268 -3.081,16.296c-4.665,5.803 -11.051,5.876 -18.084,5.862l-40.98,-0.048c-4.449,-0 -8.191,-4.415 -8.825,-8.953l-0.028,-2.295l54.102,0.055c1.81,-0 4.129,-2.516 4.191,-5.097c0.069,-2.788 -1.84,-5.431 -4.601,-5.431l-38.974,0c-6.74,0 -13.612,-6.382 -14.718,-14.352c-0.896,-6.451 1.21,-11.331 6.175,-15.497c3.75,-3.143 6.6,-4.042 11.841,-4.049l36.045,-0.048c5.579,-0.103 11.637,0.861 14.246,6.206Zm84.265,-5.965c8.715,0.007 15.779,9.039 15.541,18.488c-0.227,9.118 -8.115,17.54 -15.348,17.54l-30.397,0c-4.449,-0.551 -7.864,-3.804 -9.622,-7.564c-0.599,-1.471 -0.634,-3.539 -0.799,-5.076l1.571,0.031l36.745,0c1.585,0 3.098,-1.461 3.849,-3.298c0.686,-1.681 0.645,-3.043 -0.193,-4.655c-0.923,-1.785 -2.591,-2.909 -4.232,-2.909l-40.979,0l-0.383,0.39l0,36.576c0,3.404 -2.946,5.909 -6.423,5.84c-3.046,-0.055 -5.889,-2.543 -5.889,-5.775l-0,-39.16c-0,-3.236 1.219,-5.149 3.504,-7.33c2.132,-1.988 4.932,-3.11 7.847,-3.143l45.208,0.045Zm65.973,14.766c4.039,5.659 8.481,11.114 12.33,16.996l-27.178,-0l13.522,-17.068c-0,-0 0.361,-0.576 0.713,-0.545c0.338,0.031 0.613,0.617 0.613,0.617Zm11.114,-6.344c7.012,9.828 21.168,28.268 28.35,38.657c0.903,2.357 -0.155,4.88 -1.347,6.792c-1.937,1.823 -5.107,2.209 -7.316,1.165c-3.467,-3.122 -5.869,-7.006 -8.657,-10.472l-46.752,-0.1l-5.527,7.55c-1.744,2.381 -3.956,4.018 -7.364,3.405c-1.771,-0.359 -3.453,-1.865 -4.039,-3.488c-0.906,-2.105 -0.806,-4.094 0.383,-6.016l29.632,-39.564c2.485,-3.746 5.169,-6.427 9.807,-6.399c7.306,0.096 7.802,1.947 12.83,8.47Zm105.109,-8.422c6.427,0.007 12.444,4.918 14.856,11.992c2.592,7.585 0.204,14.301 -5.62,19.77c-1.292,1.22 -3.656,2.712 -3.656,2.712l8.036,11.596c0.734,1.058 0.968,3.163 0.282,4.986c-0.634,1.689 -1.475,2.678 -3.122,3.391c-2.24,0.968 -5.196,0.072 -6.151,-1.11c0,0 -7.681,-9.428 -11.933,-14.793c-0.748,-0.79 -1.138,-1.52 -1.927,-2.323l-20.479,0.1c-5.076,0.021 -11.072,-6.099 -11.072,-10.972l-0,-1.885l38.133,-0.048c1.427,-0.004 3.029,-1.348 3.808,-3.105c0.706,-1.585 0.693,-2.867 -0,-4.459c-0.834,-1.902 -2.712,-3.253 -4.194,-3.25l-41.479,0.121l-0.114,0.417l-0,37.258c-0,2.484 -3.398,5.679 -6.73,5.358c-3.07,-0.289 -5.593,-3.446 -5.586,-5.641l0.048,-39.494c0.007,-4.115 1.193,-5.714 3.77,-7.978c2.512,-2.205 4.78,-2.695 8.112,-2.688l45.018,0.045Z" style="fill:#fff;"></path>
    </symbol>
        <symbol id="logo-spar" viewBox="0 0 578 96">
        <path d="M461.529,95.346l-460.585,-0l-0,-93.969l460.685,-0l-0.1,93.969Z" style="fill:#cc2229;"></path>
        <path d="M557.615,33.09c5.373,12.692 2.195,29.653 -7.691,39.567c-4.78,4.053 -9.921,8.312 -16.551,6.978c-3.615,-0.847 -6.213,-3.366 -7.113,-6.792c-0.782,-2.974 -0.586,-5.834 -0.196,-8.918l26.896,-0.048l-0.727,-0.924c-13.574,-16.017 -24.343,-34.098 -31.552,-53.14c-7.746,19.287 -18.615,38.34 -31.551,54.164l26.355,-0.055c-0.155,3.525 0.665,7.832 -0.962,10.861c-1.637,3.319 -5.486,4.966 -9.039,5.042c-10.634,-0.996 -17.702,-10.352 -21.747,-19.201c-4.704,-10.876 -2.974,-25.807 4.428,-35.105c10.29,-13.677 28.471,-19.204 45.404,-13.963c10.331,3.25 19.511,11.296 24.046,21.534Zm7.506,-7.371c8.828,15.697 6.037,36.931 -5,50.426c-12.809,15.296 -35.215,21.989 -55.029,15.717c-18.657,-5.41 -33.082,-22.668 -34.05,-42.476c-1.151,-18.487 9.766,-35.5 25.59,-43.64c15.434,-8.246 37.361,-7.467 52.134,2.326c6.575,4.163 12.392,10.707 16.355,17.647Z" style="fill:#27824d;"></path>
        <path d="M169.674,26.691c0.792,1.63 1.206,3.401 1.154,5.579l-50.911,0.017c-1.554,0 -3.99,0.893 -4.883,2.94c-1.113,2.546 0.169,5.472 2.691,6.596c1.007,0.447 2.788,0.389 2.788,0.389l37.038,-0c6.626,0.472 12.533,4.762 14.814,11.83c1.985,6.151 0.962,11.268 -3.081,16.296c-4.665,5.803 -11.051,5.876 -18.084,5.862l-40.98,-0.048c-4.449,-0 -8.191,-4.415 -8.825,-8.953l-0.028,-2.295l54.102,0.055c1.81,-0 4.129,-2.516 4.191,-5.097c0.069,-2.788 -1.84,-5.431 -4.601,-5.431l-38.974,0c-6.74,0 -13.612,-6.382 -14.718,-14.352c-0.896,-6.451 1.21,-11.331 6.175,-15.497c3.75,-3.143 6.6,-4.042 11.841,-4.049l36.045,-0.048c5.579,-0.103 11.637,0.861 14.246,6.206Zm84.265,-5.965c8.715,0.007 15.779,9.039 15.541,18.488c-0.227,9.118 -8.115,17.54 -15.348,17.54l-30.397,0c-4.449,-0.551 -7.864,-3.804 -9.622,-7.564c-0.599,-1.471 -0.634,-3.539 -0.799,-5.076l1.571,0.031l36.745,0c1.585,0 3.098,-1.461 3.849,-3.298c0.686,-1.681 0.645,-3.043 -0.193,-4.655c-0.923,-1.785 -2.591,-2.909 -4.232,-2.909l-40.979,0l-0.383,0.39l0,36.576c0,3.404 -2.946,5.909 -6.423,5.84c-3.046,-0.055 -5.889,-2.543 -5.889,-5.775l-0,-39.16c-0,-3.236 1.219,-5.149 3.504,-7.33c2.132,-1.988 4.932,-3.11 7.847,-3.143l45.208,0.045Zm65.973,14.766c4.039,5.659 8.481,11.114 12.33,16.996l-27.178,-0l13.522,-17.068c-0,-0 0.361,-0.576 0.713,-0.545c0.338,0.031 0.613,0.617 0.613,0.617Zm11.114,-6.344c7.012,9.828 21.168,28.268 28.35,38.657c0.903,2.357 -0.155,4.88 -1.347,6.792c-1.937,1.823 -5.107,2.209 -7.316,1.165c-3.467,-3.122 -5.869,-7.006 -8.657,-10.472l-46.752,-0.1l-5.527,7.55c-1.744,2.381 -3.956,4.018 -7.364,3.405c-1.771,-0.359 -3.453,-1.865 -4.039,-3.488c-0.906,-2.105 -0.806,-4.094 0.383,-6.016l29.632,-39.564c2.485,-3.746 5.169,-6.427 9.807,-6.399c7.306,0.096 7.802,1.947 12.83,8.47Zm105.109,-8.422c6.427,0.007 12.444,4.918 14.856,11.992c2.592,7.585 0.204,14.301 -5.62,19.77c-1.292,1.22 -3.656,2.712 -3.656,2.712l8.036,11.596c0.734,1.058 0.968,3.163 0.282,4.986c-0.634,1.689 -1.475,2.678 -3.122,3.391c-2.24,0.968 -5.196,0.072 -6.151,-1.11c0,0 -7.681,-9.428 -11.933,-14.793c-0.748,-0.79 -1.138,-1.52 -1.927,-2.323l-20.479,0.1c-5.076,0.021 -11.072,-6.099 -11.072,-10.972l-0,-1.885l38.133,-0.048c1.427,-0.004 3.029,-1.348 3.808,-3.105c0.706,-1.585 0.693,-2.867 -0,-4.459c-0.834,-1.902 -2.712,-3.253 -4.194,-3.25l-41.479,0.121l-0.114,0.417l-0,37.258c-0,2.484 -3.398,5.679 -6.73,5.358c-3.07,-0.289 -5.593,-3.446 -5.586,-5.641l0.048,-39.494c0.007,-4.115 1.193,-5.714 3.77,-7.978c2.512,-2.205 4.78,-2.695 8.112,-2.688l45.018,0.045Z" style="fill:#fff;"></path>
    </symbol>
    <symbol id="logo-bosch" viewBox="0 0 563 121">
        <path d="M60.546,0.213c33.144,0 60.07,26.926 60.07,60.071c0,33.144 -26.926,60.07 -60.07,60.07c-33.145,-0 -60.07,-26.926 -60.07,-60.07c-0,-33.145 26.925,-60.071 60.07,-60.071Zm-0,114.121c29.837,-0 54.05,-24.28 54.05,-54.05c0,-29.771 -24.213,-54.05 -54.05,-54.05c-29.837,-0 -54.05,24.279 -54.05,54.05c-0,29.77 24.213,54.05 54.05,54.05Zm21.435,-92.554c13.562,8.27 21.831,22.626 21.831,38.504c0,15.877 -8.137,30.233 -21.699,38.503c-0.662,0.397 -1.522,0.198 -1.918,-0.463c-0.133,-0.265 -0.199,-0.463 -0.199,-0.728l0,-18.788c0,-0.662 -0.529,-1.191 -1.191,-1.191l-36.386,-0c-0.662,0.066 -1.191,0.529 -1.191,1.191l0,18.788c0,0.794 -0.595,1.389 -1.389,1.389c-0.265,0 -0.529,-0.066 -0.728,-0.198c-13.562,-8.27 -21.699,-22.626 -21.699,-38.503c-0,-15.878 8.137,-30.234 21.567,-38.504c0.661,-0.397 1.521,-0.198 1.918,0.463c0.133,0.265 0.199,0.464 0.199,0.728l-0,18.789c0.066,0.661 0.529,1.191 1.191,1.191l36.386,-0c0.661,-0 1.191,-0.53 1.191,-1.191l-0,-18.789c-0,-0.794 0.595,-1.389 1.389,-1.389c0.265,-0 0.529,0.066 0.728,0.198Zm6.086,62.519c5.425,-6.748 8.402,-15.415 8.402,-24.082c0,-8.666 -2.977,-17.266 -8.402,-24.014l-1.389,-1.787l-0,0.265l0.066,1.058l0.066,0.993c0.199,1.852 0.265,3.771 0.265,5.689l-0,35.725c-0,1.918 -0.066,3.837 -0.265,5.689l-0.198,2.25l1.455,-1.786Zm-8.203,-15.018l-0,-17.995c-0,-0.661 -0.53,-1.191 -1.191,-1.191l-36.386,0c-0.662,0 -1.191,0.53 -1.191,1.191l-0,17.995c0.066,0.662 0.529,1.191 1.191,1.191l36.386,-0c0.661,-0 1.191,-0.529 1.191,-1.191Zm-45.648,14.554c-0.133,-1.918 -0.265,-3.837 -0.265,-5.755l-0,-35.659c-0,-1.918 0.066,-3.837 0.265,-5.689l0.198,-2.316l-0.198,0.199l-1.257,1.588c-11.181,14.091 -11.181,34.004 -0,48.096l1.455,1.786l-0.198,-2.25Z"/>
        <path d="M211.251,59.225c-0.331,-0.132 -0.728,-0.265 -0.728,-0.661c0,-0.265 0.133,-0.464 0.397,-0.596c0.463,-0.198 11.909,-4.3 11.909,-17.796c-0,-15.018 -10.122,-23.949 -27.191,-23.949l-41.348,0l0,88.253l45.119,0c13.165,0 27.323,-9.328 27.323,-24.345c-0,-14.356 -10.85,-19.384 -15.481,-20.906Zm-36.122,-24.941c0,-0.331 0.265,-0.595 0.596,-0.595l16.407,-0c5.425,-0 9.129,3.638 9.129,9.063c0,4.234 -3.307,8.799 -9.526,8.799l-16.01,-0c-0.331,-0 -0.596,-0.265 -0.596,-0.595l0,-16.672Zm17.003,52.793l-16.407,0c-0.331,0 -0.596,-0.265 -0.596,-0.595l0,-17.598c0,-0.331 0.265,-0.595 0.596,-0.595l16.01,-0c7.872,-0 12.371,3.374 12.371,9.328c0,6.152 -4.168,9.46 -11.974,9.46Zm174.257,-35.725l-3.176,-0.661c-7.145,-1.522 -14.091,-3.44 -14.091,-9.593c-0,-6.152 5.755,-8.931 11.445,-8.931c6.682,-0 13.297,2.977 18.325,8.137l13.099,-12.966c-5.623,-6.219 -15.613,-13.364 -31.755,-13.364c-19.45,-0 -32.549,11.048 -32.549,27.521c-0,17.399 13.694,23.949 25.206,26.397l3.109,0.661c11.181,2.382 16.473,4.168 16.473,10.519c0,5.69 -5.094,9.461 -12.636,9.461c-8.865,-0 -16.737,-3.904 -22.692,-11.247l-13.429,13.165c7.145,8.468 16.605,16.142 36.386,16.142c16.87,0 34.004,-9.791 34.004,-28.579c-0.066,-19.252 -13.165,-23.618 -27.719,-26.662Zm174.323,-35.129l-0,32.285c-0,0.33 -0.265,0.595 -0.596,0.595l-27.124,0c-0.331,0 -0.595,-0.265 -0.595,-0.595l-0,-32.285l-22.229,0l-0,88.253l22.229,0l-0,-34.666c-0,-0.331 0.264,-0.595 0.595,-0.595l27.124,-0c0.331,-0 0.596,0.264 0.596,0.595l-0,34.666l22.361,0l-0,-88.253l-22.361,0Zm-95.266,70.193c-9.99,-0 -20.773,-8.336 -20.773,-26.662c-0,-16.737 10.122,-25.47 20.111,-25.47c7.278,0 12.372,3.043 16.407,9.791l17.069,-11.313c-8.733,-12.834 -19.12,-18.656 -33.608,-18.656c-28.381,0 -41.083,22.957 -41.083,45.648c-0,27.588 16.804,46.839 40.819,46.839c17.862,0 25.999,-6.549 34.533,-18.656l-17.2,-11.577c-3.838,6.218 -8.005,10.056 -16.275,10.056Zm-168.766,-72.442c-24.279,-0 -40.554,18.59 -40.554,46.31c0,27.719 16.275,46.309 40.554,46.309c24.28,0 40.554,-18.59 40.554,-46.309c0,-27.72 -16.274,-46.31 -40.554,-46.31Zm0,72.442c-11.908,-0 -19.582,-10.255 -19.582,-26.132c-0,-15.812 7.674,-26 19.582,-26c11.974,0 19.715,10.188 19.715,26c-0,15.877 -7.741,26.132 -19.715,26.132Z" style="fill:#f80000;fill-rule:nonzero;"/>
    </symbol>
    <symbol id="logo-strabag" viewBox="0 0 365 61">
      <path d="M132.745,59.493l-14.816,-0l-14.705,-21.957l-0.16,-0l0,21.957l-15.583,-0l0,-57.091l23.293,-0c3.987,-0.007 7.543,0.606 10.663,1.847c3.125,1.237 5.591,3.156 7.397,5.748c1.807,2.594 2.728,5.919 2.769,9.974c-0.017,4.025 -1.14,7.517 -3.37,10.475c-2.231,2.961 -5.48,4.841 -9.746,5.651l15.789,19.605l21.517,-53.286l17.014,-0l22.576,57.091l-16.616,-0l-3.895,-9.92l-21.465,-0l-4.134,9.92l-16.534,-0l0.006,-0.014Zm-29.681,-45.73l0,14.231l1.511,-0c1.734,0.03 3.422,-0.128 5.063,-0.465c1.643,-0.34 3,-1.019 4.075,-2.048c1.075,-1.027 1.634,-2.562 1.673,-4.604c-0.039,-2.043 -0.595,-3.575 -1.673,-4.603c-1.078,-1.028 -2.432,-1.708 -4.075,-2.046c-1.641,-0.34 -3.329,-0.496 -5.063,-0.465l-1.511,-0Zm67.597,24.467l-6.36,-18.173l-0.158,-0l-6.437,18.173l12.955,-0Zm-128.388,-32.635l-6.2,11.511c-1.444,-1.153 -3.047,-2.068 -4.811,-2.745c-1.76,-0.678 -3.603,-1.023 -5.521,-1.041c-1.532,-0 -3.003,0.398 -4.413,1.192c-1.412,0.793 -2.17,1.988 -2.269,3.578c0.036,1.101 0.434,2.004 1.193,2.709c0.762,0.703 1.67,1.271 2.731,1.7c1.058,0.429 2.056,0.776 2.993,1.043l3.973,1.136c4.27,1.099 7.774,2.837 10.525,5.214c2.745,2.378 4.169,5.838 4.263,10.384c0.039,2.884 -0.395,5.672 -1.312,8.367c-0.913,2.694 -2.543,5.027 -4.888,7.003c-2.385,1.883 -5.052,3.249 -7.999,4.108c-2.949,0.861 -5.954,1.284 -9.013,1.272c-3.798,-0.02 -7.488,-0.592 -11.068,-1.724c-3.584,-1.136 -6.916,-2.731 -9.999,-4.79l6.677,-11.965c1.948,1.67 4.073,3.063 6.378,4.175c2.309,1.108 4.789,1.69 7.454,1.728c1.915,0.014 3.632,-0.446 5.15,-1.37c1.514,-0.927 2.318,-2.39 2.405,-4.381c-0.052,-1.378 -0.627,-2.491 -1.711,-3.34c-1.083,-0.85 -2.355,-1.519 -3.811,-2.009c-1.46,-0.486 -2.773,-0.875 -3.941,-1.163c-3.277,-0.828 -6.128,-1.797 -8.55,-2.902c-2.42,-1.107 -4.298,-2.681 -5.635,-4.719c-1.337,-2.04 -2.012,-4.876 -2.031,-8.509c0.034,-3.882 0.931,-7.256 2.693,-10.115c1.759,-2.859 4.186,-5.078 7.283,-6.647c3.094,-1.574 6.658,-2.372 10.693,-2.395c3.091,0.018 6.309,0.44 9.648,1.27c3.343,0.831 6.378,1.972 9.113,3.425Zm30.148,9.391l0,44.521l-15.58,-0l0,-44.521l-12.878,-0l0,-12.568l41.335,-0l0,12.568l-12.877,-0Zm148.25,44.428l-24.009,-0l0,-57.093l22.26,-0c5.403,-0.064 9.701,1.048 12.898,3.331c3.196,2.287 4.832,6.121 4.909,11.509c0.027,2.591 -0.465,4.885 -1.484,6.882c-1.014,1.996 -2.72,3.588 -5.116,4.78l0,0.153c4.269,0.571 7.377,2.133 9.339,4.686c1.965,2.551 2.932,5.833 2.906,9.85c-0.065,3.965 -1.13,7.113 -3.19,9.441c-2.062,2.329 -4.731,3.997 -8.01,4.996c-3.279,1.001 -6.781,1.489 -10.503,1.465Zm-8.427,-45.736l0,11.057l1.75,-0c2.157,0.072 4.08,-0.245 5.763,-0.949c1.681,-0.702 2.57,-2.229 2.662,-4.581c-0.032,-1.71 -0.505,-2.964 -1.412,-3.757c-0.907,-0.789 -2.052,-1.289 -3.427,-1.497c-1.378,-0.21 -2.785,-0.302 -4.224,-0.273l-1.112,-0Zm0,22.111l0,12.267l1.986,-0c1.605,0.041 3.36,-0.018 5.268,-0.176c1.904,-0.157 3.553,-0.666 4.947,-1.517c1.391,-0.858 2.119,-2.313 2.19,-4.363c-0.064,-2.247 -0.792,-3.806 -2.19,-4.674c-1.392,-0.872 -3.069,-1.358 -5.029,-1.461c-1.962,-0.104 -3.82,-0.128 -5.579,-0.076l-1.593,-0Zm71.561,13.798l-21.464,-0l-4.136,9.92l-16.533,-0l23.054,-57.091l17.013,-0l22.576,57.091l-16.615,-0l-3.895,-9.92Zm-4.214,-11.357l-6.359,-18.173l-0.157,-0l-6.438,18.173l12.954,-0Zm54.95,-10.602l30.917,-0c0.01,4.14 -0.362,8.052 -1.122,11.736c-0.758,3.685 -2.421,7.296 -4.996,10.828c-2.978,3.879 -6.583,6.724 -10.812,8.529c-4.23,1.805 -8.868,2.697 -13.912,2.676c-6.327,-0.038 -11.881,-1.313 -16.659,-3.822c-4.782,-2.513 -8.514,-6.019 -11.199,-10.525c-2.687,-4.503 -4.052,-9.766 -4.101,-15.789c0.049,-6.22 1.424,-11.624 4.137,-16.216c2.72,-4.588 6.506,-8.149 11.366,-10.677c4.861,-2.529 10.531,-3.811 17.016,-3.85c6.192,-0 11.591,1.327 16.195,3.983c4.606,2.659 8.215,6.657 10.836,11.995l-14.788,5.906c-1.086,-2.763 -2.73,-4.959 -4.928,-6.588c-2.199,-1.626 -4.875,-2.459 -8.029,-2.499c-3.42,0.059 -6.287,0.977 -8.597,2.736c-2.313,1.765 -4.056,4.011 -5.224,6.743c-1.173,2.728 -1.757,5.579 -1.762,8.544c0.008,3.007 0.616,5.864 1.822,8.567c1.209,2.707 2.987,4.918 5.338,6.639c2.349,1.717 5.234,2.608 8.659,2.664c3.444,-0 6.301,-0.83 8.579,-2.489c2.276,-1.66 3.606,-4.138 3.983,-7.432l-12.719,-0l0,-11.659Z" style="fill:#e01e27;"/>
    </symbol>
    <symbol id="logo-denso" viewBox="0 0 770 147" style="fill-rule:evenodd;clip-rule:evenodd;stroke-linejoin:round;stroke-miterlimit:2;">
      <path d="M67.855,21.771l30.473,-0.245c27.551,0.49 30.719,16.58 18.287,53.149c-10.485,31.209 -26.815,50.222 -57.783,49.977l-24.138,0l33.161,-102.881Zm559.513,40.713c18.042,-43.641 41.69,-60.216 90.201,-61.437c43.4,-0.976 62.662,19.017 46.808,68.999c-17.057,54.366 -48.025,76.306 -94.834,76.306c-51.438,0.245 -64.36,-31.204 -42.175,-83.868Zm33.402,2.928c11.211,-27.796 27.546,-47.054 51.688,-47.299c21.691,-0.245 25.599,15.604 15.845,49.005c-12.437,42.906 -30.478,61.678 -55.101,61.193c-27.302,-0.245 -26.816,-27.065 -12.432,-62.899Zm-59.731,-34.377l8.292,-23.888c-12.436,-3.904 -25.599,-6.586 -43.391,-6.586c-30.238,-0.245 -52.913,9.264 -62.177,30.474c-14.624,32.425 5.855,42.42 30.478,53.88c36.083,16.825 15.359,45.837 -19.254,42.91c-13.898,-1.217 -26.093,-7.557 -38.28,-13.408l-7.802,24.383c14.632,4.87 31.939,9.018 53.149,7.557c35.834,-2.193 58.024,-16.58 67.047,-39.252c10.24,-25.844 -5.614,-41.689 -29.266,-49.246c-49.246,-15.854 -19.744,-62.418 41.204,-26.824Zm-265.494,-27.551c3.413,4.875 6.826,9.509 8.778,14.384l-39.742,125.553l24.138,-0l33.16,-104.834l38.035,104.834l34.128,-0l-1.462,-3.904l43.151,-136.037l-24.383,-0l-31.69,100.444l-36.569,-100.444c-15.849,0.004 -31.699,0.249 -47.544,0.004Zm-136.287,0c3.654,4.875 7.072,9.509 8.774,14.384l-39.493,125.553l104.588,-0l4.875,-15.6l-70.697,-0l15.605,-49.002l46.809,0l4.874,-15.359l-46.809,0l14.139,-44.857l68.268,-0l4.63,-15.114c-38.521,-0.005 -77.042,0.24 -115.563,-0.005Zm-167.487,0c3.413,4.875 7.072,9.509 8.778,14.384l-39.742,125.553l34.132,-0l19.989,-0.245c58.51,-0 86.306,-29.013 98.007,-66.803c16.825,-53.871 -3.654,-72.644 -53.39,-72.644l-67.774,-0.245Z" style="fill:#cc2229;"/>
    </symbol>
    <symbol id="logo-bkv" viewBox="0 0 472 157">
      <path d="M245.585,0.341l19.485,0l-65.803,35.02c-5.865,3.12 -8.896,6.227 -8.321,8.527c1.018,4.06 12.85,8.156 37.01,8.156l244.008,-0l-6.35,8.22l-246.2,0c-29.393,0 -47.376,-4.645 -49.359,-12.746c-1.174,-4.825 3.153,-9.817 12.872,-14.826l62.658,-32.351Zm-224.465,87.127l272.035,-0c24.976,-0 44.804,3.641 55.831,10.265c5.88,3.532 9.196,7.801 9.868,12.691c0.718,5.277 -1.731,10.912 -7.267,16.741l-26.731,28.132l-26.189,0l30.487,-30.245c5.136,-5.085 6.888,-9.712 5.23,-13.735c-3.619,-8.755 -22.581,-14.202 -49.489,-14.202l-284.182,0l20.407,-9.647Zm184.28,-87.127l19.969,0l-72.08,35.049c-11.388,5.529 -18.004,11.189 -18.629,15.939c-0.286,2.17 0.661,4.171 2.911,6.118c8.256,7.151 31.245,11.243 63.054,11.243l115.938,0c37.433,0 68.003,5.194 86.094,14.624c9.691,5.064 15.766,11.201 18.066,18.244c2.55,7.866 0.3,16.437 -6.696,25.488l-21.819,28.248l-25.828,-0.004l25.023,-30.133c5.656,-6.808 7.96,-13.212 6.841,-19.005c-1.145,-5.96 -5.848,-11.226 -13.949,-15.639c-15.328,-8.354 -41.973,-12.949 -75.024,-12.949l-118.235,0c-38.317,0 -64.785,-4.998 -74.54,-14.089c-3.124,-2.908 -4.421,-6.158 -3.879,-9.658c1.069,-6.888 9.293,-14.006 24.426,-21.154l68.357,-32.322Z" style="fill:#00448c;"/>
      <path d="M201.175,111.717l-15.857,19.399l19.042,24.174l-14.39,-0l-13.529,-17.658c-2.929,-3.922 -3.273,-4.555 -3.273,-6.238c0,-1.816 0.434,-2.593 3.443,-6.443l12.85,-16.397l23.433,-0l10.684,33.419l11.03,-33.419l12.497,-0l-14.302,39.725c-1.29,3.645 -1.72,4.696 -2.756,5.743c-1.384,1.546 -3.959,2.532 -6.469,2.532c-4.742,0 -7.404,-2.391 -9.47,-8.202l-12.933,-36.635Zm-85.752,7c0,-4.554 0.697,-6.451 2.933,-8.13c2.239,-1.683 4.139,-2.106 9.134,-2.106c7.332,0 10.605,0.351 13.443,1.474c4.999,1.9 8.105,5.959 8.105,10.647c0,3.648 -1.553,6.307 -5.862,9.673c1.98,0.979 2.85,1.611 3.876,2.38c2.932,2.387 4.746,6.097 4.746,9.604c-0,4.063 -2.334,7.913 -6.289,10.297c-3.716,2.311 -6.212,2.734 -15.342,2.734c-7.072,-0 -9.315,-0.423 -11.634,-2.174c-2.413,-1.821 -3.11,-3.851 -3.11,-8.687l0,-25.712Zm11.728,7.7l3.879,0c2.409,0 3.355,-0.205 4.478,-0.91c1.29,-0.765 2.063,-2.033 2.063,-3.362c-0,-2.659 -2.586,-4.414 -6.465,-4.414l-3.955,0l-0,8.686Zm-0,19.695l3.789,0c3.882,0 4.482,-0.072 6.031,-0.7c2.073,-0.914 3.366,-2.669 3.366,-4.631c0,-1.961 -1.386,-3.846 -3.449,-4.691c-1.56,-0.632 -1.809,-0.632 -5.948,-0.632l-3.789,-0l-0,10.654Zm34.128,-37.558l11.716,-0l0,46.732l-11.716,0l-0,-46.732Zm107.092,25.791l-14.259,0c-2.001,0 -3.139,-0.271 -4.143,-0.928c-0.993,-0.654 -1.611,-1.698 -1.611,-2.741c0,-0.925 0.474,-1.785 2.139,-3.865l10.6,-13.147l-11.93,0l0,-5.1l12.978,0c2.661,0 3.424,0.08 4.417,0.463c1.38,0.505 2.431,1.896 2.431,3.211c-0,0.964 -0.336,1.621 -1.431,3.015l-11.312,14.032l12.121,0l0,5.06Zm4.038,-20.374c0,-2.705 0.34,-3.594 1.719,-4.475c1.185,-0.78 1.9,-0.932 4.746,-0.932l3.377,0c2.716,0 4.378,0.387 6.187,1.395c2.467,1.39 3.85,3.478 3.85,5.952c0,2.163 -0.957,3.825 -3.189,5.486c2.565,0.582 3.525,1.896 3.525,4.681l0,8.267l-6.515,0l-0,-7.769c-0,-1.585 -0.665,-2.167 -2.575,-2.167l-1.326,0.044c-2.098,-0 -3.048,-0.618 -3.334,-2.164l0,12.056l-6.465,0l0,-20.374Zm6.465,7.693c0.145,-1.661 1.098,-2.279 3.482,-2.43c1.463,-0.123 2.182,-0.387 2.752,-1.084c0.423,-0.545 0.665,-1.12 0.665,-1.737c-0,-1.777 -1.38,-2.749 -3.995,-2.749l-2.904,0l0,8Zm33.471,-8.072l-5.985,-0l-0,20.753l-6.465,0l-0,-20.753l-5.941,-0l-0,-5.024l18.391,-0l-0,5.024Z" style="fill:#00807a;"/>
    </symbol>
    <symbol id="logo-cocacola" viewBox="0 0 468 147">
      <path d="M243.447,37.87l-7.918,12.828l-14.021,-0l7.912,-12.828l14.027,-0Zm36.389,33.753c6.63,-0.547 15.248,5.083 7.956,25.856c-7.292,20.773 -28.839,45.962 -51.489,46.295c-20.894,0.305 -34.591,-26.372 -5.522,-72.923c32.15,-51.487 69.938,-67.286 82.203,-69.056c12.265,-1.767 16.241,3.647 16.241,3.647c-0,0 10.277,-4.75 23.312,-3.867c14.975,1.016 26.567,11.61 41.836,19.043c-3.992,3.872 -7.787,7.841 -11.197,11.577c-11.327,-5.799 -19.592,-12.887 -28.208,-17.306c-8.224,-4.218 -13.535,-5.966 -20.165,-5.084c-1.103,0.148 -2.746,0.683 -2.746,0.683c0,0 3.434,11.674 -10.162,31.306c-13.774,19.888 -26.283,19.784 -29.831,14.29c-3.727,-5.766 1.065,-17.534 9.096,-27.992c8.4,-10.941 23.164,-20.035 23.164,-20.035c0,-0 -4.712,-2.873 -16.278,3.682c-11.26,6.386 -30.714,21.582 -48.687,47.215c-17.972,25.633 -21.565,39.741 -24.161,50.844c-2.598,11.106 -0.221,22.983 12.098,22.983c12.319,0 26.628,-18.784 30.663,-25.321c7.505,-12.161 12.398,-30.812 2.18,-28.24c-5.041,1.267 -9.115,6.853 -11.683,12.218c-2.64,5.515 -3.701,10.789 -3.701,10.789c-0,-0 -4.255,1.521 -9.972,5.801c-5.717,4.281 -9.446,8.37 -9.446,8.37c-0,-0 0.025,-8.867 7.097,-23.23c7.071,-14.363 20.054,-20.937 27.402,-21.545Zm44.465,-43.256c4.558,-11.127 3.1,-16.222 3.1,-16.353c0,-0 -8.763,3.492 -18.942,14.717c-10.221,11.27 -16.109,23.873 -11.72,27.215c1.68,1.277 5.562,1.49 12.636,-4.863c5.515,-4.952 11.119,-11.436 14.926,-20.716Zm126.13,-13.532c10.266,-6.605 16.905,-13.922 16.905,-13.922c0,-0 -3.433,7.034 -10.387,14.912c-11.148,12.636 -32.087,27.466 -56.026,22.744c3.753,-4.565 7.494,-8.737 10.981,-12.359c13.793,1.331 28.163,-4.708 38.527,-11.375Zm-11.324,58.504l-0.007,0.002c0,-0.002 -27.513,46.722 -29.705,50.236c-1.987,3.185 -4.233,9.261 2.322,5.468c7.984,-4.619 19.355,-21.878 19.355,-21.878l5.137,0c-0,0 -6.778,10.723 -15.614,20.515c-8.092,8.967 -17.961,17.118 -24.913,16.313c-8.12,-0.939 -5.581,-11.601 -5.581,-11.601c0,0 -11.657,12.375 -19.667,11.493c-10.85,-1.197 -7.55,-14.621 -7.55,-14.621c0,-0 -12.265,15.097 -20.624,14.621c-13.122,-0.753 -9.834,-16.764 -6.189,-27.954c1.955,-6.001 3.762,-10.735 3.762,-10.735c-0,0 -1.305,0.343 -4.093,0.753c-1.458,0.214 -4.124,0.355 -4.124,0.355c0,-0 -5.449,9.646 -9.815,15.447c-4.365,5.799 -22.934,25.758 -33.866,21.766c-10.094,-3.685 -6.773,-19.161 -0.887,-31.454c8.578,-17.919 32.705,-43.678 46.629,-40.308c14.429,3.494 0.335,29.841 0.335,29.841c0,-0 0.017,0.098 0.16,0.157c0.286,0.113 1.033,0.186 2.781,-0.148c2.772,-0.525 5.278,-1.577 5.278,-1.577c0,0 14.5,-30.392 30.52,-50.28c16.022,-19.888 47.982,-54.129 60.548,-45.854c3.079,2.027 1.673,9.047 -2.453,17.564c-1.826,0.577 -3.717,1.084 -5.665,1.49c2.767,-5.022 4.6,-9.254 5.137,-12.204c1.88,-10.274 -22.098,11.383 -39.224,34.695c-17.125,23.314 -27.4,44.415 -27.4,44.415c-0,0 3.455,-1.955 8.841,-6.297c5.621,-4.534 13.356,-11.643 21.765,-20.331c5.649,-5.837 12.291,-13.18 18.513,-21.385c1.856,-0.091 3.677,-0.282 5.454,-0.563c-6.938,9.345 -14.237,17.876 -20.43,24.159c-6.811,6.907 -14.22,14.358 -20.66,19.775c-10.228,8.606 -18.121,13.481 -18.121,13.481c0,-0 -15.013,30.202 -6.85,32.153c4.787,1.142 14.253,-13.444 14.253,-13.444c-0,0 12.335,-18.857 19.777,-27.327c10.153,-11.561 18.89,-18.226 27.621,-18.376c5.095,-0.087 8.104,5.341 8.104,5.341l2.396,-3.703l14.75,-0Zm-109.089,26.759c0.303,-0.504 2.553,-4.403 3.912,-7.963c1.362,-3.563 3.086,-10.547 -0.523,-13.279c-3.868,-2.929 -13.73,3.924 -13.779,10.92c-0.054,7.18 6.947,10.416 8.637,10.874c0.96,0.256 1.291,0.218 1.753,-0.552Zm-3.293,5.748l0,-0.003c0.204,-0.46 0.019,-0.57 -0.239,-0.661c-0.258,-0.092 -3.455,-1.554 -6.778,-4.323c-3.309,-2.758 -4.985,-5.936 -5.114,-6.175c-0.129,-0.24 -0.277,-0.054 -0.425,0.148c-0.148,0.202 -0.746,0.725 -6.013,8.46c-5.266,7.736 -13.321,23.683 -6.001,26.391c4.682,1.732 12.472,-6.458 16.727,-11.901c3.95,-5.05 7.641,-11.474 7.843,-11.936Zm70.302,11.558l-0.002,0c5.358,-7.343 18.895,-30.474 21.582,-35.133c0.305,-0.528 0.441,-0.995 0.441,-0.995c0,-0 -0.272,-2.016 -2.189,-2.098c-2.279,-0.103 -5.394,0.331 -13.535,9.355c-8.109,8.988 -13.042,16.796 -17.311,24.6c-4.666,8.538 -6.543,14.889 -3.863,16.52c0.756,0.458 1.896,0.512 2.816,0.289c1.826,-0.446 3.875,-2.134 7.015,-5.76c1.469,-1.694 3.098,-4.107 5.046,-6.778Zm-217.575,11.289l-0.003,0c8.815,5.445 19.358,13.338 23.087,18.726c-11.179,-7.857 -24.795,-11.324 -37.164,-10.826c-12.502,0.5 -18.115,9.838 -18.115,9.838c-5.65,-9.838 -16.804,-15.879 -34.04,-15.731c-27.837,0.328 -56.345,13.187 -77.343,13.187c-20.998,-0 -36.302,-13.183 -35.797,-36.61c0.884,-41.066 35.579,-78.079 61.517,-94.747c14.903,-9.578 27.389,-12.417 35.558,-11.507c5.957,0.662 13.129,7.541 8.606,17.677c-6.63,14.861 -15.801,13.617 -15.471,6.52c0.193,-4.607 3.265,-7.513 5.565,-9.099c1.469,-1.016 4.058,-1.307 5.407,-1.336c1.308,-1.11 2.312,-9.235 -8.371,-6.552c-10.683,2.682 -23.533,13.175 -35.795,26.698c-12.261,13.523 -31.329,39.17 -36.042,66.054c-2.19,12.479 -0.718,35.204 28.82,34.946c25.044,-0.223 62.02,-16.722 95.98,-16.426c13.182,0.115 24.656,3.661 33.601,9.188Zm-77.338,-92.26l0.002,-0.002c14.387,3.668 2.485,27.015 2.485,27.015c0,0 2.866,0.364 9.726,-4.309c9.887,-6.74 22.894,-24.879 37.013,-22.76c6.628,0.993 12.8,7.799 4.363,20.714c-2.706,4.145 -7.238,7.86 -10.718,4.201c-2.155,-2.265 -0.277,-6.428 1.99,-9.28c3.203,-4.032 7.623,-3.48 7.623,-3.48c-0,-0 2.321,-5.358 -3.591,-5.248c-4.804,0.087 -16.954,11.286 -23.81,22.594c-6.296,10.387 -15.815,28.078 -6.242,31.932c8.784,3.534 25.468,-16.297 33.201,-26.684c7.736,-10.386 25.326,-33.949 40.109,-34.913c5.081,-0.331 8.121,4.309 8.121,4.309l1.711,-2.706l14.75,-0c-0,-0 -27.816,46.478 -29.998,49.996c-1.711,2.765 -3.976,8.949 2.321,5.468c6.296,-3.48 19.39,-20.329 19.39,-20.329l5.14,0c-0,0 -25.73,37.206 -40.276,35.523c-8.122,-0.941 -5.717,-10.967 -5.717,-10.967c0,0 -11.425,13.357 -21.85,10.69c-9.5,-2.431 -3.384,-18.23 -3.384,-18.23c-1.08,0.438 -21.627,23.624 -36.06,18.064c-15.107,-5.821 -7.283,-25.227 -4.403,-31.057c2.429,-4.917 5.121,-9.714 5.121,-9.714c-0,0 -2.321,0.662 -3.758,0.995c-1.436,0.334 -3.628,0.756 -3.628,0.756c0,-0 -7.144,11.62 -11.509,17.421c-4.365,5.799 -22.925,25.743 -33.864,21.765c-10.939,-3.978 -8.245,-19.268 -2.1,-31.434c9.962,-19.724 33.605,-43.958 47.842,-40.33Zm63.918,41.766l-0.002,0c-4.671,8.536 -6.715,14.556 -4.035,16.187c0.758,0.46 1.899,0.516 2.819,0.291c1.76,-0.437 4.041,-2.19 7.181,-5.816c1.47,-1.697 3.136,-3.959 5.084,-6.63c5.966,-8.177 22.411,-36.83 22.411,-36.83c-0,-0 -0.273,-2.014 -2.19,-2.098c-2.279,-0.103 -6.046,0.662 -13.615,10.108c-7.568,9.446 -13.384,16.982 -17.653,24.788Zm-63.67,-21.387c1.362,-3.561 3.087,-10.545 -0.523,-13.277c-3.865,-2.929 -13.729,3.924 -13.779,10.92c-0.051,7.18 8.907,9.224 10.059,9.275c0,0 1.012,0.273 1.415,-0.577c0.251,-0.53 1.467,-2.776 2.828,-6.341Zm-6.123,12.089l0.003,-0c0.204,-0.458 0.018,-0.571 -0.24,-0.662c-0.258,-0.092 -3.978,-1.16 -7.606,-3.481c-3.628,-2.318 -5.304,-5.764 -5.433,-6.003c-0.129,-0.242 -0.275,-0.056 -0.423,0.148c-0.15,0.199 -0.922,1.194 -6.189,8.93c-5.266,7.733 -13.074,23.57 -5.754,26.278c4.682,1.732 12.542,-6.491 16.794,-11.934c3.948,-5.05 8.644,-12.816 8.848,-13.276Zm331.77,66.469c0.861,0.488 1.539,1.152 2.032,1.993c0.495,0.84 0.742,1.739 0.742,2.741c-0,1.002 -0.249,1.92 -0.742,2.753c-0.495,0.833 -1.171,1.495 -2.032,1.98c-0.862,0.486 -1.819,0.73 -2.873,0.73c-1.054,0 -2.011,-0.241 -2.872,-0.73c-0.862,-0.485 -1.54,-1.147 -2.033,-1.98c-0.495,-0.836 -0.741,-1.768 -0.741,-2.753c-0,-0.986 0.248,-1.901 0.741,-2.741c0.495,-0.843 1.171,-1.505 2.033,-1.993c0.861,-0.486 1.818,-0.73 2.872,-0.73c1.054,0 2.011,0.242 2.873,0.73Zm1.011,6.996c0.373,-0.666 0.561,-1.436 0.561,-2.262c0,-0.826 -0.188,-1.575 -0.561,-2.242c-0.373,-0.668 -0.901,-1.192 -1.581,-1.572c-0.681,-0.38 -1.449,-0.57 -2.303,-0.57c-0.854,-0 -1.622,0.187 -2.302,0.57c-0.681,0.383 -1.209,0.906 -1.582,1.572c-0.373,0.667 -0.561,1.402 -0.561,2.242c0,0.84 0.188,1.596 0.561,2.262c0.376,0.669 0.899,1.192 1.572,1.573c0.674,0.38 1.446,0.57 2.312,0.57c0.866,-0 1.638,-0.19 2.312,-0.57c0.673,-0.383 1.199,-0.906 1.572,-1.573Zm-1.762,-2.351c-0.16,0.26 -0.387,0.457 -0.681,0.591l1.3,1.922l-1.441,0l-1.161,-1.802l-0.96,-0l-0,1.802l-1.261,0l0,-4.945l2.864,0c0.478,0 0.863,0.15 1.15,0.451c0.286,0.3 0.429,0.669 0.429,1.11c0,0.319 -0.08,0.61 -0.239,0.871Zm-1.202,-0.521l0,-0.003c0.094,-0.087 0.141,-0.204 0.141,-0.349c-0,-0.146 -0.047,-0.263 -0.141,-0.35c-0.094,-0.085 -0.22,-0.129 -0.38,-0.129l-1.361,-0l-0,0.96l1.361,-0c0.16,-0 0.286,-0.043 0.38,-0.129Z" style="fill:#f40009;"/>
    </symbol>
    <symbol id="logo-pepsi" viewBox="0 0 379 145">
        <path d="M72.914,144.471c-39.325,0 -71.32,-32.007 -71.32,-71.346c0,-39.343 31.995,-71.349 71.32,-71.349c39.325,-0 71.318,32.007 71.318,71.349c-0,39.339 -31.993,71.346 -71.318,71.346Z" style="fill:#fff;fill-rule:nonzero;"/>
        <path d="M72.914,2.43c39.025,-0 70.662,31.65 70.662,70.693c0,39.044 -31.637,70.693 -70.662,70.693c-39.026,-0 -70.664,-31.65 -70.664,-70.693c-0,-39.042 31.638,-70.693 70.664,-70.693m0,-1.311c-39.687,-0 -71.975,32.301 -71.975,72.004c-0,39.705 32.288,72.004 71.975,72.004c39.687,-0 71.973,-32.303 71.973,-72.004c0,-39.703 -32.286,-72.004 -71.973,-72.004Z" style="fill:#004883;fill-rule:nonzero;"/>
        <path d="M377.791,44.129c0.793,-0.926 1.324,-1.981 1.324,-3.304c0.01,-1.313 -0.461,-2.585 -1.324,-3.574c-0.93,-0.928 -2.114,-1.458 -3.442,-1.458c-1.318,0 -2.375,0.531 -3.438,1.458c-0.922,0.927 -1.325,2.117 -1.325,3.574c0,1.323 0.403,2.378 1.325,3.304c1.063,0.927 2.12,1.322 3.438,1.322c1.328,0 2.512,-0.395 3.442,-1.322Zm0.269,48.69l-0,-42.736l-7.148,0l0.135,42.736l7.013,0Zm-16.543,-40.617l-1.188,-0.531c-3.176,-1.854 -7.015,-2.778 -11.643,-2.778c-5.029,-0 -9.13,1.189 -12.173,3.571c-1.588,1.192 -2.647,2.381 -3.44,3.971c-0.792,1.454 -1.193,2.909 -1.193,4.628c-0,2.912 1.327,5.293 3.71,7.409c2.246,1.986 5.552,3.574 9.919,4.895c3.703,1.191 6.217,2.382 7.805,3.574c1.325,1.324 2.12,2.778 2.12,4.629c-0,1.985 -1.059,3.573 -2.915,4.897c-1.853,1.059 -4.502,1.72 -7.804,1.72c-3.575,0 -7.144,-0.927 -10.849,-2.649l-0.927,-0.659l-3.043,5.555l1.062,0.53c4.1,1.985 8.601,2.909 13.495,2.909c5.292,0 9.658,-1.058 13.097,-3.439c1.72,-1.059 2.912,-2.512 3.839,-3.966c0.921,-1.72 1.321,-3.575 1.321,-5.426l0,-0.136c0,-3.174 -1.321,-5.954 -3.836,-8.201c-2.115,-1.85 -5.556,-3.44 -10.056,-4.762c-3.441,-1.195 -5.953,-2.384 -7.41,-3.31c-1.587,-1.193 -2.248,-2.513 -2.248,-3.968c0,-1.722 0.661,-3.042 2.12,-4.232c1.585,-1.061 3.698,-1.723 6.479,-1.723c3.837,-0 7.013,0.662 9.527,2.25l0.927,0.662l3.304,-5.42Zm-43.129,3.174c-4.895,-4.233 -10.98,-6.482 -17.996,-6.482c-6.879,0 -12.568,2.115 -17.197,6.217c-5.163,4.633 -7.806,10.981 -7.806,19.317l-0,33.208l6.876,0l0,-21.432c2.119,2.379 4.768,4.233 7.941,5.558c3.175,1.453 6.614,2.114 10.322,2.114c7.011,-0 12.965,-2.114 17.86,-6.617c5.029,-4.366 7.538,-9.656 7.538,-15.877c0,-6.349 -2.509,-11.639 -7.538,-16.006Zm-17.996,-0.531c5.162,-0 9.658,1.59 13.097,4.763c3.575,3.175 5.427,7.142 5.427,11.911c0,4.494 -1.59,8.199 -4.764,11.374c-3.439,3.308 -8.069,5.029 -13.625,5.029c-5.562,0 -10.061,-1.72 -13.631,-5.029c-3.305,-3.305 -4.892,-7.01 -4.892,-11.374c0,-4.37 1.588,-8.205 4.892,-11.383c3.443,-3.437 7.942,-5.291 13.496,-5.291Zm-35.987,2.65c-4.627,-5.824 -11.243,-8.602 -20.11,-8.602c-6.615,-0 -12.308,1.852 -17.201,5.82c-5.29,4.102 -7.935,9.661 -7.935,16.54c-0,3.836 1.056,7.673 3.305,11.244c1.987,3.439 5.029,6.22 9.131,8.334c4.1,1.987 8.465,2.911 13.228,2.911c4.5,-0 8.732,-0.924 12.837,-2.911c4.097,-2.114 7.141,-4.895 9.126,-8.334l1.324,-2.249l-7.672,-0c-1.59,2.249 -3.843,4.103 -6.748,5.557c-2.911,1.454 -6.086,2.117 -9.13,2.117c-4.233,0 -7.806,-1.062 -10.983,-3.178c-3.175,-2.248 -5.29,-5.026 -6.614,-8.731c4.363,-1.72 8.732,-2.647 13.497,-2.647l7.144,0.792l11.112,1.06c3.439,0 6.355,-0.529 8.997,-1.321c1.06,-0.399 1.72,-0.928 1.987,-1.59c0.395,-0.529 0.395,-1.452 0.134,-2.515c-0.798,-4.759 -2.517,-8.859 -5.429,-12.297Zm-1.849,10.851l0.132,0.262l-3.839,0.529l-8.334,-0.792l-11.644,-0.93l-1.985,0c-3.705,0.265 -7.143,0.93 -10.452,2.117c0.527,-4.896 2.911,-8.735 6.881,-11.51c3.305,-2.12 7.013,-3.309 10.98,-3.309c6.216,-0 10.981,1.984 14.554,5.954c1.854,2.384 3.174,4.896 3.707,7.679Zm-74.228,-19.453c-6.747,-0 -12.568,2.115 -17.199,6.217c-5.16,4.633 -7.675,10.981 -7.675,19.315l-0.131,33.209l7.145,-0l-0.133,-21.433c2.117,2.381 4.763,4.233 7.807,5.559c3.306,1.454 6.748,2.112 10.451,2.112c7.013,-0 12.966,-2.112 17.863,-6.614c5.027,-4.366 7.407,-9.659 7.407,-15.878c0,-6.351 -2.38,-11.641 -7.277,-16.008c-5.027,-4.231 -10.98,-6.479 -18.258,-6.479Zm-13.494,11.245c3.573,-3.439 7.94,-5.293 13.494,-5.293c5.294,-0 9.66,1.59 13.229,4.763c3.576,3.175 5.292,7.142 5.292,11.911c0,4.494 -1.585,8.199 -4.631,11.374c-3.437,3.308 -7.936,5.029 -13.757,5.029c-5.425,0 -10.054,-1.72 -13.628,-5.029c-3.176,-3.305 -4.763,-7.01 -4.763,-11.374c0.001,-4.369 1.587,-8.203 4.764,-11.381Z" style="fill:#004883;fill-rule:nonzero;"/>
        <path d="M113.32,19.557c-0.607,-0.46 -1.183,-0.959 -1.725,-1.494c-11.315,-7.982 -24.833,-12.259 -38.681,-12.239c-37.15,0 -67.267,30.13 -67.267,67.298c-0.021,14.481 4.651,28.586 13.311,40.192c22.51,-6.647 42.149,-18.211 58.98,-34.926c16.81,-16.634 28.623,-36.322 35.382,-58.831Z" style="fill:#e32934;fill-rule:nonzero;"/>
        <path d="M72.914,140.42c37.148,-0 67.266,-30.134 67.266,-67.299c-0,-13.156 -3.776,-25.424 -10.297,-35.787c-0.171,-0.171 -0.325,-0.359 -0.459,-0.56c1.369,4.517 2.062,9.211 2.057,13.931c-0,7.636 -1.765,14.864 -5.231,21.632c-3.428,6.427 -8.247,12.008 -14.106,16.337c-4.701,3.467 -10.344,6.407 -16.987,8.816c-5.287,1.935 -12.165,3.936 -20.685,5.872l-24.569,5.529c-10.445,2.394 -19.958,4.956 -28.432,7.579c12.338,14.648 30.803,23.95 51.443,23.95Z" style="fill:#004883;fill-rule:nonzero;"/>       
    </symbol>
    <symbol id="logo-heineken" viewBox="0 0 400 93">
      <path d="M400.366,43.06l-0,1.973c-0,-0 -2.15,0.85 -2.15,3.384l0.017,42.326c-0,1.491 -1.203,2.71 -2.695,2.71l-8.324,0l-18.3,-28.885c0,-0 0.385,2.39 0.385,5.405l-0,23.48l-10.136,0l-0,-50.393l6.575,0c3.352,0 5.79,1.38 7.555,4.154c1.491,2.342 15.316,24.122 15.316,24.122c0,0 -0.497,-1.475 -0.497,-5.453l0,-22.823l12.254,0Zm-194.676,0l-0,47.683c-0,1.491 -1.219,2.71 -2.711,2.71l-8.308,0l-18.3,-28.885c0,-0 0.385,2.39 0.385,5.405l0,23.48l-10.152,0l-0,-50.393l6.56,0c3.352,0 5.79,1.38 7.554,4.154c1.491,2.342 15.333,24.122 15.333,24.122c-0,0 -0.498,-1.475 -0.498,-5.453l0,-22.823l10.137,0Zm-125.406,0l-13.552,0l-0,19.311l-11.853,-0l0,-19.311l-15.733,0l-0,1.973c-0,-0 2.149,0.818 2.149,3.384l-0,45.036l13.584,0l0,-21.86l11.853,-0l-0,21.86l13.552,0l0,-50.393Zm43.882,0l-30.185,0l0,45.886c0,2.615 2.486,4.507 5.085,4.507l25.1,0c1.492,0 2.71,-1.219 2.71,-2.71l0,-6.496l-17.321,0c-1.123,0 -2.037,-0.93 -2.037,-2.053l-0,-10.601l15.429,-0l-0,-9.206l-15.429,-0l-0,-10.105l19.342,0l0,-6.495c0.016,-1.508 -1.202,-2.727 -2.694,-2.727m28.613,0l-13.553,0l0,47.683c0,1.491 1.219,2.71 2.711,2.71l10.842,0l-0,-50.393Zm192.173,0l-30.2,0l-0,45.886c-0,2.519 2.486,4.507 5.1,4.507l25.1,0c1.492,0 2.711,-1.219 2.711,-2.71l-0,-6.496l-17.322,0c-1.122,0 -2.037,-0.93 -2.037,-2.053l0,-10.601l15.446,-0l-0,-9.206l-15.446,-0l0,-10.105l19.375,0l0,-6.495c0,-1.508 -1.235,-2.727 -2.727,-2.727m-95.381,0l-30.2,0l-0,45.886c-0,2.519 2.486,4.507 5.1,4.507l25.1,0c1.492,0 2.711,-1.219 2.711,-2.71l-0,-6.496l-17.322,0c-1.123,0 -2.037,-0.93 -2.037,-2.053l0,-10.601l15.445,-0l0,-9.206l-15.445,-0l0,-10.105l19.359,0l-0,-6.495c-0,-1.508 -1.219,-2.727 -2.711,-2.727m57.354,0l-9.783,0c-2.358,0 -4.154,0.594 -6.031,2.743c-1.86,2.149 -13.809,15.91 -13.809,15.91l-0,-18.653l-13.553,0l0,47.683c0,1.491 1.219,2.71 2.711,2.71l10.842,0l-0,-22.839c-0,0 10.168,15.895 11.949,18.685c1.78,2.791 3.56,4.17 7.618,4.17l11.131,0l-19.022,-29.735l17.947,-20.674Z" style="fill:#24541f;fill-rule:nonzero;"/>
        <path d="M13.885,61.408c-0.674,0.498 -1.572,-0.144 -1.315,-0.93c0.369,-1.123 7.185,-22.101 7.185,-22.101l-18.797,-13.665c-0.674,-0.497 -0.321,-1.54 0.497,-1.524l23.224,0c-0,0 6.832,-20.978 7.185,-22.101c0.257,-0.786 1.363,-0.802 1.62,0c0.353,1.123 7.185,22.085 7.185,22.085l23.224,0c0.818,0 1.187,1.027 0.497,1.524l-11.211,8.148l-13.264,-0l-4.105,-12.607l-4.09,12.623l-13.264,-0l10.73,7.794l-4.106,12.607c-0,0.016 -10.521,7.65 -11.195,8.147" style="fill:#fa3000;fill-rule:nonzero;"/>       
    </symbol>
    <symbol id="logo-rgedeon" viewBox="0 0 787 109">
        <path d="M0.457,54.953c-0.002,-10.71 3.185,-21.181 9.159,-30.087c5.973,-8.906 14.464,-15.848 24.399,-19.947c9.935,-4.1 20.867,-5.173 31.414,-3.083c10.547,2.089 20.235,7.246 27.839,14.82c7.604,7.573 12.782,17.223 14.88,27.727c2.098,10.505 1.02,21.394 -3.096,31.289c-4.116,9.895 -11.085,18.352 -20.027,24.301c-8.942,5.95 -19.455,9.125 -30.208,9.123c-14.417,-0.002 -28.242,-5.707 -38.437,-15.86c-10.194,-10.153 -15.921,-23.924 -15.923,-38.283Zm54.36,48.071c9.554,-0.001 18.894,-2.825 26.837,-8.114c7.943,-5.289 14.132,-12.806 17.786,-21.599c3.654,-8.793 4.607,-18.468 2.739,-27.8c-1.867,-9.333 -6.472,-17.904 -13.232,-24.63c-6.759,-6.726 -15.369,-11.304 -24.741,-13.156c-9.372,-1.851 -19.085,-0.892 -27.91,2.755c-8.825,3.647 -16.366,9.82 -21.668,17.736c-5.303,7.916 -8.129,17.221 -8.121,26.737c0.01,12.754 5.105,24.982 14.164,33.997c9.058,9.014 21.34,14.076 34.146,14.074Zm0.008,-90.204c11.213,0.004 21.966,4.444 29.894,12.343c7.927,7.898 12.381,18.61 12.381,29.778c-0.002,8.33 -2.483,16.471 -7.13,23.396c-4.648,6.925 -11.252,12.322 -18.979,15.507c-7.727,3.187 -16.228,4.019 -24.43,2.392c-8.202,-1.626 -15.735,-5.638 -21.648,-11.529c-5.912,-5.891 -9.938,-13.395 -11.568,-21.565c-1.63,-8.169 -0.791,-16.637 2.411,-24.332c3.202,-7.694 8.622,-14.27 15.577,-18.897c6.954,-4.626 15.129,-7.094 23.492,-7.093Zm26.887,55.142l-0.008,-2.037l-15.103,0l0,6.011l7.363,-0c-0.869,1.745 -2.28,3.164 -4.024,4.046c-1.744,0.882 -3.727,1.178 -5.654,0.847c-1.927,-0.332 -3.695,-1.275 -5.04,-2.688c-1.345,-1.414 -2.197,-3.223 -2.427,-5.157c-0.229,-1.934 0.174,-3.891 1.152,-5.578c0.976,-1.687 2.474,-3.015 4.271,-3.786c1.796,-0.771 3.793,-0.943 5.696,-0.491c1.902,0.452 3.607,1.504 4.86,2.999l5.194,-4.366c-2.338,-2.767 -5.558,-4.651 -9.123,-5.338c-3.564,-0.687 -7.258,-0.135 -10.463,1.564l-3.728,-5.119c2.175,-0.963 3.952,-2.641 5.032,-4.754c1.081,-2.112 1.399,-4.53 0.903,-6.849c-0.497,-2.318 -1.778,-4.397 -3.63,-5.886c-1.852,-1.49 -4.161,-2.3 -6.541,-2.296l-17.364,0l-0,31.584l6.945,-0l0,-10.861l6.552,-0l6.46,8.831c-1.469,2.015 -2.439,4.346 -2.83,6.805c-0.391,2.459 -0.194,4.975 0.578,7.343c0.771,2.368 2.093,4.52 3.859,6.282c1.765,1.762 3.924,3.083 6.3,3.856c2.376,0.772 4.902,0.974 7.371,0.589c2.469,-0.385 4.812,-1.346 6.837,-2.805c2.025,-1.459 3.675,-3.374 4.816,-5.589c1.14,-2.215 1.738,-4.668 1.746,-7.157Zm-32.128,-32.835l0,0.007c1.152,0 2.256,0.456 3.07,1.267c0.814,0.81 1.271,1.91 1.271,3.057c0,1.147 -0.457,2.246 -1.271,3.057c-0.814,0.811 -1.918,1.267 -3.07,1.267l-9.561,-0l-0,-8.655l9.561,-0Z" style="fill:#00408b;"/>
        <path d="M424.574,76.07c-0.015,0.005 -0.03,0.01 -0.045,0.015l0.045,-0.069l-0,0.054Zm-0,0c2.511,-0.843 3.389,-1.296 3.864,-3.367c0.357,-1.745 0.533,-16.641 0.533,-19.984c0,-8.455 -0.061,-9.793 -0.237,-11.291c-0.347,-2.922 -2.71,-2.983 -3.968,-3.075l0.241,-1.691c0.831,0 4.327,0.061 5.046,0.061c0.719,0 2.847,-0.115 4.863,-0.315c2.013,-0.2 4.105,-0.399 4.799,-0.399c9.732,-0 13.482,5.98 13.482,10.853c-0,4.873 -3.451,8.77 -8.141,10.469c6.658,13.873 11.219,19.792 17.202,20.315l0,1.675c-5.742,0.138 -14.053,0.138 -23.785,-21.214c-1.191,-0.02 -2.379,-0.113 -3.557,-0.277c-0.055,1.437 -0.125,2.614 -0.125,6.241c-0,2.145 -0,8.64 0.773,9.993c0.771,1.222 3.146,1.814 3.974,1.952l-0.241,1.537c-1.897,-0.253 -2.956,-0.33 -3.858,-0.384c-0.902,-0.054 -1.923,-0.077 -3.566,-0.077c-2.44,-0.021 -4.879,0.133 -7.299,0.461l-0,-1.483Zm13.982,-38.055c-3.085,-0 -3.085,0.853 -3.271,5.011c-0.254,6.149 -0.254,6.918 -0.176,12.598c0.892,0.221 1.813,0.309 2.731,0.261c2.847,0 8.959,0 8.959,-8.316c0,-2.306 -1.066,-9.539 -8.243,-9.539l-0,-0.015Zm-294.983,37.744c3.29,-1.076 4.439,-1.667 5.039,-4.342c0.456,-2.245 0.697,-21.384 0.697,-25.634c-0,-10.853 -0.077,-12.614 -0.302,-14.535c-0.462,-3.751 -3.518,-3.843 -5.133,-3.913l0.318,-2.175c1.066,0 5.573,0.085 6.481,0.085c0.912,-0 2.208,-0.177 4.808,-0.423c2.6,-0.246 5.271,-0.5 6.173,-0.5c12.519,0 17.318,7.687 17.318,13.951c-0,6.265 -5.772,11.215 -11.806,13.351c8.551,17.863 13.035,26.226 23.474,26.518l-0,1.922c-7.383,0.154 -18.066,0.154 -30.597,-27.31c-1.528,-0.032 -3.053,-0.148 -4.568,-0.346c-0.087,1.845 -0.164,3.352 -0.164,8.025c0,2.751 0,11.083 0.989,12.852c0.989,1.591 4.044,2.344 5.117,2.505l-0.302,1.999c-2.446,-0.331 -3.858,-0.4 -5.04,-0.492c-1.181,-0.092 -2.439,-0.085 -4.577,-0.085c-3.123,0 -2.314,0 -7.932,0.577l0,-1.999l0.007,-0.031Zm16.97,-49.292c-3.967,-0 -4.359,1.476 -4.628,6.81c-0.296,7.94 -0.296,9.662 -0.219,16.91c1.342,0.181 2.697,0.228 4.045,0.138c3.666,0 12.679,-0.53 12.679,-11.237c0,-6.034 -2.516,-12.806 -11.751,-12.806l-0.126,0.185Zm39.043,49.105c2.029,-0.277 4.693,-0.515 5.524,-2.083c1.127,-2.214 1.127,-12.983 1.127,-16.488c-0,-2.997 -0,-15.211 -0.896,-17.086c-0.285,-0.654 -0.77,-1.753 -5.27,-1.753l0.048,-1.752c0.77,-0 3.085,0.061 5.222,0.123c2.138,0.061 4.221,0.192 4.507,0.192c1.483,-0 6.715,-0.192 8.259,-0.254l0,2.007c-2.902,-0 -3.858,0.207 -4.5,0.976c-1.435,1.752 -1.435,12.928 -1.435,16.248c0,2.99 0,15.266 0.363,17.141c0.363,1.876 0.77,2.306 5.216,2.737l-0.116,1.614l-9.43,-0.139c-4.459,-0.054 -6.767,0 -8.619,0.139l-0,-1.622Zm63.39,0.309c-3.782,1.104 -7.691,1.716 -11.63,1.822c-11.507,-0 -20.181,-8.778 -20.181,-20.961c0,-14.112 10.388,-20.869 21.43,-20.869c2.507,-0.044 4.998,0.443 7.302,1.43c0.774,0.344 1.593,0.582 2.43,0.707c0.568,-0.041 1.117,-0.218 1.605,-0.515l0.771,0.262c-0.231,1.229 -1.49,7.417 -1.721,8.816l-0.95,-0.254c-0.292,-2.721 -0.353,-3.559 -1.188,-4.481c-1.261,-1.206 -2.751,-2.153 -4.381,-2.786c-1.631,-0.633 -3.367,-0.94 -5.117,-0.903c-13.173,-0 -13.173,14.881 -13.173,18.255c-0,17.778 11.751,19.085 14.059,19.085c5.216,-0 9.623,-2.975 11.283,-8.563l1.358,0.185c-0.039,1.039 -0.193,2.07 -0.462,3.074c-0.126,0.446 -0.726,2.66 -0.771,3.075l-0.664,2.667l-0,-0.046Zm25.063,-10.424c-0,1.491 -0,7.21 0.363,8.124c0.603,1.499 2.439,1.945 4.099,2.306l-0,1.537c-1.544,-0.069 -8.953,-0.33 -9.739,-0.33c-1.721,0.019 -3.438,0.129 -5.149,0.33l-0.546,-1.537c3.859,-0.645 4.042,-1.537 4.221,-2.859c0.71,-5.111 0.957,-17.525 0.957,-23.428c-0,-10.661 -0.533,-11.437 -4.167,-11.437l0.116,-1.699c0.709,-0.105 1.425,-0.146 2.144,-0.123c0.594,0 2.786,0 4.985,0.061c2.199,0.062 4.513,0.193 5.348,0.193l2.664,-0l0,1.537c-0.533,0.131 -2.857,0.576 -3.335,0.768c-0.642,0.262 -0.934,0.662 -1.242,3.075c-0.523,4.245 -0.719,8.523 -0.594,12.798c4.106,0.061 13.828,0.199 17.989,0.199c1.306,0.044 2.616,-0.046 3.903,-0.269c-0,-1.69 0.07,-3.504 0.07,-6.241c0,-9.277 -0.292,-9.808 -4.753,-10.645l0.308,-1.415c0.825,0.062 1.714,0.185 2.901,0.262c1.188,0.077 2.726,0.123 4.693,0.123c2.321,0.014 4.642,-0.115 6.947,-0.385l-0,1.492c-1.429,0.192 -2.732,0.453 -3.265,2.267c-0.773,2.613 -0.828,21.891 -0.828,26.049c0,8.247 0.411,9.355 4.093,9.731l-0.132,1.537c-2.478,-0.262 -4.972,-0.372 -7.463,-0.33c-2.314,-0 -4.452,0.138 -6.946,0.33l-0,-1.537c2.362,-0.192 3.258,-0.968 3.665,-2.46c0.71,-2.667 0.71,-9.561 0.71,-15.372c-4.568,-0.262 -21.051,-0.331 -21.892,-0.331l-0.115,7.686l-0.01,-0.007Zm78.608,-24.064c-2.013,-1.684 -6.404,-1.684 -8.773,-1.684c-1.258,-0.071 -2.516,-0.006 -3.759,0.193c-0.231,5.634 -0.455,16.694 -0.455,27.855c-0,6.918 0.516,7.087 3.203,7.602c2.138,0.392 2.375,0.338 2.902,0.461l-0.18,1.629c-0.956,0 -5.171,-0.407 -5.81,-0.407c-5.765,0 -6.42,0 -12.403,1.053l-0.53,-1.699c0.931,-0.253 5.338,-1.483 5.81,-2.305c0.703,-1.153 0.771,-14.282 0.771,-16.419c-0,-5.918 -0,-15.134 -0.601,-17.732c-1.836,-0.156 -3.678,-0.22 -5.517,-0.192c-7.534,-0 -8.012,1.184 -8.953,3.843l-1.473,-0.423c0.921,-2.439 1.714,-4.925 2.375,-7.448l0.982,0c0.719,0.437 1.528,0.7 2.369,0.769c2.369,0.315 11.219,0.315 14.3,0.315c4.327,-0 12.988,-0.069 16.683,-0.261c0.834,-0.054 1.004,-0.116 1.361,-0.392l0.902,0.584c-0.825,2.193 -1.381,4.477 -1.66,6.802l-1.759,0.323l0.231,-2.467l-0.016,-0Zm40.554,21.817l-1.406,0c-0.715,-5.572 -0.715,-5.833 -10.092,-5.833c-1.534,-0.051 -3.065,0.078 -4.571,0.384c0,0.922 -0.176,8.378 -0.176,8.562c0.006,2.578 0.241,5.15 0.703,7.687c2.696,0.588 5.444,0.897 8.204,0.922c8.898,0 10.494,-4.996 11.267,-7.34l1.31,-0c-0.308,3.712 -0.831,5.58 -2.578,9.923c-7.87,-0.515 -10.031,-0.577 -15.526,-0.577c-5.495,0 -8.009,0.131 -13.828,0.577l0.186,-1.676c2.128,-0.446 3.316,-0.768 3.688,-2.928c0.578,-3.628 0.693,-14.858 0.693,-19.162c0,-1.622 -0.34,-9.608 -0.401,-11.422c-0.186,-3.574 -0.77,-3.905 -2.995,-4.481c-0.218,-0.038 -0.43,-0.103 -0.632,-0.193l-0,-1.068l18.784,0c3.348,0.055 6.696,-0.058 10.031,-0.338c0.196,4.489 -0.699,8.647 -1.463,8.647c-0.418,-0.039 -0.829,-0.103 -1.236,-0.192c0.215,-0.83 0.343,-1.68 0.385,-2.537c0,-2.459 -2.501,-3.551 -8.371,-3.551c-2.511,0.052 -5.014,0.289 -7.486,0.707c-0.395,3.342 -0.591,6.704 -0.587,10.069c-0,1.43 -0,2.599 0.061,5.665c1.367,0.054 3.319,0.185 5.402,0.185c4.144,-0 7.248,-0.454 7.717,-0.715c1.011,-0.461 1.543,-3.628 1.543,-3.697l1.374,-0l0,12.382Zm124.127,-25.07c-1.08,-2.506 -3.704,-11.022 -15.565,-11.022c-10.75,-0 -19.756,9.3 -19.756,24.75c-0,15.28 9.94,24.158 20.636,24.158c4.46,0 7.972,-1.807 9.191,-4.397c0.594,-1.337 0.594,-4.343 0.594,-5.757c0,-11.299 -0.216,-11.299 -8.381,-11.299l0.216,-2.398c2.153,-0.092 11.19,-0.177 13.174,-0.261l4.298,-0.254l0,2.306c-2.655,0.515 -2.871,1.345 -2.871,10.615c0,8.693 0.587,9.093 1.737,9.931l-0,1.16c-4.114,0.923 -13.891,2.583 -18.699,2.583c-21.215,0 -27.535,-15.857 -27.535,-26.633c-0,-18.601 15.488,-26.903 28.669,-26.903c4.438,0 7.185,0.907 10.311,1.745c1.219,0.331 1.396,0.069 2.994,-1.675l1.281,-0c0.144,4.447 0.553,8.883 1.227,13.282l-1.544,-0l0.023,0.069Zm45.022,25.605l-1.374,0c-0.725,-5.572 -0.725,-5.833 -10.094,-5.833c-1.53,-0.052 -3.061,0.077 -4.561,0.384c0,0.922 -0.185,8.378 -0.185,8.562c-0.006,2.579 0.231,5.153 0.71,7.687c2.69,0.59 5.434,0.899 8.188,0.922c8.906,0 10.503,-4.996 11.267,-7.34l1.312,-0c-0.301,3.712 -0.826,5.58 -2.547,9.923c-7.902,-0.515 -10.032,-0.577 -15.542,-0.577c-5.51,0 -8.011,0.131 -13.845,0.577l0.185,-1.676c2.138,-0.446 3.326,-0.768 3.674,-2.928c0.594,-3.628 0.71,-14.858 0.71,-19.162c-0,-1.622 -0.355,-9.608 -0.409,-11.422c-0.185,-3.574 -0.772,-3.905 -2.971,-4.481c-0.225,-0.033 -0.443,-0.097 -0.649,-0.193l0,-1.068l18.753,0c3.374,0.056 6.748,-0.057 10.11,-0.338c0.177,4.489 -0.718,8.647 -1.505,8.647c-0.418,-0.04 -0.832,-0.104 -1.243,-0.192c0.223,-0.831 0.35,-1.685 0.378,-2.545c0,-2.459 -2.507,-3.55 -8.373,-3.55c-2.507,0.05 -5.006,0.287 -7.477,0.707c-0.407,3.341 -0.602,6.703 -0.587,10.069c-0,1.429 0,2.598 0.062,5.665c1.358,0.054 3.318,0.184 5.402,0.184c4.159,0 7.246,-0.453 7.717,-0.715c1.011,-0.461 1.543,-3.628 1.543,-3.697l1.351,0l-0,12.39Zm22.914,-2.322c0,-2.406 -0.115,-12.536 -0.339,-15.788c-0.371,-5.25 -0.425,-6.041 -3.859,-6.295l0,-1.783l8.975,-0.192c2.316,-0.069 7.038,-0.646 9.192,-0.646c12.579,0 21.608,8.455 21.608,20.269c-0,9.085 -5.695,20.838 -22.234,20.838c-1.497,-0 -7.848,-0.331 -9.137,-0.331c-1.08,0 -5.888,0.062 -6.899,0.062l-1.783,-0l0,-1.568c3.859,-0.192 4.507,-0.461 4.507,-10.285l0,-4.281l-0.031,0Zm12.788,-22.536c-2.167,-0.028 -4.306,0.488 -6.22,1.498c-0.363,4.082 -0.471,7.687 -0.471,15.373c-0,2.867 0.062,12.852 0.185,18.117c1.953,0.707 4.746,1.752 7.771,1.752c7.872,0 14.169,-7.348 14.169,-18.447c0,-13.574 -9.006,-18.309 -15.434,-18.309l-0,0.016Zm61.775,24.858l-1.364,0c-0.713,-5.572 -0.713,-5.833 -10.079,-5.833c-1.538,-0.049 -3.079,0.083 -4.585,0.392c-0,0.922 -0.178,8.378 -0.178,8.562c0.015,2.578 0.255,5.15 0.718,7.687c2.687,0.589 5.428,0.898 8.179,0.922c8.908,-0 10.503,-4.996 11.261,-7.341l1.335,0c-0.292,3.713 -0.835,5.581 -2.546,9.924c-7.88,-0.516 -10.034,-0.577 -15.574,-0.577c-5.541,0 -8.003,0.131 -13.822,0.577l0.185,-1.676c2.131,-0.446 3.327,-0.769 3.666,-2.929c0.618,-3.628 0.726,-14.857 0.726,-19.162c-0,-1.621 -0.363,-9.608 -0.402,-11.422c-0.177,-3.574 -0.771,-3.904 -2.971,-4.481c-0.229,-0.033 -0.452,-0.097 -0.664,-0.192l0,-1.076l18.755,0c3.367,0.056 6.734,-0.057 10.092,-0.338c0.164,4.489 -0.726,8.647 -1.506,8.647c-0.414,-0.041 -0.825,-0.105 -1.232,-0.192c0.208,-0.833 0.327,-1.686 0.353,-2.545c-0,-2.459 -2.507,-3.55 -8.381,-3.55c-2.504,0.051 -5.001,0.288 -7.469,0.707c-0.395,3.342 -0.591,6.704 -0.587,10.069c0,1.429 0,2.598 0.054,5.665c1.357,0.054 3.334,0.184 5.402,0.184c4.153,0 7.232,-0.453 7.716,-0.715c1.021,-0.461 1.544,-3.628 1.544,-3.697l1.374,0l0,12.39Zm37.784,-27.206c10.84,-0 19.584,9.223 19.584,21.045c0,10.93 -7.839,21.176 -19.946,21.176c-12.526,-0 -19.944,-10.138 -19.944,-21.476c0,-12.682 9.957,-20.753 20.306,-20.753l0,0.008Zm0.947,39.876c3.791,-0.002 11.739,-2.527 11.739,-14.542c-0,-8.455 -3.72,-22.806 -14.361,-22.806c-2.847,0 -11.668,1.43 -11.668,14.681c-0,10.705 4.665,22.662 14.284,22.667l0.006,0Zm66.594,-9.965c0.001,-2.084 0.186,-11.154 0.186,-12.966c-0,-13.835 -0.479,-14.481 -6.057,-15.065l0.523,-1.422c0.488,-0.08 0.979,-0.121 1.473,-0.123c0.511,0 1.785,0.061 3.172,0.184c1.075,0.146 2.157,0.231 3.242,0.254c0.301,0 4.099,-0.069 4.879,-0.069l-0,1.63c-0.835,-0.062 -2.501,-0.062 -3.204,1.429c-1.11,2.306 -1.181,13.382 -1.236,16.818c0,2.213 -0.208,11.891 -0.208,13.835c-0,0.715 0.131,3.359 0.208,5.204l0.116,2.46l-1.798,-0c-1.999,-4.159 -5.171,-7.541 -8.294,-10.761l-18.236,-19.185c-0.757,-0.87 -1.569,-1.689 -2.433,-2.452c-0.045,1.299 -0.17,4.281 -0.17,5.588l-0.221,14.988c-0.132,6.026 -0.087,8.37 6.503,9.485c0.122,0.578 0.122,1.175 -0,1.752c-0.771,-0.061 -1.474,-0.192 -2.369,-0.322c-0.896,-0.131 -1.83,-0.146 -3.249,-0.146c-1.418,-0 -7.074,0.407 -8.249,0.468c-0.064,-0.582 -0.064,-1.17 -0,-1.752c3.743,-0.061 4.154,-2.306 4.205,-7.871l0.302,-19.016c0.061,-5.38 0.061,-9.808 -4.985,-10.653c-0.077,-0.651 -0.077,-1.309 -0,-1.96c0.292,-0 1.544,0.153 2.779,0.207c1.233,0.054 2.536,0.123 3.031,0.123l2.802,0c3.65,4.612 3.897,4.758 13.893,15.311c2.792,2.937 5.517,5.865 8.31,8.771l5.085,5.256Z" style="fill:#00408b;"/>
    </symbol>
    <symbol id="logo-egis" viewBox="0 0 266 167">
      <path d="M24.075,44.495l28.26,-43.735l120.44,-0l36.333,51.809l-86.125,0l-13.457,-8.074l-85.451,-0Zm0,78.724l28.26,43.733l120.44,0l36.333,-51.81l-86.125,0l-13.457,8.075l-85.451,0l0,0.002Zm-23.55,-37.682l18.84,-32.296l84.779,0l-18.841,32.296l21.532,30.279l-87.47,-0l-18.84,-30.279Zm120.131,-8.474l0,-9.757l26.662,0l-0,-9.346l-37.999,0l0,48.113l38.687,-0l0,-9.357l-27.35,-0l0,-10.788l23.502,0l-0,-8.865l-23.502,-0Zm56.829,2.888l0,8.727l9.621,-0c-0.619,6.666 -6.115,9.415 -11.063,9.415c-12.438,0 -12.715,-12.988 -12.715,-15.873c0,-2.748 -0.137,-16.287 13.058,-16.287c7.971,-0 9.137,5.704 9.278,7.628l11.886,0c-1.235,-8.178 -7.146,-16.973 -21.095,-16.973c-21.509,0 -25.359,15.531 -25.359,25.289c-0,9.139 2.888,25.573 23.708,25.573c6.665,0 11.337,-1.659 14.567,-6.538l0.137,-0l0,5.165l8.455,0l-0,-26.126l-20.478,0Zm28.381,-21.991l-0,48.113l11.337,-0l-0,-48.113l-11.337,0Zm18.483,32.505c0.07,6.391 3.23,16.982 20.96,16.982c19.24,0 20.34,-12.105 20.34,-16.023c-0,-10.512 -8.522,-13.056 -18.623,-14.979c-4.124,-0.825 -9.482,-1.717 -9.482,-5.909c0,-2.407 1.786,-4.606 7.422,-4.606c6.115,0 7.97,2.612 8.243,5.224l10.721,-0c-0.139,-7.009 -4.948,-14.568 -18.278,-14.568c-14.499,-0 -19.722,6.46 -19.722,14.223c-0,10.719 7.216,12.919 15.873,14.843c5.841,1.307 12.231,2.269 12.231,7.491c-0,4.192 -4.328,4.947 -8.589,4.947c-8.11,0 -9.689,-4.673 -9.62,-7.627l-11.476,0l0,0.002Z" style="fill:#33348e;"/>
    </symbol>
    <symbol id="logo-teva" viewBox="0 0 551 193">
        <path d="M512.744,45.406c-0.009,-1.812 1.473,-3.312 3.285,-3.326l31.815,0c1.813,0.014 3.294,1.514 3.285,3.326l0,141.837c0.009,1.812 -1.472,3.312 -3.285,3.326l-31.815,-0c-1.817,-0 -3.285,-1.493 -3.285,-3.326l-0,-8.128c-11.462,9.62 -25.017,14.496 -40.292,14.496c-21.318,-0 -42.028,-9.386 -55.404,-25.107c-12.103,-14.171 -18.755,-32.642 -18.755,-52.029c-0.008,-43.423 31.645,-77.437 72.05,-77.437c15.956,0 30.598,5.014 42.401,14.521l-0,-8.153Zm2.945,71.077l-0,-0.008c-0.004,-20.139 -14.792,-40.146 -39.23,-40.146c-19.695,-0 -38.28,14.958 -38.28,40.146c0,22.713 16.281,39.991 38.751,39.991c23.456,0 38.754,-19.852 38.759,-39.983Zm-424.212,41.119c4.535,-0 10.205,-1.866 13.174,-3.504c2.19,-1.209 4.802,-0.747 6.027,1.265c4.783,7.674 9.596,15.329 14.439,22.965c1.03,1.484 0.673,4.615 -1.079,6.011c-6.076,4.818 -17.343,9.036 -34.97,9.036c-22.876,0 -40.479,-7.422 -50.894,-21.472c-7.65,-10.213 -10.911,-23.492 -10.911,-44.396l0,-51.162l-23.419,0c-1.809,0 -3.285,-1.493 -3.285,-3.326l-0,-27.848c-0.009,-1.813 1.473,-3.313 3.285,-3.326l23.419,0l0,-37.801l0,-0.025c0,-1.805 1.48,-3.292 3.286,-3.301l33.323,-0c1.805,0.009 3.286,1.496 3.286,3.301l-0,0.025l-0,37.801l41.103,0c1.724,0.009 3.139,1.431 3.139,3.156l-0,0.016l-0,28.148l-0,0.016c-0,1.725 -1.415,3.147 -3.139,3.156l-41.112,-0l0,54.78c0,8.89 1.509,14.301 4.73,18.341c4.299,5.386 10.675,8.144 19.598,8.144Zm97.067,-118.807c19.09,-0.095 37.309,8.11 49.888,22.47c12.541,14.131 19.452,33.113 19.452,53.449c0.006,2.468 -0.11,4.934 -0.348,7.39c-0.233,2.395 -2.267,4.246 -4.673,4.251l-97.051,-0c2.256,20.215 18.252,34.289 39.051,34.289c13.912,-0 24.49,-6.449 31.02,-11.787c1.136,-0.941 2.223,-1.93 3.131,-2.806c0.606,-0.583 1.415,-0.909 2.255,-0.909c1.029,-0 1.999,0.488 2.612,1.314l15.786,21.034c0.982,1.321 0.85,3.18 -0.308,4.348c-0.746,0.763 -1.477,1.46 -2.093,2.012c-13.815,12.208 -33.405,19.525 -53.303,19.525c-45.265,0 -76.869,-31.717 -76.869,-77.144c0,-20.661 6.879,-39.91 19.372,-54.203c13.092,-14.983 31.587,-23.233 52.078,-23.233Zm-0,32.723c-16.8,0 -29.024,12.98 -30.906,25.147l59.411,0c-1.655,-15.542 -16.013,-25.147 -28.505,-25.147Z" style="fill:#00567a;"/>
        <path d="M330.38,155.331l0.065,-21.221c0.017,-8.656 1.809,-18.317 5.135,-28.173c3.772,-11.218 9.199,-20.758 15.202,-27.694l9.166,-11.876l0,49.629l-29.568,39.343l0,-0.008Z" style="fill:#00a03b;"/>
        <path d="M359.948,66.367l19.469,-25.228c1.478,-2.014 4.149,-2.783 6.473,-1.865c2.384,0.985 3.921,3.351 3.853,5.929l-0.146,31.345l-29.649,39.448l0,-49.629Z" style="fill:#afcb37;"/>
        <path d="M389.597,76.548l-0.081,18.008c0.3,9.248 -1.233,19.891 -4.867,30.671c-3.326,9.864 -7.658,18.52 -12.801,25.163l-11.9,15.486l0,-49.872l29.649,-39.448l0,-0.008Z" style="fill:#3c7e79;"/>
        <path d="M359.956,115.988l0,49.888l-19.33,25.147c-1.482,2.019 -4.159,2.793 -6.49,1.874c-2.382,-0.991 -3.915,-3.36 -3.845,-5.938l0.098,-31.628l29.567,-39.343Z" style="fill:#00567a;"/>
        <path d="M326.187,155.331l-0.057,-21.221c-0.016,-8.656 -1.809,-18.317 -5.127,-28.173c-3.78,-11.218 -9.199,-20.758 -15.21,-27.694l-9.166,-11.876l-0,49.629l29.56,39.335Z" style="fill:#00a03b;"/>
        <path d="M296.627,66.367l-19.469,-25.228c-1.479,-2.017 -4.155,-2.788 -6.481,-1.865c-2.379,0.989 -3.912,3.354 -3.845,5.929l0.138,31.345l29.649,39.448l-0,-49.629l0.008,0Z" style="fill:#afcb37;"/>
        <path d="M266.978,76.548l0.081,18.008c-0.3,9.248 1.233,19.883 4.867,30.679c3.326,9.856 7.666,18.52 12.801,25.155l11.9,15.478l-0,-49.872l-29.657,-39.448l0.008,-0Z" style="fill:#3c7e79;"/>
        <path d="M296.627,115.988l-0,49.888l19.33,25.147c1.482,2.019 4.16,2.793 6.49,1.874c2.382,-0.991 3.916,-3.36 3.845,-5.938l-0.105,-31.628l-29.568,-39.343l0.008,-0Z" style="fill:#00567a;"/>
    </symbol>
  </defs>
</svg>