<?xml version="1.0" encoding="UTF-8" standalone="no"?>
<!DOCTYPE svg PUBLIC "-//W3C//DTD SVG 1.1//EN" "http://www.w3.org/Graphics/SVG/1.1/DTD/svg11.dtd">
<svg width="100%" height="100%" viewBox="0 0 1155 1000" version="1.1" xmlns="http://www.w3.org/2000/svg" xmlns:xlink="http://www.w3.org/1999/xlink" xml:space="preserve" xmlns:serif="http://www.serif.com/" style="fill-rule:evenodd;clip-rule:evenodd;stroke-linejoin:round;stroke-miterlimit:2;">
    <g transform="matrix(0.00853414,-1.16909,1.14935,0.00838999,-32.5293,1171.98)">
        <path d="M577.407,62.53L962.599,292.481L962.599,752.383L577.407,982.334L192.214,752.383L192.214,292.481L577.407,62.53Z" style="fill:rgb(255,255,0);"/>
    </g>
    <path d="M323.311,59.932L831.353,59.932L1085.37,500L831.353,940.068L323.311,940.068L69.224,500L323.311,59.932ZM0,500L288.662,1000L866.06,1000L1154.66,500L866.06,0L288.662,0L0,500Z" style="fill-rule:nonzero;"/>
    <path d="M721.694,564.355C739.204,505.644 793.169,465.419 854.487,465.419L854.487,534.579C829.653,534.579 806.841,547.86 794.419,569.286L754.409,638.583L794.419,707.87C806.841,729.325 829.653,742.45 854.487,742.45L854.487,811.737C793.169,811.737 739.204,771.512 721.694,712.801C704.184,771.512 650.219,811.737 588.896,811.737L588.896,742.45C613.608,742.45 636.484,729.325 648.842,707.87L688.852,638.583L648.842,569.286C636.484,547.86 613.608,534.579 588.896,534.579L588.896,465.419C650.22,465.42 704.185,505.645 721.694,564.355Z" style="fill-rule:nonzero;"/>
    <path d="M300.171,500C293.643,495.088 287.422,489.658 281.621,483.975C214.014,416.231 214.014,306.612 281.621,239.014C349.292,171.26 458.979,171.26 526.592,239.014L477.622,287.969C437.046,247.324 371.23,247.324 330.654,287.969C290.073,328.477 290.073,394.365 330.654,434.864C350.146,454.376 376.572,465.421 404.106,465.421L473.393,465.421L473.393,534.581L404.106,534.581C346.743,534.581 300.17,581.153 300.17,638.585C300.17,696.007 346.742,742.452 404.106,742.452C431.699,742.452 458.129,731.534 477.622,712.052L526.592,761.007C520.786,766.818 514.634,772.247 508.037,777.159C431.494,834.581 322.949,819.054 265.527,742.452C208.164,665.977 223.687,557.422 300.171,500" style="fill-rule:nonzero;"/>
</svg>
