<svg width="98" height="75" viewBox="0 0 98 75" fill="none" xmlns="http://www.w3.org/2000/svg">
<path d="M94.0044 0.547974H45.5571C42.8512 0.547974 40.3526 1.96395 38.9997 4.27235C31.4637 17.1292 9.27658 54.9837 0.872855 69.3199C-0.582797 71.8068 1.23929 74.9105 4.15462 74.9105H52.5918C55.2997 74.9105 57.7963 73.4965 59.1493 71.1861C66.9147 57.9386 88.5824 20.9725 97.2861 6.12263C98.7418 3.63972 96.9157 0.547974 94.0044 0.547974Z" fill="#C41D48"/>
<path d="M39.7016 37.153L48.1929 28.6585L45.4092 25.8733L41.5175 29.767C41.4711 29.8136 41.4159 29.8505 41.3553 29.8757C41.2946 29.9008 41.2295 29.9138 41.1638 29.9138C41.0981 29.9138 41.0331 29.9008 40.9724 29.8757C40.9117 29.8505 40.8566 29.8136 40.8102 29.767L40.1029 29.0594C39.9073 28.8637 39.9073 28.5468 40.1029 28.3517L43.9946 24.458L41.8721 22.3338C41.0903 21.5516 39.8234 21.5516 39.0416 22.3338L33.3814 27.997C32.6003 28.7791 32.5996 30.0467 33.3814 30.8288L39.7016 37.153ZM64.2121 29.7797C65.3957 28.5954 65.3951 26.6757 64.2121 25.4914L61.357 22.6349C60.1734 21.4506 58.254 21.4506 57.0697 22.6349L54.1661 25.5394L61.3084 32.6854L64.2121 29.7797ZM52.7383 26.9686L33.9991 45.7149L32.8154 52.4973C32.6558 53.4121 33.4521 54.2087 34.3669 54.0477L41.1465 52.8584L59.8806 34.114L52.7383 26.9686ZM64.5136 44.9871L62.3911 42.8635L58.4994 46.7572C58.3039 46.9529 57.9871 46.9529 57.7922 46.7572L57.0849 46.0495C56.8899 45.8538 56.8899 45.5369 57.0849 45.3418L60.9765 41.4481L58.1915 38.6617L49.7002 47.1561L56.023 53.4815C56.8047 54.2636 58.0717 54.2636 58.8534 53.4815L64.5136 47.819C65.2954 47.0368 65.2954 45.7692 64.5136 44.9871Z" fill="white"/>
</svg>
