<svg width="99" height="75" viewBox="0 0 99 75" fill="none" xmlns="http://www.w3.org/2000/svg">
<path d="M94.3239 0.547974H45.8767C43.1707 0.547974 40.6721 1.96395 39.3192 4.27235C31.7832 17.1292 9.5961 54.9837 1.19237 69.3199C-0.263278 71.8068 1.55881 74.9105 4.47414 74.9105H52.9113C55.6193 74.9105 58.1158 73.4965 59.4688 71.1861C67.2343 57.9386 88.9019 20.9725 97.6056 6.12263C99.0613 3.63972 97.2352 0.547974 94.3239 0.547974Z" fill="#C41D48"/>
<path d="M62.6815 45.7543L55.8209 38.8901C54.4675 37.5361 52.4462 37.2723 50.8174 38.0753L44.572 31.8266V28.1864L37.0727 22.5591L33.3231 26.3107L38.9475 33.8138H42.5858L48.8313 40.0625C48.0345 41.6921 48.2923 43.7144 49.6457 45.0685L56.5063 51.9327C57.3617 52.7885 58.7444 52.7885 59.5939 51.9327L62.6815 48.8435C63.531 47.9877 63.531 46.6043 62.6815 45.7543ZM52.7567 35.7482C54.4147 35.7482 55.9732 36.393 57.145 37.5654L58.2816 38.7026C59.2072 38.2981 60.0861 37.7354 60.8477 36.9733C63.0213 34.7986 63.7595 31.7387 63.0682 28.9602C62.9393 28.4326 62.2773 28.2509 61.8906 28.6378L57.5316 32.999L53.5535 32.3366L52.8915 28.3564L57.2504 23.9952C57.6371 23.6083 57.4496 22.946 56.9165 22.8111C54.1394 22.1253 51.0811 22.8639 48.9133 25.0328C47.2436 26.7034 46.4585 28.9074 46.4995 31.1056L51.3096 35.9182C51.7841 35.8068 52.2763 35.7482 52.7567 35.7482ZM46.6694 40.5549L43.3475 37.2312L34.4187 46.1705C32.954 47.636 32.954 50.01 34.4187 51.4755C35.8834 52.9409 38.2562 52.9409 39.7209 51.4755L46.9624 44.2303C46.5171 43.0638 46.3823 41.7917 46.6694 40.5549ZM37.0727 50.2269C36.2993 50.2269 35.6666 49.5938 35.6666 48.8201C35.6666 48.0405 36.2935 47.4132 37.0727 47.4132C37.8519 47.4132 38.4788 48.0405 38.4788 48.8201C38.4788 49.5938 37.8519 50.2269 37.0727 50.2269Z" fill="white"/>
</svg>
