<?xml version="1.0" encoding="UTF-8"?>
<svg fill="none" viewBox="0 0 27 19" xmlns="http://www.w3.org/2000/svg">
<g clip-path="url(#a)">
<path d="m16.87 1.8234-2.6637 4.5419c-0.1488 0.254-0.1488 0.56686 0 0.82064l0.5758 0.98155c0.1488 0.25377 0.4241 0.41032 0.7217 0.41032h5.3272c0.3207 0 0.5213-0.34208 0.3607-0.61548l-3.6-6.1389c-0.1603-0.27362-0.5614-0.27362-0.7217 0z" fill="#FFFFFF"/>
<path d="m11.604 10.804-2.6637 4.542c-0.14882 0.254-0.14882 0.5667 0 0.8207l1.0477 1.7867c0.14878 0.2538 0.42408 0.4103 0.72198 0.4103h5.3271c0.3209 0 0.5213-0.3419 0.361-0.6155l-4.0724-6.9442c-0.1603-0.2737-0.5614-0.2737-0.7217 0z" fill="#FFFFFF"/>
<path d="m22.136 10.804-2.6637 4.542c-0.1488 0.254-0.1488 0.5667 0 0.8207l1.0477 1.7867c0.1489 0.2538 0.4241 0.4103 0.722 0.4103h5.3271c0.3209 0 0.5213-0.3419 0.361-0.6155l-4.0724-6.9442c-0.1603-0.2737-0.5614-0.2737-0.7217 0z" fill="#FFFFFF"/>
<path d="m17.592 16.943 4.0721-6.9443c0.1606-0.2734-0.04-0.61526-0.3607-0.61526h-5.3269c-0.2979 0-0.5729 0.15633-0.722 0.4101l-1.0479 1.787c-0.1488 0.2537-0.1488 0.5666 0 0.8204l2.6637 4.5421c0.1603 0.2736 0.5614 0.2736 0.7217 0z" fill="#FFFFFF"/>
<path d="m0.41746 18.364h5.3274c0.29764 0 0.57291-0.1563 0.72173-0.4103l4.6652-7.9548c0.1605-0.2734-0.0401-0.61526-0.361-0.61526h-5.3272c-0.29786 0-0.57291 0.15632-0.72195 0.4101l-4.6652 7.9548c-0.16034 0.2736 0.040084 0.6155 0.36097 0.6155z" fill="#FFFFFF"/>
<path d="m16.039 0.40258h-5.3289c-0.2976 0-0.5725 0.15567-0.72128 0.40945-0.82891 1.4134-3.2694 5.5751-4.1937 7.1512-0.16011 0.2734 0.04031 0.6146 0.36098 0.6146h5.3278c0.2978 0 0.5724-0.15545 0.7213-0.40944 0.8541-1.4564 3.2374-5.5204 4.1948-7.1529 0.1601-0.27296-0.0408-0.61286-0.361-0.61286z" fill="#FFFFFF"/>
</g>
<defs>
<clipPath id="a">
<rect transform="translate(0 .40246)" width="27" height="18" fill="#fff"/>
</clipPath>
</defs>
</svg>
