<svg width="179" height="84" viewBox="0 0 179 84" fill="none" xmlns="http://www.w3.org/2000/svg">
<path fill-rule="evenodd" clip-rule="evenodd" d="M173.238 60.2957V40.4624C173.314 18.5513 155.608 0.757926 133.664 0.68237C111.721 0.606815 93.9016 18.2868 93.8259 40.1979C93.8259 40.3113 93.8259 40.3868 93.8259 40.5001C93.8259 40.5379 101.771 40.5379 101.771 40.5001C101.771 22.9713 115.996 8.76681 133.551 8.76681C151.106 8.76681 165.331 22.9713 165.331 40.5001V60.3335H173.238V60.2957Z" fill="#7C7C7B"/>
<path d="M133.551 50.549L126.779 43.7868V33.549L133.551 40.3113L148.949 24.9357C140.437 16.4735 126.703 16.4735 118.191 24.9735C109.678 33.4735 109.716 47.1868 118.228 55.6868C126.741 64.149 140.474 64.149 148.987 55.649C155.494 49.1513 157.197 39.2535 153.224 30.9424L133.551 50.549Z" fill="#EC660B"/>
<path d="M146.83 79.8649C144.863 79.2605 144.447 77.5605 144.56 75.6716H147.436C147.436 76.956 147.474 78.0894 149.063 78.0894C150.046 78.0894 150.5 77.4849 150.5 76.5405C150.5 74.0849 144.75 73.9338 144.75 69.8538C144.75 67.7005 145.771 66.0005 149.252 66.0005C152.051 66.0005 153.413 67.2472 153.224 70.1183H150.425C150.425 69.0983 150.235 68.0783 149.1 68.0783C148.382 68.0027 147.701 68.5316 147.625 69.2494C147.625 69.3627 147.625 69.4383 147.625 69.5516C147.625 72.1583 153.413 71.9316 153.413 76.2005C153.413 78.5805 152.241 79.5249 150.841 79.9027L146.83 79.8649Z" fill="#7C7C7B"/>
<path d="M160.375 70.4205C160.413 69.136 160.186 68.0405 158.672 68.0405C156.894 68.0405 156.894 70.4583 156.894 73.1027C156.894 77.3716 157.31 78.1272 158.937 78.1272C159.429 78.1272 159.921 78.0138 160.375 77.8627V74.8405H158.824V72.7249H163.25V79.6383C162.947 79.7138 162.456 79.7894 161.926 79.8649H157.008C154.359 79.2227 153.981 77.1072 153.981 72.9516C153.981 69.5138 154.17 66.0005 158.824 66.0005C161.623 66.0005 163.364 67.5872 163.212 70.4205H160.375Z" fill="#7C7C7B"/>
<path d="M168.66 66.0005C171.157 66.0005 172.519 66.9827 172.708 69.1738V70.1183H169.909C169.909 69.136 169.644 68.0783 168.509 68.0783C167.79 68.0027 167.109 68.5316 167.033 69.2494C167.033 69.3627 167.033 69.4383 167.033 69.5516C167.033 71.9316 171.952 71.9316 172.708 75.2938V77.2583C172.519 78.5805 171.536 79.6383 170.211 79.9027H166.201C164.234 79.2983 163.818 77.5983 163.931 75.7094H166.806C166.806 76.9938 166.882 78.1272 168.433 78.1272C169.417 78.1272 169.871 77.5227 169.871 76.5783C169.871 74.1227 164.082 73.9716 164.082 69.8916C164.12 67.7005 165.142 66.0005 168.66 66.0005Z" fill="#7C7C7B"/>
<path d="M135.972 79.8647H178.346V80.3936H135.972V79.8647Z" fill="#EC660B"/>
<path d="M172.708 63.4692H173.238V83.227H172.708V63.4692Z" fill="#EC660B"/>
<path d="M94.3556 43.6732L94.3177 42.9177L100.371 42.4644L100.409 43.2199L94.3556 43.6732Z" fill="#EC660B" stroke="#EC660B" stroke-width="1.4805"/>
<path d="M96.3608 45.5244L96.1716 45.5622C95.642 45.5622 95.2258 46.0155 95.2258 46.5444C95.2258 46.62 95.2258 46.6577 95.2636 46.7333C95.3771 47.3377 95.6798 47.7533 96.3986 47.64C97.7228 47.4133 97.1175 44.7688 98.9335 44.4666C99.9928 44.2777 100.674 44.9577 100.863 45.94C101.052 47.0355 100.598 47.7155 99.3875 47.8666L99.274 47.0733C99.9171 46.96 100.333 46.6955 100.22 45.9777C100.182 45.5244 99.8036 45.1466 99.3118 45.1844C99.274 45.1844 99.2362 45.1844 99.1605 45.2222C97.8363 45.4488 98.4795 48.0933 96.5878 48.3955C95.3393 48.6222 94.7718 47.7911 94.6205 46.8089C94.3178 45.0333 95.6798 44.8444 96.2473 44.7311L96.3608 45.5244Z" fill="#EC660B" stroke="#EC660B" stroke-width="1.4805"/>
<path d="M97.4957 49.4154L99.3874 48.8488C100.56 48.5088 101.468 48.8488 101.847 50.0954C102.225 51.3421 101.657 52.1354 100.522 52.5132L98.6307 53.0799C97.0417 53.571 96.2094 53.1554 95.831 51.9465C95.4149 50.6999 95.8689 49.9065 97.4957 49.4154ZM98.328 52.3243L100.295 51.7199C101.506 51.3421 101.279 50.511 101.241 50.2843C101.166 50.0577 100.863 49.2265 99.6522 49.6043L97.6849 50.2088C96.3985 50.5866 96.2094 51.0777 96.4364 51.7577C96.6255 52.4377 97.0795 52.7021 98.328 52.3243Z" fill="#EC660B" stroke="#EC660B" stroke-width="1.4805"/>
<path d="M101.695 58.1799C100.333 58.8599 99.0091 59.5399 98.2903 58.1421C97.912 57.4621 98.139 56.631 98.82 56.2532C98.8956 56.2155 98.9335 56.1777 99.0091 56.1777L99.3496 56.8577C98.9713 57.0466 98.6308 57.3866 98.8578 57.8399C99.1983 58.5199 99.955 58.1799 101.279 57.4999C100.863 57.4999 100.485 57.2355 100.333 56.8577C100.106 56.4421 99.955 55.5732 101.393 54.8555C102.565 54.251 103.36 54.7421 103.7 55.4221C104.419 56.8577 103.095 57.4621 101.695 58.1799ZM101.771 55.4977C101.241 55.7621 100.749 56.1399 101.052 56.7444C101.355 57.3488 101.96 57.1599 102.49 56.8955C102.982 56.6688 103.511 56.2532 103.209 55.6488C102.906 55.0821 102.225 55.271 101.771 55.4977Z" fill="#EC660B" stroke="#EC660B" stroke-width="1.4805"/>
<path d="M104.003 61.7688C102.717 62.5999 101.506 63.431 100.636 62.1088C99.7658 60.7866 101.014 59.9932 102.301 59.1243C103.625 58.2554 104.835 57.4243 105.706 58.7843C106.576 60.1443 105.327 60.9377 104.003 61.7688ZM102.565 59.8799C101.733 60.4088 100.674 61.051 101.166 61.7688C101.657 62.4866 102.641 61.7688 103.473 61.2021C104.798 60.3332 105.592 59.8043 105.138 59.1243C104.684 58.4443 103.89 59.011 102.565 59.8799Z" fill="#EC660B" stroke="#EC660B" stroke-width="1.4805"/>
<path d="M106.689 65.0554C105.516 66.0376 104.381 66.982 103.36 65.7731C102.338 64.5643 103.511 63.6198 104.646 62.6376C105.857 61.6176 106.954 60.6732 107.976 61.882C109.035 63.1287 107.9 64.0731 106.689 65.0554ZM105.062 63.3554C104.306 63.9976 103.322 64.7531 103.89 65.3954C104.457 66.0376 105.365 65.2065 106.084 64.5643C107.295 63.5443 108.013 62.9398 107.522 62.3354C106.992 61.7309 106.235 62.3354 105.062 63.3554Z" fill="#EC660B" stroke="#EC660B" stroke-width="1.4805"/>
<path d="M106.878 69.2867L106.311 68.7578L109.754 65.169L108.732 64.9801L109.224 64.4512C109.602 64.5267 110.019 64.6023 110.435 64.6401L110.927 65.0934L106.878 69.2867Z" fill="#EC660B" stroke="#EC660B" stroke-width="1.4805"/>
<path d="M108.43 16.6246L108.505 16.7001C108.732 16.9646 109.111 17.0024 109.413 16.8135C109.451 16.7757 109.489 16.7757 109.489 16.7379C109.754 16.549 109.829 16.1335 109.602 15.869C109.565 15.8313 109.527 15.7935 109.489 15.7557C108.846 15.1513 107.673 16.5113 106.765 15.6801C106.311 15.3024 106.273 14.6224 106.689 14.169C106.727 14.1313 106.765 14.0935 106.803 14.0557C107.105 13.6024 107.749 13.489 108.203 13.829C108.278 13.9046 108.392 13.9801 108.43 14.0557L108.051 14.4335C107.749 14.1313 107.446 14.0179 107.105 14.3579C106.878 14.5468 106.841 14.9246 107.03 15.1513C107.068 15.189 107.068 15.189 107.105 15.2268C107.749 15.8313 108.921 14.4335 109.829 15.3402C110.435 15.9446 110.246 16.549 109.754 17.0402C108.921 17.909 108.278 17.2668 108.013 17.0024L108.43 16.6246Z" fill="white" stroke="white" stroke-width="0.2961" stroke-miterlimit="3.8637"/>
<path d="M109.905 11.2975L110.283 10.9575L111.078 13.5642L112.099 14.7353L111.721 15.0753L110.7 13.9042L108.24 12.7331L108.694 12.3553L110.586 13.2997L109.905 11.2975Z" fill="white" stroke="white" stroke-width="0.2961" stroke-miterlimit="3.8637"/>
<path d="M112.97 12.5065L113.045 12.6198C113.197 12.922 113.613 13.0354 113.915 12.8842C113.953 12.8465 113.991 12.8465 114.029 12.8087C114.332 12.6576 114.445 12.2798 114.294 11.9776C114.256 11.9398 114.256 11.902 114.218 11.8642C113.688 11.1465 112.289 12.2798 111.57 11.2976C111.191 10.8442 111.305 10.1642 111.759 9.78647C111.797 9.74869 111.835 9.71091 111.872 9.71091C112.251 9.33313 112.894 9.33313 113.272 9.74869C113.348 9.82424 113.424 9.93758 113.461 10.0131L113.083 10.3154C112.818 9.93758 112.553 9.78646 112.137 10.0887C111.872 10.2398 111.759 10.5798 111.91 10.8442C111.91 10.882 111.948 10.882 111.948 10.9198C112.478 11.6376 113.878 10.4665 114.596 11.5242C115.088 12.2042 114.786 12.7709 114.218 13.1487C113.272 13.8665 112.705 13.1109 112.516 12.8087L112.97 12.5065Z" fill="white" stroke="white" stroke-width="0.2961" stroke-miterlimit="3.8637"/>
<path d="M115.845 7.29346L116.072 7.67123L115.164 8.20012L116.98 11.2979L116.526 11.5623L114.71 8.46457L113.802 8.99346L113.575 8.61568L115.845 7.29346Z" fill="white" stroke="white" stroke-width="0.2961" stroke-miterlimit="3.8637"/>
<path d="M118.38 10.5423L116.639 6.87786L118.531 5.97119L118.72 6.38675L117.283 7.06674L117.85 8.23786L119.174 7.63341L119.363 8.04897L118.039 8.65342L118.645 9.93786L120.082 9.25786L120.271 9.67341L118.38 10.5423Z" fill="white" stroke="white" stroke-width="0.2961" stroke-miterlimit="3.8637"/>
<path d="M121.369 9.21983L120.915 9.37094L119.628 5.55538L120.423 5.29094L122.466 8.19983L122.352 4.64872L123.147 4.38428L124.433 8.19983L123.941 8.35094L122.806 4.95094L122.882 8.72872L122.428 8.87983L120.234 5.81983L121.369 9.21983Z" fill="white" stroke="white" stroke-width="0.2961" stroke-miterlimit="3.8637"/>
<path d="M127.838 4.53544C127.838 4.34655 127.762 4.11989 127.611 3.96878C127.46 3.89322 127.308 3.85544 127.119 3.85544C126.854 3.85544 126.665 4.04433 126.552 4.271C126.552 4.30878 126.476 4.42211 126.552 5.10211L126.741 6.15989C126.892 7.14211 127.233 7.21767 127.649 7.14211C127.8 7.10433 128.254 6.991 128.141 6.19767L128.67 6.12211C128.897 7.36877 128.027 7.51989 127.762 7.55766C127.271 7.63322 126.514 7.74656 126.249 6.19767L126.06 5.06433C125.871 3.931 126.325 3.55322 127.119 3.40211C127.914 3.28878 128.292 3.62878 128.368 4.42211L127.838 4.53544Z" fill="white" stroke="white" stroke-width="0.2961" stroke-miterlimit="3.8637"/>
<path d="M129.654 7.25534L129.351 3.21312L131.432 3.06201L131.47 3.51534L129.919 3.62868L129.995 4.91312L131.432 4.79979L131.47 5.25312L130.032 5.36645L130.146 6.76424L131.735 6.6509L131.773 7.10423L129.654 7.25534Z" fill="white" stroke="white" stroke-width="0.2961" stroke-miterlimit="3.8637"/>
<path d="M132.983 5.25328L132.946 7.10439H132.416L132.454 3.06217H133.854C134.345 3.02439 134.799 3.40217 134.799 3.93106C134.799 3.96884 134.799 4.04439 134.799 4.08217C134.837 4.5355 134.497 4.95106 134.043 4.98884C134.497 5.06439 134.686 5.2155 134.686 6.04661C134.686 6.38661 134.724 6.76439 134.799 7.10439H134.27C134.156 6.65106 134.118 6.19772 134.118 5.74439C134.118 5.44217 133.891 5.2155 133.589 5.2155C133.551 5.2155 133.551 5.2155 133.513 5.2155L132.983 5.25328ZM132.983 4.79995H133.74C134.118 4.79995 134.308 4.49773 134.308 4.11995C134.345 3.81773 134.118 3.55328 133.854 3.5155C133.816 3.5155 133.816 3.5155 133.778 3.5155H132.983V4.79995Z" fill="white" stroke="white" stroke-width="0.2961" stroke-miterlimit="3.8637"/>
<path d="M138.167 3.36418L138.129 3.81752L137.069 3.74196L136.767 7.33085L136.237 7.29307L136.54 3.70418L135.48 3.62863L135.518 3.17529L138.167 3.36418Z" fill="white" stroke="white" stroke-width="0.2961" stroke-miterlimit="3.8637"/>
<path d="M138.923 7.55754L138.431 7.48198L138.999 3.47754L139.491 3.55309L138.923 7.55754Z" fill="white" stroke="white" stroke-width="0.2961" stroke-miterlimit="3.8637"/>
<path d="M139.831 7.67126L140.626 3.70459L142.593 4.08237L142.517 4.5357L141.042 4.23348L140.777 5.51792L142.177 5.78237L142.101 6.2357L140.701 5.97126L140.323 7.78459L139.831 7.67126Z" fill="white" stroke="white" stroke-width="0.2961" stroke-miterlimit="3.8637"/>
<path d="M142.896 8.35113L142.404 8.23779L143.425 4.34668L143.917 4.46001L142.896 8.35113Z" fill="white" stroke="white" stroke-width="0.2961" stroke-miterlimit="3.8637"/>
<path d="M146.452 6.42421C146.528 6.23533 146.566 6.04644 146.528 5.81977C146.452 5.66866 146.301 5.55533 146.149 5.51755C145.922 5.40422 145.658 5.442 145.468 5.63088C145.431 5.66866 145.317 5.74422 145.09 6.38644L144.75 7.40644C144.447 8.35088 144.712 8.57755 145.09 8.69088C145.241 8.72866 145.695 8.842 145.96 8.08644L146.452 8.27533C146.074 9.48422 145.204 9.18199 144.977 9.10644C144.485 8.95533 143.766 8.6531 144.296 7.17977L144.674 6.08422C145.052 4.98866 145.62 4.87533 146.376 5.10199C147.133 5.32866 147.284 5.85755 146.982 6.57533L146.452 6.42421Z" fill="white" stroke="white" stroke-width="0.2961" stroke-miterlimit="3.8637"/>
<path d="M149.29 6.38672L149.895 6.65116L149.403 10.8823L148.873 10.6556L149.025 9.67338L147.625 9.03116L146.944 9.78672L146.452 9.56005L149.29 6.38672ZM149.365 6.95339L147.89 8.65339L149.063 9.18227L149.365 6.95339Z" fill="white" stroke="white" stroke-width="0.2961" stroke-miterlimit="3.8637"/>
<path d="M153.451 8.57759L153.224 8.95537L152.316 8.42648L150.5 11.5243L150.046 11.2598L151.862 8.16204L150.954 7.63315L151.181 7.25537L153.451 8.57759Z" fill="white" stroke="white" stroke-width="0.2961" stroke-miterlimit="3.8637"/>
<path d="M152.354 12.7331L151.938 12.4309L154.208 9.10645L154.624 9.40867L152.354 12.7331Z" fill="white" stroke="white" stroke-width="0.2961" stroke-miterlimit="3.8637"/>
<path d="M154.094 12.1289L154.927 11.1089C155.267 10.5422 155.986 10.3911 156.554 10.7311C156.629 10.7689 156.705 10.8444 156.781 10.8822C157.31 11.26 157.462 11.9777 157.083 12.5066C157.045 12.5822 156.97 12.6577 156.894 12.6955L156.062 13.7155C155.343 14.5844 154.738 14.66 154.094 14.1311C153.451 13.6022 153.376 12.9977 154.094 12.1289ZM155.608 13.4133L156.478 12.3555C157.008 11.7133 156.591 11.2977 156.44 11.2222C156.327 11.1088 155.835 10.7688 155.305 11.4111L154.435 12.4688C153.867 13.1488 153.943 13.4888 154.321 13.7911C154.738 14.0933 155.078 14.0933 155.608 13.4133Z" fill="white" stroke="white" stroke-width="0.2961" stroke-miterlimit="3.8637"/>
<path d="M160.64 14.6975L157.727 17.4931L157.235 17.002L158.672 13.4131L156.138 15.8309L155.835 15.4909L158.748 12.6953L159.24 13.2242L157.84 16.7375L160.337 14.3575L160.64 14.6975Z" fill="white" stroke="white" stroke-width="0.2961" stroke-miterlimit="3.8637"/>
<path fill-rule="evenodd" clip-rule="evenodd" d="M80.0925 60.0691V40.2358C80.1681 18.3247 62.4621 0.531363 40.5188 0.455808C18.5755 0.380252 0.755965 18.0603 0.680298 39.9714C0.680298 40.0847 0.680298 40.1603 0.680298 40.2736C0.680298 40.3114 8.6253 40.3114 8.6253 40.2736C8.6253 22.7447 22.8506 8.54025 40.4053 8.54025C57.96 8.54025 72.1853 22.7447 72.1853 40.2736V60.1069H80.0925V60.0691Z" fill="#7C7C7B"/>
<path d="M40.4053 50.3225L33.6332 43.5602V33.3225L40.4053 40.0847L55.8035 24.7091C47.291 16.2469 33.5197 16.2469 25.045 24.7469C16.5703 33.2469 16.5703 46.998 25.0828 55.4603C33.5953 63.9225 47.3667 63.9225 55.8413 55.4225C62.3487 48.9247 64.0512 39.0269 60.0787 30.7158L40.4053 50.3225Z" fill="#EC660B"/>
<path d="M53.6849 79.6384C51.7175 79.0339 51.3014 77.3339 51.4149 75.445H54.2902C54.2902 76.7673 54.328 77.8628 55.917 77.8628C56.9007 77.8628 57.3547 77.2584 57.3547 76.3139C57.3547 73.8584 51.604 73.7073 51.604 69.6273C51.604 67.4739 52.6255 65.7739 56.1062 65.7739C58.9058 65.7739 60.2678 67.0206 60.0787 69.8917H57.279C57.279 68.8717 57.0899 67.8139 55.9549 67.8139C55.236 67.7384 54.555 68.2673 54.4794 68.985C54.4794 69.0984 54.4794 69.1739 54.4794 69.2873C54.4794 71.8939 60.2678 71.6673 60.2678 75.9362C60.2678 78.3162 59.095 79.2606 57.6952 79.6384H53.6849Z" fill="#7C7C7B"/>
<path d="M67.2292 70.1939C67.267 68.9095 67.04 67.8139 65.5267 67.8139C63.7485 67.8139 63.7485 70.2317 63.7485 72.8762C63.7485 77.145 64.1647 77.9006 65.7915 77.9006C66.2833 77.9006 66.7752 77.7873 67.2292 77.6362V74.6139H65.678V72.4984H70.1045V79.4117C69.8018 79.4873 69.31 79.5628 68.7803 79.6384H63.862C61.2137 78.9962 60.8353 76.8806 60.8353 72.725C60.8353 69.2873 61.0245 65.7739 65.678 65.7739C68.4777 65.7739 70.218 67.3606 70.0667 70.1939H67.2292Z" fill="#7C7C7B"/>
<path d="M75.5146 65.7739C78.0116 65.7739 79.3736 66.7562 79.5628 68.9473V69.8917H76.7631C76.7631 68.9095 76.4983 67.8139 75.3633 67.8139C74.6445 67.7384 73.9635 68.2673 73.8878 68.985C73.8878 69.0984 73.8878 69.1739 73.8878 69.2873C73.8878 71.6673 78.8061 71.6673 79.5628 75.0295V76.9939C79.3736 78.3162 78.39 79.3739 77.0658 79.6384H73.0555C71.0881 79.0339 70.672 77.3339 70.7855 75.445H73.6608C73.6608 76.7673 73.7365 77.8628 75.2876 77.8628C76.2713 77.8628 76.7253 77.2584 76.7253 76.3139C76.7253 73.8584 70.9368 73.7073 70.9368 69.6273C70.9746 67.4739 71.9961 65.7739 75.5146 65.7739Z" fill="#7C7C7B"/>
<path d="M42.7888 79.6382H85.2V80.1671H42.7888V79.6382Z" fill="#EC660B"/>
<path d="M79.525 63.2427H80.0925V83.0004H79.525V63.2427Z" fill="#EC660B"/>
<path d="M1.17211 43.1823L1.13428 42.4268L7.18761 42.0112L7.22544 42.7668L1.17211 43.1823Z" fill="#EC660B" stroke="#EC660B" stroke-width="1.4805"/>
<path d="M3.17722 45.1846L2.98806 45.2223C2.45839 45.2223 2.04222 45.6757 2.04222 46.2046C2.04222 46.2801 2.04222 46.3179 2.08006 46.3934C2.19356 46.9979 2.49622 47.4134 3.21506 47.3001C4.53922 47.0734 3.97172 44.429 5.74989 44.1268C6.80922 43.9379 7.49022 44.6179 7.67939 45.6001C7.86856 46.6957 7.41456 47.3757 6.20389 47.5268L6.09039 46.7334C6.73356 46.6201 7.14972 46.3557 7.03622 45.6379C6.99839 45.1846 6.62006 44.8068 6.12822 44.8446C6.09039 44.8446 6.05256 44.8446 5.97689 44.8823C4.65272 45.109 5.29589 47.7534 3.40422 48.0557C2.15572 48.2446 1.58822 47.4512 1.43689 46.469C1.13422 44.6934 2.49622 44.5046 3.06372 44.429L3.17722 45.1846Z" fill="#EC660B" stroke="#EC660B" stroke-width="1.4805"/>
<path d="M4.38792 49.3399L6.27959 48.7355C7.45242 48.3955 8.36042 48.7355 8.73876 49.9822C9.11709 51.191 8.54959 52.0222 7.41459 52.3999L5.52292 53.0044C3.93392 53.4955 3.10159 53.1177 2.72326 51.871C2.30709 50.6244 2.76109 49.831 4.38792 49.3399ZM5.22026 52.211L7.18759 51.6066C8.39826 51.2288 8.17126 50.3977 8.09559 50.171C8.01992 49.9444 7.71726 49.1133 6.50659 49.491L4.53926 50.0955C3.25292 50.4733 3.06376 50.9644 3.29076 51.6444C3.51776 52.3244 3.97176 52.6266 5.22026 52.211Z" fill="#EC660B" stroke="#EC660B" stroke-width="1.4805"/>
<path d="M5.48515 58.331L5.14465 57.651L9.60899 55.4221L8.70099 54.8932L9.34416 54.5532C9.68466 54.7799 10.0252 54.9688 10.4035 55.1199L10.7062 55.7243L5.48515 58.331Z" fill="#EC660B" stroke="#EC660B" stroke-width="1.4805"/>
<path d="M7.45247 59.0113L8.01997 58.6713L12.0681 58.0669L12.5978 58.9358L9.4198 60.938L9.79814 61.5047L9.23064 61.8447L8.8523 61.278L7.64164 62.0336L7.26331 61.4291L8.47397 60.6736L7.45247 59.0113ZM9.04147 60.2958L11.6141 58.6713L8.36047 59.238L9.04147 60.2958Z" fill="#EC660B" stroke="#EC660B" stroke-width="1.4805"/>
<path d="M12.9383 64.187C11.7654 65.1315 10.5926 66.0759 9.60894 64.8292C8.62528 63.5826 9.79811 62.6759 10.9709 61.7315C12.1816 60.7492 13.3166 59.8048 14.3381 61.0514C15.3596 62.2981 14.1489 63.2048 12.9383 64.187ZM11.3493 62.4115C10.5926 63.0159 9.57111 63.7337 10.1008 64.4137C10.6304 65.0937 11.5763 64.2626 12.3329 63.6581C13.5436 62.6759 14.3003 62.0715 13.8084 61.467C13.3166 60.8626 12.5599 61.467 11.3493 62.4115Z" fill="#EC660B" stroke="#EC660B" stroke-width="1.4805"/>
<path d="M15.8136 67.1335C14.7543 68.1912 13.6949 69.2868 12.5599 68.1535C11.4249 67.0201 12.5221 66.0001 13.5814 64.9046C14.6786 63.809 15.7001 62.7512 16.8351 63.8846C17.9701 65.0179 16.9486 66.0379 15.8136 67.1335ZM14.0354 65.5846C13.3544 66.2646 12.4464 67.0957 13.0518 67.7001C13.6571 68.3046 14.4894 67.3979 15.1704 66.6801C16.2676 65.5846 16.9486 64.8668 16.3811 64.3379C15.8514 63.7712 15.1326 64.4512 14.0354 65.5846Z" fill="#EC660B" stroke="#EC660B" stroke-width="1.4805"/>
<path d="M16.3054 71.251L15.7001 70.7599L18.8024 66.8688L17.7431 66.7932L18.1971 66.2266C18.6132 66.2643 18.9916 66.3021 19.4077 66.3021L19.9374 66.7177L16.3054 71.251Z" fill="#EC660B" stroke="#EC660B" stroke-width="1.4805"/>
<path d="M15.284 16.398L15.3596 16.4736C15.5866 16.738 16.0028 16.7758 16.2676 16.5869C16.3055 16.5491 16.3433 16.5491 16.3433 16.5114C16.6082 16.3225 16.6838 15.9069 16.4568 15.6425C16.419 15.6047 16.3812 15.5669 16.3433 15.5291C15.7002 14.9247 14.5273 16.2847 13.6193 15.4536C13.1653 15.0758 13.1275 14.3958 13.5437 13.9425C13.5815 13.9047 13.6193 13.8669 13.6571 13.8291C13.9598 13.3758 14.603 13.2625 15.057 13.6025C15.1327 13.678 15.2461 13.7536 15.284 13.8291L14.9056 14.2069C14.603 13.9047 14.3003 13.7914 13.9598 14.1314C13.7328 14.3203 13.695 14.698 13.8842 14.9247C13.922 14.9625 13.922 14.9625 13.9598 15.0003C14.603 15.6047 15.7758 14.2069 16.6838 15.1136C17.2891 15.718 17.1 16.3225 16.6082 16.8136C15.7758 17.6825 15.1327 17.0403 14.8678 16.7758L15.284 16.398Z" fill="white" stroke="white" stroke-width="0.2961" stroke-miterlimit="3.8637"/>
<path d="M16.7595 11.071L17.1378 10.731L17.9323 13.3376L18.9538 14.5087L18.5755 14.8487L17.554 13.6776L15.0948 12.5065L15.5488 12.1287L17.4405 13.0732L16.7595 11.071Z" fill="white" stroke="white" stroke-width="0.2961" stroke-miterlimit="3.8637"/>
<path d="M19.824 12.2799L19.8997 12.3932C20.051 12.6955 20.4672 12.8088 20.7698 12.6577C20.8077 12.6199 20.8455 12.6199 20.8833 12.5821C21.186 12.431 21.2995 12.0532 21.1482 11.751C21.1103 11.7132 21.1103 11.6755 21.0725 11.6377C20.5428 10.9199 19.143 12.0532 18.4242 11.071C18.0458 10.6177 18.1593 9.93768 18.6133 9.5599C18.6512 9.52212 18.689 9.48435 18.7268 9.48435C19.1052 9.10657 19.7483 9.10657 20.1267 9.52212C20.2023 9.59768 20.278 9.71102 20.3158 9.78657L19.8618 10.0888C19.597 9.71101 19.3322 9.5599 18.916 9.86213C18.6512 10.0132 18.5377 10.3532 18.689 10.6177C18.689 10.6555 18.7268 10.6555 18.7268 10.6932C19.2565 11.411 20.6563 10.2399 21.3752 11.2977C21.867 11.9777 21.5643 12.5443 20.9968 12.9221C20.051 13.6399 19.5213 12.8843 19.2943 12.5821L19.824 12.2799Z" fill="white" stroke="white" stroke-width="0.2961" stroke-miterlimit="3.8637"/>
<path d="M22.6993 7.10449L22.9263 7.48227L22.0183 8.01116L23.8343 11.1089L23.3803 11.3734L21.5643 8.27561L20.6563 8.80449L20.4293 8.42671L22.6993 7.10449Z" fill="white" stroke="white" stroke-width="0.2961" stroke-miterlimit="3.8637"/>
<path d="M25.1963 10.3533L23.4559 6.68889L25.3476 5.78223L25.5368 6.19778L24.1369 6.87778L24.7044 8.04889L26.0286 7.44445L26.2178 7.86L24.8936 8.46445L25.4989 9.74889L26.9366 9.06889L27.1258 9.48445L25.1963 10.3533Z" fill="white" stroke="white" stroke-width="0.2961" stroke-miterlimit="3.8637"/>
<path d="M28.1852 8.99327L27.7312 9.14438L26.4448 5.32883L27.2393 5.06438L29.2823 7.97327L29.1688 4.42216L29.9633 4.15771L31.2497 7.97327L30.7578 8.12438L29.6228 4.72438L29.6985 8.50216L29.2445 8.65327L27.0502 5.59327L28.1852 8.99327Z" fill="white" stroke="white" stroke-width="0.2961" stroke-miterlimit="3.8637"/>
<path d="M34.6925 4.34672C34.6925 4.15783 34.6168 3.93116 34.4655 3.78005C34.3142 3.70449 34.1628 3.66672 33.9737 3.66672C33.7088 3.66672 33.5197 3.85561 33.4062 4.08227C33.4062 4.12005 33.3305 4.23338 33.4062 4.91338L33.5953 5.97116C33.7467 6.95338 34.0872 7.02894 34.5033 6.95339C34.6547 6.91561 35.1087 6.80228 34.9952 6.00894L35.5248 5.93338C35.7518 7.18005 34.8817 7.33116 34.6168 7.36894C34.125 7.44449 33.3683 7.55783 33.1035 6.00894L32.9143 4.87561C32.7252 3.74227 33.1792 3.36449 33.9737 3.21338C34.7682 3.06227 35.1465 3.44005 35.2222 4.23338L34.6925 4.34672Z" fill="white" stroke="white" stroke-width="0.2961" stroke-miterlimit="3.8637"/>
<path d="M36.5085 7.06686L36.2058 3.02464L38.2866 2.87354L38.3245 3.32687L36.7733 3.4402L36.849 4.72464L38.2866 4.61131L38.3245 5.06465L36.8868 5.17798L37.0003 6.57576L38.5893 6.46242L38.6271 6.91576L36.5085 7.06686Z" fill="white" stroke="white" stroke-width="0.2961" stroke-miterlimit="3.8637"/>
<path d="M39.8 5.02672L39.7622 6.87783H39.2325L39.2704 2.83561H40.6702C41.162 2.79783 41.616 3.17561 41.616 3.7045C41.616 3.74228 41.616 3.81783 41.616 3.85561C41.6539 4.30894 41.3134 4.7245 40.8594 4.76228C41.3134 4.83783 41.5025 4.98895 41.5025 5.82006C41.5025 6.16006 41.5404 6.53783 41.616 6.87783H41.0864C40.9729 6.4245 40.935 5.97117 40.935 5.51783C40.935 5.21561 40.708 4.98894 40.4054 4.98894C40.3675 4.98894 40.3675 4.98894 40.3297 4.98894L39.8 5.02672ZM39.8379 4.61117H40.5945C40.9729 4.61117 41.162 4.30894 41.162 3.93117C41.1999 3.62894 40.9729 3.3645 40.708 3.32672C40.6702 3.32672 40.6702 3.32672 40.6324 3.32672H39.8379V4.61117Z" fill="white" stroke="white" stroke-width="0.2961" stroke-miterlimit="3.8637"/>
<path d="M45.021 3.13762L44.9832 3.59095L43.9238 3.5154L43.6212 7.10429L43.0915 7.06651L43.3942 3.47762L42.3348 3.40206L42.3727 2.94873L45.021 3.13762Z" fill="white" stroke="white" stroke-width="0.2961" stroke-miterlimit="3.8637"/>
<path d="M45.7776 7.33098L45.2858 7.25542L45.8533 3.25098L46.3451 3.32653L45.7776 7.33098Z" fill="white" stroke="white" stroke-width="0.2961" stroke-miterlimit="3.8637"/>
<path d="M46.6857 7.48229L47.4802 3.51562L49.4475 3.8934L49.3718 4.34673L47.8963 4.04451L47.6315 5.32896L49.0313 5.5934L48.9557 6.04673L47.5558 5.78229L47.1775 7.59563L46.6857 7.48229Z" fill="white" stroke="white" stroke-width="0.2961" stroke-miterlimit="3.8637"/>
<path d="M49.7501 8.16216L49.2583 8.04883L50.2798 4.15771L50.7716 4.27105L49.7501 8.16216Z" fill="white" stroke="white" stroke-width="0.2961" stroke-miterlimit="3.8637"/>
<path d="M53.3065 6.19766C53.3821 6.00877 53.42 5.81988 53.3821 5.59321C53.3065 5.4421 53.1551 5.32876 53.0038 5.29099C52.7768 5.17765 52.512 5.21543 52.3228 5.40432C52.285 5.4421 52.1715 5.51765 51.9445 6.15988L51.604 7.17987C51.3013 8.12432 51.5661 8.35099 51.9445 8.46432C52.0958 8.5021 52.5498 8.61543 52.8146 7.85988L53.3065 8.04876C52.9281 9.25765 52.058 8.99321 51.831 8.87987C51.3391 8.72876 50.6203 8.42654 51.15 6.95321L51.5283 5.85765C51.9066 4.7621 52.4741 4.64876 53.2308 4.87543C53.9875 5.13987 54.1388 5.63099 53.8361 6.34876L53.3065 6.19766Z" fill="white" stroke="white" stroke-width="0.2961" stroke-miterlimit="3.8637"/>
<path d="M56.144 6.16016L56.7493 6.4246L56.2575 10.6557L55.7278 10.429L55.8792 9.44682L54.4415 8.8046L53.7605 9.56016L53.2687 9.33349L56.144 6.16016ZM56.2197 6.72682L54.7442 8.42682L55.917 8.95571L56.2197 6.72682Z" fill="white" stroke="white" stroke-width="0.2961" stroke-miterlimit="3.8637"/>
<path d="M60.3056 8.35103L60.0786 8.72881L59.1706 8.19992L57.3546 11.2977L56.9006 11.0332L58.7166 7.93547L57.8086 7.40659L58.0356 7.02881L60.3056 8.35103Z" fill="white" stroke="white" stroke-width="0.2961" stroke-miterlimit="3.8637"/>
<path d="M59.2085 12.5066L58.7924 12.2043L61.0624 8.87988L61.4785 9.18211L59.2085 12.5066Z" fill="white" stroke="white" stroke-width="0.2961" stroke-miterlimit="3.8637"/>
<path d="M60.911 11.9023L61.7433 10.8823C62.0838 10.3156 62.8026 10.1645 63.3701 10.5045C63.4458 10.5423 63.5215 10.6178 63.5593 10.6556C64.089 11.0334 64.2403 11.7512 63.862 12.2801C63.8241 12.3556 63.7485 12.4312 63.6728 12.469L62.8405 13.489C62.1216 14.3578 61.5163 14.4334 60.8731 13.9045C60.23 13.3756 60.23 12.7712 60.911 11.9023ZM62.4621 13.1867L63.3323 12.129C63.862 11.4867 63.4458 11.0712 63.2945 10.9956C63.181 10.8823 62.6891 10.5423 62.1595 11.1845L61.2893 12.2423C60.7218 12.9223 60.7975 13.2623 61.1758 13.5645C61.5541 13.9045 61.9325 13.8667 62.4621 13.1867Z" fill="white" stroke="white" stroke-width="0.2961" stroke-miterlimit="3.8637"/>
<path d="M67.494 14.471L64.5809 17.2665L64.089 16.7754L65.5267 13.1865L62.9919 15.6043L62.6892 15.2643L65.6024 12.4688L66.0942 12.9976L64.6944 16.511L67.1914 14.131L67.494 14.471Z" fill="white" stroke="white" stroke-width="0.2961" stroke-miterlimit="3.8637"/>
</svg>
