<svg width="98" height="75" viewBox="0 0 98 75" fill="none" xmlns="http://www.w3.org/2000/svg">
<path d="M93.7831 0.548584H45.3358C42.6299 0.548584 40.1313 1.96456 38.7783 4.27296C31.2424 17.1298 9.05526 54.9843 0.651542 69.3206C-0.80411 71.8074 1.01797 74.9111 3.9333 74.9111H52.3705C55.0784 74.9111 57.575 73.4971 58.9279 71.1867C66.6934 57.9392 88.3611 20.9731 97.0648 6.12324C98.5205 3.64033 96.6944 0.548584 93.7831 0.548584Z" fill="#C41D48"/>
<path d="M62.8809 41.6252L60.1377 40.0403C60.4146 38.5455 60.4146 37.0122 60.1377 35.5175L62.8809 33.9325C63.1965 33.7521 63.3381 33.3785 63.2351 33.0306C62.5203 30.7369 61.3033 28.6624 59.7127 26.9357C59.468 26.6716 59.0688 26.6072 58.7597 26.7875L56.0165 28.3725C54.8639 27.3803 53.5373 26.6136 52.1014 26.1111V22.9477C52.1014 22.5869 51.8502 22.2712 51.4961 22.1939C49.1328 21.6656 46.7116 21.6913 44.4642 22.1939C44.1101 22.2712 43.8589 22.5869 43.8589 22.9477V26.1175C42.4294 26.6265 41.1028 27.3932 39.9438 28.3789L37.207 26.794C36.8915 26.6136 36.4987 26.6716 36.254 26.9422C34.6634 28.6624 33.4464 30.7369 32.7316 33.037C32.6221 33.3849 32.7702 33.7586 33.0858 33.939L35.829 35.5239C35.5521 37.0186 35.5521 38.552 35.829 40.0467L33.0858 41.6316C32.7702 41.812 32.6286 42.1857 32.7316 42.5336C33.4464 44.8272 34.6634 46.9018 36.254 48.6284C36.4987 48.8926 36.8979 48.957 37.207 48.7766L39.9502 47.1917C41.1028 48.1839 42.4294 48.9506 43.8654 49.4531V52.6229C43.8654 52.9837 44.1165 53.2994 44.4707 53.3767C46.8339 53.905 49.2551 53.8793 51.5025 53.3767C51.8567 53.2994 52.1078 52.9837 52.1078 52.6229V49.4531C53.5373 48.9441 54.8639 48.1774 56.023 47.1917L58.7661 48.7766C59.0817 48.957 59.4745 48.899 59.7192 48.6284C61.3097 46.9082 62.5268 44.8337 63.2415 42.5336C63.3381 42.1792 63.1965 41.8056 62.8809 41.6252ZM47.9801 42.9331C45.1404 42.9331 42.8286 40.6201 42.8286 37.7789C42.8286 34.9376 45.1404 32.6247 47.9801 32.6247C50.8199 32.6247 53.1317 34.9376 53.1317 37.7789C53.1317 40.6201 50.8199 42.9331 47.9801 42.9331Z" fill="white"/>
</svg>
